<svg width="198" height="180" viewBox="0 0 198 180" fill="none" xmlns="http://www.w3.org/2000/svg">
<ellipse cx="78.0276" cy="151.28" rx="78.0276" ry="28.3737" fill="#E8E8E8"/>
<path d="M110.321 30.3461L181.579 49.4395L152.35 66.5762L169.095 96.0312L97.8368 76.9377L110.321 30.3461Z" fill="#76CAFF"/>
<rect x="104.62" y="21.475" width="8.5121" height="136.194" rx="4.25605" transform="rotate(15 104.62 21.475)" fill="#363636"/>
<rect x="78.103" y="14.9106" width="5" height="18" rx="2.5" transform="rotate(-30 78.103 14.9106)" fill="#76CAFF"/>
<rect x="65.0001" y="31.2491" width="5" height="18" rx="2.5" transform="rotate(-60 65.0001 31.2491)" fill="#76CAFF"/>
<path d="M138.97 67.782L138.079 71.1099L122.967 67.0608L123.543 64.5037L136.768 50.1947L139.909 51.0363L135.056 56.3784L127.798 64.7884L138.97 67.782ZM140.826 51.282L134.201 76.0037L130.228 74.9391L136.852 50.2174L140.826 51.282Z" fill="white"/>
</svg>
