<svg width="198" height="180" viewBox="0 0 198 180" fill="none" xmlns="http://www.w3.org/2000/svg">
<ellipse cx="78.0276" cy="151.28" rx="78.0276" ry="28.3737" fill="#E8E8E8"/>
<path d="M110.321 30.3461L181.579 49.4395L152.35 66.5762L169.095 96.0312L97.8368 76.9377L110.321 30.3461Z" fill="#76CAFF"/>
<rect x="104.62" y="21.475" width="8.5121" height="136.194" rx="4.25605" transform="rotate(15 104.62 21.475)" fill="#363636"/>
<rect x="78.103" y="14.9106" width="5" height="18" rx="2.5" transform="rotate(-30 78.103 14.9106)" fill="#76CAFF"/>
<rect x="65.0001" y="31.2491" width="5" height="18" rx="2.5" transform="rotate(-60 65.0001 31.2491)" fill="#76CAFF"/>
<path d="M137.232 73.249L136.341 76.5769L122.112 72.7644L122.881 69.8949L131.965 62.9568C132.964 62.1692 133.758 61.4719 134.345 60.8649C134.947 60.2496 135.404 59.6746 135.717 59.1398C136.031 58.6049 136.261 58.0602 136.41 57.5055C136.616 56.7358 136.691 56.0278 136.633 55.3816C136.587 54.7384 136.405 54.1981 136.085 53.7606C135.768 53.3118 135.316 53.0086 134.727 52.8509C133.992 52.6537 133.333 52.6896 132.751 52.9583C132.173 53.2158 131.678 53.6595 131.266 54.2893C130.858 54.9078 130.536 55.6585 130.299 56.5414L126.343 55.4814C126.728 54.0438 127.359 52.7994 128.235 51.7482C129.122 50.7 130.198 49.969 131.461 49.5554C132.728 49.1304 134.131 49.1241 135.67 49.5366C137.096 49.9188 138.227 50.5191 139.064 51.3376C139.911 52.1592 140.453 53.1476 140.689 54.3028C140.937 55.4611 140.873 56.742 140.497 58.1457C140.291 58.9154 139.977 59.6563 139.556 60.3684C139.149 61.0722 138.658 61.7476 138.085 62.3946C137.511 63.0416 136.856 63.673 136.121 64.2889C135.397 64.9077 134.614 65.5228 133.77 66.134L127.962 70.7649L137.232 73.249Z" fill="white"/>
</svg>
