<svg width="198" height="180" viewBox="0 0 198 180" fill="none" xmlns="http://www.w3.org/2000/svg">
<ellipse cx="78.0276" cy="151.28" rx="78.0276" ry="28.3737" fill="#E8E8E8"/>
<path d="M110.321 30.3461L181.579 49.4395L152.35 66.5762L169.095 96.0312L97.8368 76.9377L110.321 30.3461Z" fill="#76CAFF"/>
<rect x="104.62" y="21.475" width="8.5121" height="136.194" rx="4.25605" transform="rotate(15 104.62 21.475)" fill="#363636"/>
<rect x="78.103" y="14.9106" width="5" height="18" rx="2.5" transform="rotate(-30 78.103 14.9106)" fill="#76CAFF"/>
<rect x="65.0001" y="31.2491" width="5" height="18" rx="2.5" transform="rotate(-60 65.0001 31.2491)" fill="#76CAFF"/>
<path d="M130.021 59.6153L132.161 60.1886C132.874 60.3796 133.505 60.3789 134.054 60.1863C134.617 59.9854 135.088 59.6323 135.466 59.127C135.847 58.6104 136.136 57.9842 136.333 57.2484C136.54 56.4787 136.609 55.7877 136.543 55.1754C136.488 54.5662 136.29 54.0583 135.95 53.6518C135.622 53.2483 135.14 52.9616 134.507 52.7917C133.963 52.6461 133.439 52.6572 132.933 52.825C132.43 52.9814 131.984 53.2866 131.595 53.7405C131.221 54.1862 130.94 54.7599 130.752 55.4617L126.796 54.4017C127.148 53.0886 127.749 52.0001 128.599 51.136C129.449 50.272 130.456 49.6863 131.618 49.3789C132.791 49.0746 134.029 49.0968 135.33 49.4456C136.677 49.8066 137.789 50.3895 138.665 51.1945C139.556 51.9912 140.15 52.9876 140.448 54.1837C140.758 55.3828 140.707 56.752 140.294 58.2915C140.103 59.0046 139.775 59.687 139.309 60.3386C138.854 60.9933 138.275 61.5478 137.571 62.0022C136.87 62.4452 136.063 62.7387 135.151 62.8825C134.251 63.0294 133.251 62.9557 132.153 62.6615L129.403 61.9245L130.021 59.6153ZM129.148 62.8753L129.757 60.6001L132.508 61.3371C133.776 61.6768 134.794 62.1317 135.564 62.7018C136.347 63.2636 136.919 63.9143 137.279 64.6537C137.653 65.3849 137.858 66.1615 137.892 66.9836C137.927 67.8057 137.83 68.6412 137.603 69.4902C137.293 70.6448 136.836 71.6263 136.231 72.4348C135.626 73.2433 134.918 73.8724 134.106 74.3221C133.294 74.7718 132.41 75.0383 131.453 75.1217C130.508 75.2081 129.526 75.1149 128.507 74.8419C127.59 74.5962 126.758 74.2155 126.011 73.6998C125.263 73.1841 124.644 72.5511 124.154 71.801C123.678 71.0425 123.37 70.1774 123.23 69.2058C123.104 68.2258 123.197 67.1528 123.51 65.9869L127.449 67.0424C127.255 67.7669 127.208 68.4398 127.308 69.0612C127.42 69.6856 127.654 70.2154 128.011 70.6506C128.37 71.0745 128.85 71.3669 129.45 71.5276C130.095 71.7005 130.691 71.6963 131.237 71.5151C131.794 71.3368 132.276 70.9868 132.683 70.4649C133.101 69.946 133.422 69.2678 133.647 68.4301C133.898 67.4906 133.963 66.683 133.841 66.0072C133.73 65.3345 133.458 64.7884 133.024 64.3689C132.591 63.9495 132.012 63.6427 131.287 63.4486L129.148 62.8753Z" fill="white"/>
</svg>
