<?xml version="1.0" standalone="no"?>
<!DOCTYPE svg PUBLIC "-//W3C//DTD SVG 20010904//EN"
 "http://www.w3.org/TR/2001/REC-SVG-20010904/DTD/svg10.dtd">
<svg version="1.0" xmlns="http://www.w3.org/2000/svg"
 width="512.000000pt" height="512.000000pt" viewBox="0 0 512.000000 512.000000"
 preserveAspectRatio="xMidYMid meet">

<g transform="translate(0.000000,512.000000) scale(0.100000,-0.100000)"
fill="#000000" stroke="none">
<path d="M687 4656 c-114 -47 -177 -105 -230 -212 l-31 -64 -189 0 c-186 0
-188 0 -212 -25 l-25 -24 0 -1924 c0 -1880 0 -1925 19 -1948 l19 -24 2522 0
2522 0 19 24 c19 23 19 68 19 1948 l0 1924 -25 24 c-24 25 -26 25 -212 25
l-189 0 -27 59 c-40 88 -105 154 -195 198 l-76 38 -1825 2 -1826 3 -58 -24z
m3696 -132 c47 -16 124 -80 146 -123 l12 -21 -1981 0 c-1582 0 -1980 3 -1974
13 37 62 91 108 159 134 22 9 473 12 1811 12 1606 1 1785 -1 1827 -15z m597
-2116 l0 -1828 -2420 0 -2420 0 0 1828 0 1827 2420 0 2420 0 0 -1827z"/>
<path d="M1295 4085 l-25 -24 0 -741 0 -741 25 -24 24 -25 744 0 744 0 21 23
22 23 0 747 c0 734 0 747 -20 767 -20 20 -33 20 -765 20 l-746 0 -24 -25z
m1415 -765 l0 -650 -650 0 -650 0 0 650 0 650 650 0 650 0 0 -650z"/>
<path d="M1953 3796 c-92 -21 -175 -70 -242 -142 -129 -137 -169 -319 -110
-493 28 -81 60 -129 128 -194 192 -183 488 -180 676 7 298 299 107 807 -314
831 -46 3 -101 -1 -138 -9z m262 -168 c58 -30 124 -96 154 -152 11 -22 19 -41
18 -43 -5 -4 -279 -34 -282 -31 -12 13 -125 238 -125 248 0 9 22 11 93 8 74
-3 102 -9 142 -30z m-330 -131 c21 -37 35 -70 32 -73 -8 -9 -167 19 -167 28 0
28 79 133 90 121 5 -4 25 -39 45 -76z m22 -228 c142 -21 161 -22 280 -10 71 7
147 15 171 18 39 5 42 4 42 -18 0 -42 -55 -142 -102 -186 -81 -73 -119 -88
-233 -88 -86 0 -107 3 -150 24 -94 47 -176 155 -192 257 -5 32 -4 36 13 31 10
-3 88 -16 171 -28z"/>
<path d="M3119 4091 l-24 -19 0 -752 0 -752 24 -19 c22 -18 50 -19 765 -19
733 0 742 0 764 20 l22 21 0 749 c0 737 0 750 -20 770 -20 20 -33 20 -764 20
-717 0 -745 -1 -767 -19z m1411 -771 l0 -650 -647 2 -648 3 -3 648 -2 647 650
0 650 0 0 -650z"/>
<path d="M3352 3767 c-30 -32 -28 -71 4 -96 22 -17 41 -21 109 -21 68 0 87 4
109 21 33 26 34 68 3 97 -20 19 -35 22 -113 22 -82 0 -93 -2 -112 -23z"/>
<path d="M3670 3770 c-27 -27 -26 -71 3 -98 23 -22 28 -22 369 -22 321 0 347
1 369 18 31 26 31 78 0 104 -22 17 -48 18 -372 18 -336 0 -350 -1 -369 -20z"/>
<path d="M3352 3567 c-30 -32 -28 -71 4 -96 22 -17 41 -21 109 -21 68 0 87 4
109 21 33 26 34 68 3 97 -20 19 -35 22 -113 22 -82 0 -93 -2 -112 -23z"/>
<path d="M3670 3570 c-27 -27 -26 -71 3 -98 23 -22 28 -22 369 -22 321 0 347
1 369 18 31 26 31 78 0 104 -22 17 -48 18 -372 18 -336 0 -350 -1 -369 -20z"/>
<path d="M3352 3367 c-28 -30 -28 -68 1 -95 20 -19 35 -22 113 -22 82 0 93 2
112 23 28 30 28 68 -1 95 -20 19 -35 22 -113 22 -82 0 -93 -2 -112 -23z"/>
<path d="M3670 3370 c-11 -11 -20 -33 -20 -50 0 -17 9 -39 20 -50 19 -19 33
-20 369 -20 324 0 350 1 372 18 31 26 31 78 0 104 -22 17 -48 18 -372 18 -336
0 -350 -1 -369 -20z"/>
<path d="M3352 3167 c-28 -30 -28 -68 1 -95 20 -19 35 -22 113 -22 82 0 93 2
112 23 28 30 28 68 -1 95 -20 19 -35 22 -113 22 -82 0 -93 -2 -112 -23z"/>
<path d="M3670 3170 c-11 -11 -20 -33 -20 -50 0 -17 9 -39 20 -50 19 -19 33
-20 369 -20 324 0 350 1 372 18 31 26 31 78 0 104 -22 17 -48 18 -372 18 -336
0 -350 -1 -369 -20z"/>
<path d="M3352 2967 c-28 -30 -28 -68 1 -95 20 -19 35 -22 113 -22 82 0 93 2
112 23 28 30 28 68 -1 95 -20 19 -35 22 -113 22 -82 0 -93 -2 -112 -23z"/>
<path d="M3670 2970 c-11 -11 -20 -33 -20 -50 0 -17 9 -39 20 -50 19 -19 33
-20 369 -20 324 0 350 1 372 18 31 26 31 78 0 104 -22 17 -48 18 -372 18 -336
0 -350 -1 -369 -20z"/>
<path d="M422 3844 c-16 -11 -22 -25 -22 -54 0 -68 10 -70 281 -70 224 0 238
1 263 21 33 26 34 68 3 97 -23 21 -31 22 -263 22 -201 0 -243 -3 -262 -16z"/>
<path d="M432 3298 c-37 -18 -45 -76 -15 -110 15 -16 41 -18 265 -18 235 0
249 1 268 20 27 27 25 66 -5 95 l-24 25 -233 -1 c-147 0 -241 -4 -256 -11z"/>
<path d="M417 2733 c-19 -23 -23 -41 -14 -74 12 -46 42 -50 296 -47 231 3 233
3 252 27 25 30 24 66 -1 91 -19 19 -33 20 -268 20 -224 0 -250 -2 -265 -17z"/>
<path d="M1291 2254 c-21 -26 -21 -33 -21 -755 0 -416 4 -738 9 -752 5 -13 22
-29 38 -36 21 -8 216 -11 759 -9 704 3 733 4 753 22 21 19 21 19 21 768 0 735
0 748 -20 768 -20 20 -33 20 -769 20 l-750 0 -20 -26z m1419 -764 l0 -650
-647 2 -648 3 -3 648 -2 647 650 0 650 0 0 -650z"/>
<path d="M1507 2052 c-14 -15 -17 -42 -17 -150 0 -119 2 -134 20 -152 19 -19
33 -20 550 -20 l531 0 24 25 c24 23 25 30 25 150 0 112 -2 127 -20 145 -20 20
-33 20 -558 20 -509 0 -540 -1 -555 -18z m993 -152 l0 -30 -435 0 -435 0 0 30
0 30 435 0 435 0 0 -30z"/>
<path d="M1540 1663 c-46 -17 -50 -30 -50 -167 0 -72 4 -136 8 -142 21 -32 52
-34 572 -34 l521 0 24 25 c24 23 25 30 25 148 0 108 -3 128 -19 148 l-19 24
-524 2 c-287 1 -530 -1 -538 -4z m960 -168 l0 -25 -435 0 -435 0 0 25 0 25
435 0 435 0 0 -25z"/>
<path d="M1517 1240 c-27 -21 -27 -22 -27 -154 0 -122 2 -134 21 -152 20 -18
44 -19 556 -19 l535 0 19 24 c16 20 19 40 19 146 0 106 -3 126 -19 146 l-19
24 -529 3 c-525 2 -530 2 -556 -18z m983 -155 l0 -25 -435 0 -435 0 0 25 0 25
435 0 435 0 0 -25z"/>
<path d="M3111 2254 c-21 -26 -21 -33 -21 -755 0 -512 3 -735 11 -752 6 -14
22 -30 36 -36 17 -8 240 -11 752 -11 722 0 729 0 755 21 l26 20 0 753 c0 717
-1 754 -18 769 -17 16 -85 17 -770 17 l-751 0 -20 -26z m1419 -764 l0 -650
-647 2 -648 3 -3 648 -2 647 650 0 650 0 0 -650z"/>
<path d="M4180 1830 c-19 -19 -20 -33 -20 -253 0 -267 3 -277 70 -277 67 0 70
10 70 275 0 192 -3 234 -16 253 -20 29 -76 30 -104 2z"/>
<path d="M3352 1787 c-22 -23 -22 -29 -22 -316 l0 -292 25 -25 25 -25 509 3
c465 3 512 5 527 20 23 22 22 73 -1 98 -18 19 -30 20 -482 20 l-463 0 0 248
c0 247 0 249 -23 270 -30 28 -68 28 -95 -1z"/>
<path d="M3783 1760 c-38 -15 -43 -41 -43 -232 0 -150 3 -188 16 -206 20 -29
76 -30 104 -2 19 19 20 33 20 209 0 165 -2 191 -17 209 -22 25 -51 33 -80 22z"/>
<path d="M3550 1580 c-18 -18 -20 -33 -20 -133 0 -127 9 -147 66 -147 59 0 74
31 74 153 0 80 -3 98 -21 121 -25 32 -70 35 -99 6z"/>
<path d="M3972 1577 c-20 -21 -22 -34 -22 -128 0 -127 11 -149 70 -149 60 0
70 22 70 150 0 98 -2 108 -23 128 -30 28 -68 28 -95 -1z"/>
<path d="M422 2184 c-16 -11 -22 -25 -22 -54 0 -68 9 -70 285 -70 239 0 242 0
263 23 28 30 28 68 -1 95 -23 21 -31 22 -263 22 -201 0 -243 -3 -262 -16z"/>
<path d="M432 1638 c-37 -19 -45 -76 -15 -110 15 -16 41 -18 265 -18 235 0
249 1 268 20 25 25 26 61 1 91 -19 24 -20 24 -258 26 -160 1 -245 -2 -261 -9z"/>
<path d="M417 1073 c-19 -23 -23 -41 -14 -74 11 -44 40 -49 288 -49 l230 0 24
25 c30 29 32 68 5 95 -19 19 -33 20 -268 20 -224 0 -250 -2 -265 -17z"/>
</g>
</svg>
