<?xml version="1.0" standalone="no"?>
<!DOCTYPE svg PUBLIC "-//W3C//DTD SVG 20010904//EN"
 "http://www.w3.org/TR/2001/REC-SVG-20010904/DTD/svg10.dtd">
<svg version="1.0" xmlns="http://www.w3.org/2000/svg"
 width="512.000000pt" height="512.000000pt" viewBox="0 0 512.000000 512.000000"
 preserveAspectRatio="xMidYMid meet">

<g transform="translate(0.000000,512.000000) scale(0.100000,-0.100000)"
fill="#000000" stroke="none">
<path d="M2035 5114 c-544 -57 -1010 -274 -1381 -643 -184 -182 -305 -354
-424 -596 -145 -296 -214 -570 -227 -895 -36 -937 532 -1800 1411 -2145 256
-100 516 -148 801 -149 253 0 470 33 682 104 48 16 89 28 90 26 2 -2 53 -160
114 -352 61 -192 120 -363 131 -380 67 -99 217 -110 295 -21 21 24 80 174 222
562 106 292 198 535 205 541 6 7 247 98 536 203 314 115 538 202 558 218 87
66 94 197 15 276 -39 40 -33 38 -518 192 -131 42 -241 77 -242 79 -2 1 10 42
27 90 36 107 74 277 91 406 19 139 16 431 -5 575 -141 973 -873 1721 -1846
1887 -111 19 -437 32 -535 22z m95 -640 l0 -466 -92 7 c-166 11 -291 25 -408
46 -125 22 -327 67 -348 79 -11 5 -1 31 40 111 187 362 435 595 718 675 25 6
55 13 68 13 l22 1 0 -466z m265 452 c279 -75 536 -317 720 -677 l55 -107 -78
-21 c-105 -28 -246 -56 -377 -75 -130 -19 -393 -39 -406 -30 -5 3 -9 198 -9
465 l0 459 23 0 c12 0 45 -6 72 -14z m-896 -143 c-133 -138 -247 -300 -335
-475 -30 -60 -58 -108 -63 -108 -32 0 -321 136 -321 151 0 25 233 211 367 293
130 79 349 184 388 186 5 0 -11 -21 -36 -47z m1550 -11 c109 -48 264 -137 372
-214 75 -53 239 -195 239 -207 0 -14 -294 -151 -324 -151 -6 0 -32 45 -58 99
-61 129 -185 312 -294 435 -97 110 -98 109 65 38z m-2101 -697 c81 -33 93 -41
89 -59 -2 -12 -20 -73 -40 -136 -73 -240 -123 -516 -134 -752 l-6 -138 -343 0
-342 0 5 63 c29 386 172 763 405 1075 l70 92 101 -54 c56 -29 144 -71 195 -91z
m2916 43 c200 -272 331 -590 380 -920 9 -58 16 -129 16 -157 l0 -51 -340 0
-340 0 0 65 c0 236 -93 732 -179 956 -9 26 -8 27 52 49 64 23 295 135 312 151
5 5 12 9 16 9 4 0 41 -46 83 -102z m-2515 -172 c223 -55 425 -85 679 -102
l102 -6 0 -424 0 -424 -550 0 -550 0 0 78 c0 190 58 535 126 757 20 66 39 128
41 138 3 9 7 17 9 17 1 0 66 -15 143 -34z m1924 -88 c82 -278 137 -601 137
-805 l0 -63 -555 0 -555 0 0 424 0 424 108 7 c257 16 535 59 737 114 39 11 75
20 81 20 6 1 27 -54 47 -121z m-2411 -1180 c13 -245 62 -520 135 -758 53 -170
56 -151 -29 -184 -40 -15 -128 -56 -195 -91 l-122 -62 -71 94 c-225 301 -376
698 -397 1044 l-6 99 339 -2 339 -3 7 -137z m1268 -288 l0 -430 -53 0 c-170 0
-539 -53 -755 -109 l-113 -29 -10 27 c-86 225 -169 665 -169 899 l0 72 550 0
550 0 0 -430z m1276 308 c-7 -121 -23 -258 -31 -266 -2 -2 -118 32 -258 77
-140 45 -290 92 -333 106 -141 45 -229 25 -280 -61 -39 -66 -33 -110 51 -374
41 -129 73 -235 72 -236 -1 -1 -75 3 -164 9 l-163 11 0 421 c0 232 3 425 7
428 3 4 254 7 556 7 l550 0 -7 -122z m854 66 c0 -78 -26 -247 -56 -361 -25
-97 -59 -202 -69 -211 -3 -4 -56 10 -118 30 -62 20 -192 62 -291 93 l-178 57
5 52 c3 28 11 123 18 211 6 88 13 166 15 173 3 9 79 12 339 12 l335 0 0 -56z
m-456 -653 c621 -197 1133 -364 1139 -370 7 -7 7 -14 1 -20 -5 -4 -247 -95
-539 -202 -568 -208 -581 -214 -616 -294 -9 -22 -99 -265 -199 -540 -101 -275
-187 -504 -191 -509 -6 -6 -13 -6 -19 0 -11 11 -730 2259 -730 2282 0 6 6 12
13 12 8 0 521 -162 1141 -359z m-1674 -786 l0 -466 -37 7 c-224 40 -460 213
-638 469 -86 123 -191 323 -173 330 96 33 381 88 543 104 170 17 176 18 243
19 l62 2 0 -465z m470 444 c46 -6 86 -12 88 -14 6 -6 242 -749 242 -762 0 -13
-145 -63 -257 -88 -100 -22 -260 -45 -320 -45 l-53 0 0 458 c0 252 3 462 8
466 8 8 157 1 292 -15z m-1350 -434 c56 -92 142 -203 225 -293 l68 -73 -68 26
c-106 40 -281 131 -389 202 -95 64 -247 185 -294 235 l-22 25 117 56 c65 31
141 64 168 75 l50 18 51 -101 c28 -55 71 -132 94 -170z"/>
</g>
</svg>
