<svg id="Layer_1" data-name="Layer 1" xmlns="http://www.w3.org/2000/svg" viewBox="0 0 96 96"><path d="M87.31,80H8.69a6.25,6.25,0,0,1-6.25-6.25V16.57a6.25,6.25,0,0,1,6.25-6.25H87.31a6.25,6.25,0,0,1,6.25,6.25v57.2A6.25,6.25,0,0,1,87.31,80ZM8.69,12.32a4.25,4.25,0,0,0-4.25,4.25v57.2A4.25,4.25,0,0,0,8.69,78H87.31a4.25,4.25,0,0,0,4.25-4.25V16.57a4.25,4.25,0,0,0-4.25-4.25Z"/><path d="M87.56,69H8.44a1,1,0,0,1-1-1V16.32a1,1,0,0,1,1-1H87.56a1,1,0,0,1,1,1V68A1,1,0,0,1,87.56,69ZM9.44,67H86.56V17.32H9.44Z"/><path d="M70.37,85.68H25.63a1,1,0,1,1,0-2H70.37a1,1,0,0,1,0,2Z"/><path d="M66.32,85.68H29.68a1,1,0,0,1-.45-1.89,12.74,12.74,0,0,0,5.67-5.24,1,1,0,0,1,.89-.53H60.21a1,1,0,0,1,.89.53,12.74,12.74,0,0,0,5.67,5.24,1,1,0,0,1-.45,1.89Zm-33.22-2H62.9A14.07,14.07,0,0,1,59.63,80H36.37A14.07,14.07,0,0,1,33.1,83.68Z"/><path d="M63.73,51.84H46.11a3,3,0,0,1-2.93-2.24L37.05,27a2.77,2.77,0,0,0-2.65-2H30.84a1,1,0,0,1,0-2H34.4A4.77,4.77,0,0,1,39,26.5l6.13,22.58a1,1,0,0,0,1,.76H63.73a1,1,0,0,1,0,2Z"/><path d="M60,47H43.25a1,1,0,0,1-1-.74l-3.56-13.1a1,1,0,0,1,1-1.26H63.12A3,3,0,0,1,66,36l-3.13,9A3,3,0,0,1,60,47ZM44,45H60a1,1,0,0,0,1-.7l3.13-9a1,1,0,0,0-1-1.38H41Z"/><path d="M46.46,61.35a3.89,3.89,0,1,1,3.89-3.89A3.89,3.89,0,0,1,46.46,61.35Zm0-5.78a1.89,1.89,0,1,0,1.89,1.89A1.89,1.89,0,0,0,46.46,55.57Z"/><path d="M60.68,61.35a3.89,3.89,0,1,1,3.89-3.89A3.9,3.9,0,0,1,60.68,61.35Zm0-5.78a1.89,1.89,0,1,0,1.89,1.89A1.89,1.89,0,0,0,60.68,55.57Z"/></svg>