<?xml version="1.0" standalone="no"?>
<!DOCTYPE svg PUBLIC "-//W3C//DTD SVG 20010904//EN"
 "http://www.w3.org/TR/2001/REC-SVG-20010904/DTD/svg10.dtd">
<svg version="1.0" xmlns="http://www.w3.org/2000/svg"
 width="512.000000pt" height="512.000000pt" viewBox="0 0 512.000000 512.000000"
 preserveAspectRatio="xMidYMid meet">

<g transform="translate(0.000000,512.000000) scale(0.100000,-0.100000)"
fill="#000000" stroke="none">
<path d="M170 5099 c-55 -25 -95 -62 -123 -114 l-22 -40 0 -1651 0 -1651 30
-49 c21 -33 48 -60 85 -81 l54 -33 958 0 958 0 0 -440 0 -440 -567 0 c-348 0
-593 -4 -633 -11 -167 -27 -293 -158 -307 -319 -11 -114 36 -202 131 -246 l51
-24 1775 0 1775 0 51 24 c95 44 142 132 131 247 -14 159 -142 292 -308 319
-83 13 -280 13 -315 0 -54 -21 -71 -77 -35 -121 19 -23 25 -24 194 -29 l175
-5 44 -30 c49 -35 84 -92 94 -151 5 -34 2 -45 -19 -70 l-25 -29 -1762 0 -1762
0 -25 29 c-21 25 -24 36 -19 70 10 60 45 116 94 151 l44 30 1373 5 c1332 5
1374 6 1394 24 29 26 29 86 0 112 -20 18 -43 19 -335 22 l-314 3 0 440 0 439
955 0 956 0 49 25 c57 29 102 84 119 147 9 32 11 444 9 1668 l-3 1625 -22 40
c-28 52 -68 89 -123 114 -45 20 -54 21 -2136 21 l-2091 0 -27 -21 c-30 -23
-35 -72 -12 -105 14 -19 50 -19 2109 -24 l2095 -5 26 -24 c25 -23 26 -30 26
-123 l0 -98 -2380 0 -2380 0 0 98 c0 93 2 100 25 122 24 22 37 25 151 30 109
4 128 8 140 24 22 30 17 74 -11 101 -23 24 -30 25 -147 25 -102 0 -131 -4
-168 -21z m4770 -1799 l0 -1270 -220 0 c-174 0 -227 -3 -249 -15 -48 -24 -56
-81 -16 -120 l24 -25 231 0 230 0 0 -95 c0 -88 -2 -98 -25 -120 l-24 -25
-2331 0 -2331 0 -24 25 c-23 22 -25 32 -25 120 l0 95 2019 0 2018 0 27 21 c32
25 35 75 7 110 l-19 24 -2026 3 -2026 2 0 1270 0 1270 2380 0 2380 0 0 -1270z
m-2082 -2262 l2 -438 -300 0 -300 0 0 433 c0 239 3 437 7 440 4 4 137 6 297 5
l291 -3 3 -437z"/>
<path d="M587 4246 c-48 -18 -74 -41 -98 -88 -18 -36 -19 -72 -19 -837 0 -542
3 -809 11 -828 15 -40 48 -73 94 -94 38 -18 83 -19 833 -19 643 0 799 3 825
14 39 16 94 76 104 114 5 15 8 385 8 822 0 732 -1 797 -17 826 -23 43 -71 81
-116 94 -24 6 -308 10 -812 10 -628 -1 -782 -3 -813 -14z m1601 -925 c2 -613
0 -776 -10 -783 -7 -4 -355 -8 -774 -8 -578 0 -763 3 -772 12 -9 9 -12 196
-12 778 0 422 3 770 7 773 3 4 356 6 782 5 l776 -3 3 -774z"/>
<path d="M1420 3769 c-185 -69 -302 -118 -312 -131 -16 -18 -18 -44 -18 -214
l0 -194 -26 10 c-69 27 -165 4 -231 -54 -59 -51 -83 -104 -83 -181 0 -114 69
-209 174 -240 62 -19 80 -19 142 0 63 19 126 72 155 132 20 42 23 67 28 226
l6 179 200 74 c110 40 203 74 208 74 4 0 7 -29 7 -64 l0 -64 -65 6 c-113 9
-205 -44 -251 -143 -56 -119 -10 -256 108 -321 122 -67 271 -19 341 111 21 39
22 52 25 446 3 400 3 406 -18 432 -17 21 -30 27 -58 26 -21 0 -168 -49 -332
-110z m248 -115 l-3 -36 -200 -74 c-109 -41 -203 -74 -207 -74 -4 0 -8 15 -8
34 0 33 2 35 68 60 254 97 329 124 340 125 9 1 12 -10 10 -35z m-48 -489 c57
-30 69 -103 24 -149 -47 -46 -124 -32 -149 28 -21 51 1 106 50 127 30 12 43
11 75 -6z m-591 -76 c35 -12 61 -53 61 -94 0 -40 -50 -85 -95 -85 -27 0 -44 8
-66 29 -46 47 -34 116 25 145 38 19 35 19 75 5z"/>
<path d="M2590 4247 c-32 -16 -47 -58 -34 -94 19 -54 12 -53 645 -50 561 2
588 3 608 21 32 29 29 88 -5 115 -26 21 -35 21 -608 21 -446 0 -587 -3 -606
-13z"/>
<path d="M2576 3929 c-46 -36 -32 -108 25 -128 45 -16 1783 -16 1828 0 57 20
71 92 25 128 -27 21 -31 21 -939 21 -908 0 -912 0 -939 -21z"/>
<path d="M2685 3456 c-59 -27 -96 -67 -119 -128 -15 -37 -16 -84 -14 -344 l3
-301 30 -49 c19 -30 49 -60 79 -79 l49 -30 665 -5 665 -5 27 -101 c34 -125 43
-142 86 -160 38 -16 79 -10 107 14 16 15 23 11 90 -56 116 -115 162 -115 270
-3 63 65 67 72 67 116 0 45 -3 50 -77 126 l-77 80 17 28 c35 59 10 139 -49
161 l-24 10 0 282 c0 276 -1 284 -24 333 -28 60 -56 87 -116 114 -44 20 -61
21 -825 21 l-780 0 -50 -24z m1621 -159 c24 -28 24 -28 24 -278 0 -137 -2
-249 -5 -249 -3 0 -55 14 -116 31 -96 26 -115 29 -145 19 -47 -16 -77 -63 -70
-113 l4 -37 -625 2 -625 3 -24 28 -24 28 0 267 c0 288 2 301 54 322 11 5 360
8 774 7 l754 -2 24 -28z m-20 -677 l92 -23 -9 -32 c-14 -49 3 -81 84 -162 67
-69 70 -74 54 -90 -16 -16 -21 -12 -97 61 l-80 78 -54 -4 -54 -4 -26 96 c-30
111 -30 114 -13 108 6 -3 53 -15 103 -28z"/>
<path d="M2976 3234 c-14 -13 -16 -48 -16 -223 0 -182 2 -210 17 -222 11 -10
46 -14 119 -14 116 1 144 12 177 76 24 45 19 132 -10 160 -20 20 -20 21 -1 57
33 64 7 141 -57 168 -49 20 -208 19 -229 -2z m162 -103 c8 -5 12 -17 10 -27
-4 -25 -56 -32 -64 -10 -14 36 20 59 54 37z m17 -196 c0 -39 -1 -40 -37 -43
-38 -3 -38 -3 -38 36 0 47 6 54 45 50 28 -3 30 -6 30 -43z"/>
<path d="M3378 3239 c-16 -9 -18 -29 -18 -188 0 -169 1 -180 23 -212 61 -91
230 -89 287 3 19 30 20 47 18 213 l-3 180 -27 9 c-18 6 -38 6 -55 0 l-28 -9
-5 -167 c-3 -91 -8 -170 -12 -173 -12 -13 -60 -8 -69 6 -5 8 -9 85 -9 171 0
145 -1 158 -19 168 -25 13 -61 12 -83 -1z"/>
<path d="M3778 3235 c-16 -9 -28 -24 -28 -35 0 -10 29 -67 65 -127 l65 -108 0
-81 c0 -91 8 -104 60 -104 53 0 60 13 60 106 l0 83 65 109 c36 60 65 114 65
120 0 17 -51 52 -77 52 -24 0 -65 -53 -93 -120 -7 -17 -15 -30 -19 -30 -3 0
-24 33 -46 73 -44 79 -65 90 -117 62z"/>
</g>
</svg>
