<?xml version="1.0" standalone="no"?>
<!DOCTYPE svg PUBLIC "-//W3C//DTD SVG 20010904//EN"
 "http://www.w3.org/TR/2001/REC-SVG-20010904/DTD/svg10.dtd">
<svg version="1.0" xmlns="http://www.w3.org/2000/svg"
 width="512.000000pt" height="512.000000pt" viewBox="0 0 512.000000 512.000000"
 preserveAspectRatio="xMidYMid meet">

<g transform="translate(0.000000,512.000000) scale(0.100000,-0.100000)"
fill="#000000" stroke="none">
<path d="M2645 3714 c-442 -48 -825 -327 -999 -727 -19 -43 -36 -80 -39 -83
-3 -3 -23 6 -44 20 -96 64 -269 93 -396 66 -149 -31 -300 -148 -370 -287 -47
-95 -61 -166 -55 -284 l5 -97 -63 -6 c-306 -31 -576 -267 -660 -577 -23 -82
-26 -297 -5 -322 12 -16 144 -17 1731 -17 1623 0 1718 1 1732 18 19 21 58 171
58 222 0 88 -47 178 -120 230 -65 47 -91 48 -1080 60 -1010 13 -977 10 -953
63 11 24 13 24 205 31 106 3 497 9 868 12 808 7 901 11 988 47 140 56 271 164
339 278 41 69 153 361 153 399 0 16 -12 66 -26 112 -132 419 -494 740 -926
823 -85 16 -272 26 -343 19z"/>
<path d="M4027 2664 c-92 -286 -102 -372 -51 -470 32 -65 95 -115 164 -134 21
-6 139 -17 261 -25 247 -15 267 -21 235 -69 -13 -20 -25 -26 -54 -26 -20 -1
-131 -7 -247 -14 -234 -16 -299 -30 -399 -91 -90 -54 -162 -120 -216 -197 -53
-76 -106 -198 -97 -222 6 -14 82 -16 721 -16 l716 0 14 23 c36 57 55 272 37
412 -7 50 -26 131 -42 180 -90 270 -274 478 -531 600 -122 58 -235 85 -379 92
l-117 6 -15 -49z"/>
</g>
</svg>
