<?xml version="1.0" standalone="no"?>
<!DOCTYPE svg PUBLIC "-//W3C//DTD SVG 20010904//EN"
 "http://www.w3.org/TR/2001/REC-SVG-20010904/DTD/svg10.dtd">
<svg version="1.0" xmlns="http://www.w3.org/2000/svg"
 width="762.000000pt" height="980.000000pt" viewBox="0 0 762.000000 980.000000"
 preserveAspectRatio="xMidYMid meet">

<g transform="translate(0.000000,980.000000) scale(0.100000,-0.100000)"
fill="#000000" stroke="none">
<path d="M599 9785 c-275 -55 -491 -254 -573 -530 l-21 -70 -3 -4235 c-2
-3756 -1 -4245 13 -4325 17 -100 48 -191 64 -188 6 2 8 -4 5 -12 -7 -18 23
-68 36 -60 4 3 6 -3 3 -13 -2 -11 8 -30 26 -50 17 -17 31 -36 31 -41 0 -12 82
-84 139 -123 29 -19 46 -26 51 -18 5 7 11 6 20 -5 11 -13 10 -15 -4 -9 -9 3
-16 3 -16 0 0 -12 70 -37 82 -30 7 4 8 3 4 -4 -5 -8 2 -12 18 -12 14 0 26 -4
26 -10 0 -9 42 -22 110 -34 21 -4 30 -3 22 3 -11 7 -11 9 2 14 10 4 16 1 16
-9 0 -8 4 -13 9 -9 5 3 12 1 16 -5 4 -7 212 -10 611 -10 597 0 604 0 604 20 0
11 7 20 15 20 8 0 15 -9 15 -20 0 -18 7 -20 80 -20 l80 0 0 100 0 100 -477 3
c-323 1 -234 3 275 4 415 1 756 4 760 7 5 5 -1929 13 -2018 8 -23 -1 -30 1
-21 7 10 7 5 11 -18 16 -17 4 -51 18 -75 31 -26 14 -51 22 -62 18 -14 -4 -16
-3 -5 4 10 7 10 11 1 17 -7 4 -17 1 -22 -6 -8 -11 -9 -10 -4 3 4 12 -3 22 -22
32 -15 9 -23 15 -18 16 5 0 -1 11 -14 25 -12 13 -27 22 -33 18 -6 -3 -7 -1 -3
6 9 14 -12 43 -25 35 -5 -3 -6 2 -3 10 3 9 2 16 -4 16 -6 0 -13 14 -17 30 -4
17 -10 28 -14 26 -4 -3 -7 3 -8 12 0 9 -8 49 -17 87 -14 63 -16 465 -15 4275
0 3505 2 4216 13 4268 44 204 215 369 416 401 95 16 4240 15 4312 0 156 -33
297 -140 367 -276 51 -102 51 -88 51 -1238 0 -588 0 -1074 0 -1080 0 -7 -170
-9 -492 -8 -482 1 -495 1 -603 -22 -107 -23 -143 -35 -235 -78 -126 -58 -280
-185 -371 -305 -61 -81 -130 -221 -166 -337 l-28 -90 -3 -1208 c-1 -701 1
-1206 6 -1203 5 3 7 -6 4 -19 -2 -14 3 -36 13 -51 9 -14 14 -28 11 -32 -3 -3
-6 1 -6 8 0 7 -3 11 -6 8 -6 -7 23 -113 39 -143 6 -11 12 -28 14 -37 5 -28 67
-141 81 -146 7 -2 16 7 21 20 8 18 9 14 6 -22 -2 -37 3 -52 28 -87 17 -24 35
-43 40 -43 6 0 2 9 -8 20 -13 15 -15 24 -8 31 16 16 35 1 27 -23 -4 -15 -3
-18 6 -13 9 6 9 3 1 -13 -8 -16 -7 -23 7 -33 16 -13 16 -12 2 6 -14 18 -14 19
2 7 10 -8 23 -10 30 -6 9 6 9 3 -1 -9 -12 -16 -11 -21 15 -48 15 -16 34 -27
42 -24 15 6 57 -13 48 -22 -3 -3 -12 0 -21 7 -9 7 -18 11 -20 8 -3 -3 16 -21
41 -41 39 -30 53 -36 83 -32 28 3 32 2 18 -6 -9 -6 -22 -7 -27 -4 -6 3 -10 4
-10 1 0 -12 127 -69 155 -70 20 -1 29 -6 27 -15 -2 -8 3 -11 13 -8 8 4 15 2
15 -4 0 -5 12 -7 28 -3 22 4 24 3 12 -6 -13 -10 -13 -11 2 -6 10 3 30 -1 45
-9 15 -8 37 -15 48 -14 16 0 14 4 -10 14 -16 8 -23 14 -15 15 8 0 30 -9 48
-20 17 -11 42 -20 55 -21 12 -1 238 -2 502 -3 l480 -2 -440 6 c-242 3 -415 6
-384 8 117 5 179 15 179 28 0 10 13 14 43 14 42 0 42 0 41 34 -2 27 2 33 15
31 9 -2 16 -4 16 -5 0 -1 12 -3 27 -4 15 -2 25 0 23 4 -2 4 8 6 23 5 15 -1 34
3 42 9 12 8 13 8 3 -4 -10 -11 -9 -16 5 -26 15 -12 11 -13 -30 -14 -33 0 -48
-4 -48 -13 0 -9 15 -13 48 -12 31 1 51 -4 58 -14 10 -13 14 -13 29 -1 10 8 35
16 57 16 58 2 64 3 53 12 -6 4 -10 27 -10 52 l0 45 -72 1 c-422 8 -429 8 -133
14 l285 6 -372 -1 c-204 0 -369 2 -366 5 2 3 262 7 576 10 l572 6 -601 1
c-617 2 -661 4 -728 29 -21 8 -48 12 -60 9 -14 -4 -17 -3 -8 3 9 6 -4 14 -43
27 -30 11 -55 23 -55 28 0 5 -7 7 -15 3 -8 -3 -14 0 -12 7 1 7 -6 11 -15 11
-10 -1 -15 3 -11 9 4 6 0 8 -11 4 -10 -4 -15 -3 -11 3 4 6 -7 18 -24 28 -17 9
-31 20 -31 25 0 4 -4 7 -10 7 -19 0 -10 -21 13 -30 16 -8 17 -9 3 -7 -10 1
-30 18 -44 37 -14 19 -20 29 -12 23 33 -30 23 -10 -14 30 -23 23 -60 70 -83
104 -22 34 -44 59 -48 55 -4 -4 -6 0 -3 8 3 8 -5 31 -17 50 -12 19 -25 49 -29
65 -4 17 -14 59 -23 95 -15 58 -17 190 -20 1155 -4 1142 -2 1245 38 1366 69
212 219 385 412 478 168 81 61 75 1374 78 1061 3 1179 2 1245 -13 40 -9 83
-17 95 -18 12 0 19 -3 17 -5 -7 -8 69 -30 79 -24 6 3 7 2 4 -4 -4 -6 17 -23
46 -38 29 -16 55 -33 60 -39 5 -8 11 -6 18 4 9 13 10 13 6 -2 -6 -17 30 -48
57 -48 8 0 18 -4 21 -10 4 -6 -1 -7 -12 -3 -10 3 5 -18 33 -48 28 -30 56 -65
63 -77 7 -12 17 -20 23 -16 7 4 8 3 4 -5 -4 -6 2 -26 12 -44 45 -72 71 -129
77 -169 l7 -42 14 30 14 29 -4 -30 c-3 -17 -1 -37 5 -45 7 -13 9 -13 9 -1 0 8
2 12 5 10 2 -3 1 -15 -2 -28 -6 -23 -6 -23 -19 5 -13 29 -13 28 -7 -11 3 -22
9 -41 12 -42 3 -2 6 -515 6 -1140 l0 -1138 5 1115 c3 613 6 1108 8 1100 1 -8
3 -274 4 -590 2 -507 3 -536 8 -250 3 179 6 289 8 244 2 -64 5 -81 17 -81 16
0 18 46 15 240 -1 64 1 77 14 77 14 0 16 -22 16 -160 0 -88 4 -160 8 -160 9 0
22 195 22 328 l0 72 35 0 c24 0 35 5 35 15 0 8 5 15 11 15 14 0 7 309 -7 331
-5 8 -9 33 -10 55 -2 52 -14 76 -25 48 -6 -16 -8 -14 -8 9 -1 19 3 26 11 21 8
-5 9 0 5 17 -4 13 -7 27 -7 32 0 15 -19 7 -23 -10 -3 -13 -5 -11 -7 7 -2 24
-3 24 -10 -5 l-9 -30 2 30 c2 22 6 29 19 27 14 -2 15 2 6 35 -5 21 -15 43 -20
48 -8 7 -8 6 -3 -4 5 -10 4 -12 -4 -7 -6 4 -9 12 -6 17 7 10 -55 132 -62 125
-3 -2 3 -17 13 -33 17 -27 17 -28 -1 -10 -11 9 -20 28 -20 42 -2 32 -42 88
-57 79 -7 -5 -9 -2 -6 8 8 20 -101 128 -121 120 -10 -3 -12 0 -8 11 4 10 -6
25 -31 43 -21 16 -31 20 -22 9 14 -17 14 -17 -7 -5 -12 8 -21 18 -20 23 2 7
-32 30 -106 72 -15 9 -38 14 -50 11 -12 -3 -16 -3 -9 0 19 9 4 24 -24 24 -13
0 -24 4 -24 8 0 13 -154 51 -250 62 -47 5 -316 10 -597 10 l-513 0 0 1083 c0
1175 1 1146 -56 1289 -15 38 -31 65 -37 61 -6 -3 -7 -1 -3 5 11 18 -41 91
-125 176 -52 51 -84 76 -94 72 -8 -3 -14 0 -12 6 5 29 -166 102 -288 124 -115
20 -4284 19 -4386 -1z m6348 -2921 c-3 -3 -12 -4 -19 -1 -8 3 -5 6 6 6 11 1
17 -2 13 -5z m208 -74 c3 -6 -1 -7 -9 -4 -18 7 -21 14 -7 14 6 0 13 -4 16 -10z
m140 -110 c10 -11 13 -20 7 -20 -6 0 -16 9 -22 20 -6 11 -9 20 -7 20 2 0 12
-9 22 -20z m-280 -10 c-9 -14 8 -12 25 3 12 10 12 9 2 -4 -6 -9 -8 -19 -4 -23
4 -4 -6 -2 -21 5 -20 9 -24 15 -15 21 17 10 20 10 13 -2z m325 -67 c0 -8 -50
22 -54 33 -3 9 7 5 24 -8 17 -12 30 -23 30 -25z m31 0 c13 -16 12 -17 -3 -4
-10 7 -18 15 -18 17 0 8 8 3 21 -13z m-196 -16 c-9 -4 -25 -5 -36 -2 -17 6
-20 4 -13 -6 6 -12 5 -12 -9 0 -9 7 -17 14 -17 15 0 1 20 2 45 2 30 0 40 -3
30 -9z m246 -50 c12 -22 12 -22 -10 -3 -11 11 -21 23 -21 28 0 14 19 -1 31
-25z m-208 -24 c11 4 14 1 10 -9 -6 -17 13 -19 21 -1 3 6 3 0 0 -14 -3 -16 0
-30 10 -38 9 -8 16 -18 16 -24 0 -6 -14 7 -30 30 -17 23 -37 44 -45 47 -8 3
-15 11 -15 18 0 10 3 9 9 -1 5 -8 16 -11 24 -8z m65 -18 c-3 -3 -9 2 -12 12
-6 14 -5 15 5 6 7 -7 10 -15 7 -18z m215 -94 c2 -10 1 -25 -4 -32 -7 -12 -9
-11 -9 1 0 8 -3 26 -7 39 -4 16 -2 22 4 18 6 -4 13 -15 16 -26z m-42 -34 c-10
-9 -11 -8 -5 6 3 10 9 15 12 12 3 -3 0 -11 -7 -18z m89 -47 c0 -5 -5 -10 -11
-10 -5 0 -7 5 -4 10 3 6 8 10 11 10 2 0 4 -4 4 -10z m-9 -123 c-10 -9 -11 -8
-5 6 3 10 9 15 12 12 3 -3 0 -11 -7 -18z m10 -53 c-9 -28 -9 -29 -10 -3 -1 14
2 29 6 32 11 12 13 2 4 -29z m-61 1 c0 -8 -4 -15 -10 -15 -5 0 -7 7 -4 15 4 8
8 15 10 15 2 0 4 -7 4 -15z m107 -17 c-3 -8 -6 -5 -6 6 -1 11 2 17 5 13 3 -3
4 -12 1 -19z m-22 2 c3 -5 1 -10 -4 -10 -6 0 -11 5 -11 10 0 6 2 10 4 10 3 0
8 -4 11 -10z m-128 -412 c-1 -46 -3 -11 -3 77 0 88 2 125 3 83 2 -42 2 -114 0
-160z m-3740 -2080 c-3 -8 -6 -5 -6 6 -1 11 2 17 5 13 3 -3 4 -12 1 -19z m113
-223 c11 -16 11 -18 0 -8 -11 10 -17 10 -28 0 -13 -10 -14 -9 -1 10 7 12 14
21 14 20 0 -1 7 -11 15 -22z m-173 -87 c-3 -7 -5 -2 -5 12 0 14 2 19 5 13 2
-7 2 -19 0 -25z m225 13 c16 -18 15 -20 -1 -18 -9 0 -17 9 -17 19 0 10 1 18 1
18 0 0 8 -9 17 -19z m48 -61 c0 -5 -4 -10 -10 -10 -5 0 -10 5 -10 10 0 6 5 10
10 10 6 0 10 -4 10 -10z m70 -100 c0 -5 -5 -10 -11 -10 -5 0 -7 5 -4 10 3 6 8
10 11 10 2 0 4 -4 4 -10z m37 -3 c0 -8 -6 -14 -14 -14 -9 0 -10 4 -2 14 6 7
12 13 14 13 1 0 2 -6 2 -13z m-181 -52 c1 -13 -2 -27 -7 -30 -5 -4 -6 2 -2 11
5 14 3 16 -12 10 -18 -6 -18 -6 -2 12 9 10 15 22 12 25 -3 4 -2 5 2 2 3 -3 7
-16 9 -30z m264 1 c0 -3 -4 -8 -10 -11 -5 -3 -10 -1 -10 4 0 6 5 11 10 11 6 0
10 -2 10 -4z m30 -16 c-8 -5 -19 -10 -25 -10 -5 0 -3 5 5 10 8 5 20 10 25 10
6 0 3 -5 -5 -10z m51 -18 c-7 -2 -18 1 -23 6 -8 8 -4 9 13 5 13 -4 18 -8 10
-11z m117 -42 c7 0 20 -7 28 -15 17 -17 12 -19 -14 -6 -9 5 -25 12 -34 15 -10
3 -18 11 -18 18 0 9 3 9 12 0 7 -7 18 -12 26 -12z m125 -17 c-13 -2 -35 -2
-50 0 -16 2 -5 4 22 4 28 0 40 -2 28 -4z m-128 -21 c-3 -3 -11 0 -18 7 -9 10
-8 11 6 5 10 -3 15 -9 12 -12z m128 1 c-7 -2 -21 -2 -30 0 -10 3 -4 5 12 5 17
0 24 -2 18 -5z m-76 -9 c-3 -3 -12 -4 -19 -1 -8 3 -5 6 6 6 11 1 17 -2 13 -5z
m613 -14 c0 -5 -5 -10 -11 -10 -5 0 -7 5 -4 10 3 6 8 10 11 10 2 0 4 -4 4 -10z
m-880 -4 c0 -2 -7 -7 -16 -10 -8 -3 -12 -2 -9 4 6 10 25 14 25 6z m-28 -23 c9
-3 19 -11 22 -19 3 -9 -7 -7 -34 7 -40 21 -55 38 -22 24 9 -4 25 -9 34 -12z
m163 -57 c19 -8 35 -17 35 -20 0 -3 -15 1 -32 8 -18 7 -40 16 -48 19 -10 3
-10 6 -2 6 7 1 28 -6 47 -13z m108 -13 c-7 -2 -19 -2 -25 0 -7 3 -2 5 12 5 14
0 19 -2 13 -5z m67 -18 c-14 -17 -40 -20 -40 -6 0 8 18 16 44 20 5 0 3 -6 -4
-14z m-4184 -2604 c-3 -4 3 -16 14 -26 11 -10 20 -22 20 -27 0 -5 -11 3 -24
19 -21 24 -25 43 -10 43 3 0 3 -4 0 -9z m319 -49 c-6 -7 -45 9 -45 18 0 4 11
3 24 -3 14 -7 23 -13 21 -15z m54 12 c10 -9 -35 -3 -49 6 -11 8 -7 9 15 4 17
-4 32 -8 34 -10z m138 -30 c-3 -3 -12 -4 -19 -1 -8 3 -5 6 6 6 11 1 17 -2 13
-5z m-403 -12 c2 -4 -4 -8 -14 -8 -10 0 -16 4 -14 8 3 4 9 8 14 8 5 0 11 -4
14 -8z m1 -32 c3 -6 -1 -7 -9 -4 -18 7 -21 14 -7 14 6 0 13 -4 16 -10z m142
-56 c-3 -3 -12 -4 -19 -1 -8 3 -5 6 6 6 11 1 17 -2 13 -5z"/>
<path d="M1866 9131 c-66 -44 -75 -114 -22 -167 l34 -34 916 0 c637 0 922 3
939 11 51 23 74 110 41 157 -38 54 0 52 -976 52 -876 0 -904 -1 -932 -19z"/>
<path d="M4410 6143 c-81 -30 -90 -157 -14 -192 18 -8 345 -11 1159 -11 l1133
0 31 31 c51 51 39 134 -24 164 -29 13 -161 15 -1152 14 -615 0 -1125 -3 -1133
-6z m2270 -13 c18 -12 2 -12 -25 0 -13 6 -15 9 -5 9 8 0 22 -4 30 -9z m59 -70
c0 -10 -3 -8 -9 5 -12 27 -12 43 0 25 5 -8 9 -22 9 -30z m-8 -53 c-10 -9 -11
-8 -5 6 3 10 9 15 12 12 3 -3 0 -11 -7 -18z"/>
<path d="M4425 5518 c-19 -17 -35 -53 -61 -138 -19 -63 -32 -121 -29 -129 3
-9 3 -12 -2 -8 -9 9 -54 -143 -48 -161 3 -7 1 -11 -4 -8 -5 3 -12 -5 -15 -18
-3 -13 -9 -32 -13 -42 -5 -13 -3 -15 8 -9 10 6 10 3 -2 -11 -9 -10 -23 -44
-32 -74 -9 -30 -40 -131 -68 -225 -106 -349 -108 -361 -53 -412 31 -28 103
-32 129 -7 30 30 47 64 41 79 -3 9 -2 14 3 11 11 -7 24 41 15 55 -3 6 1 18 9
27 8 9 22 45 32 80 l19 62 132 0 c73 0 141 3 151 6 10 3 14 2 7 -3 -7 -5 0
-39 21 -106 17 -54 33 -95 37 -92 3 3 3 -7 1 -22 -4 -22 -2 -25 7 -13 8 12 9
9 5 -11 -5 -21 0 -33 24 -58 27 -28 60 -44 47 -22 -3 4 8 8 23 7 16 -1 27 -4
24 -8 -2 -5 2 -8 10 -8 20 0 77 66 77 88 0 15 -2 15 -10 2 -13 -20 -13 -4 1
18 8 13 4 35 -14 90 -13 39 -26 70 -29 67 -3 -3 -3 7 -1 22 4 23 2 25 -7 13
-10 -12 -11 -11 -7 8 5 20 -40 181 -143 522 -16 52 -48 158 -71 235 -23 77
-46 150 -52 163 -24 52 -116 69 -162 30z m25 -8 c0 -5 -5 -10 -11 -10 -5 0 -7
5 -4 10 3 6 8 10 11 10 2 0 4 -4 4 -10z m67 -481 c-8 -30 3 -80 15 -73 6 4 7
-2 3 -16 -4 -12 -3 -20 1 -17 5 3 10 -5 11 -16 0 -12 4 -41 8 -64 l8 -43 -62
0 c-33 0 -64 0 -68 0 -5 -1 -9 8 -11 20 -2 11 -8 17 -14 14 -7 -4 -8 -2 -4 5
4 6 11 9 16 6 8 -5 50 110 50 135 0 5 5 21 11 37 8 22 12 24 19 13 8 -13 10
-12 10 3 0 9 3 17 6 17 4 0 4 -10 1 -21z m30 -51 c-3 -8 -6 -5 -6 6 -1 11 2
17 5 13 3 -3 4 -12 1 -19z m200 -155 c-3 -10 -5 -4 -5 12 0 17 2 24 5 18 2 -7
2 -21 0 -30z m30 -25 c-3 -8 -6 -5 -6 6 -1 11 2 17 5 13 3 -3 4 -12 1 -19z
m-100 -270 c-3 -8 -6 -5 -6 6 -1 11 2 17 5 13 3 -3 4 -12 1 -19z m220 -140
c-3 -7 -5 -2 -5 12 0 14 2 19 5 13 2 -7 2 -19 0 -25z"/>
<path d="M5114 5506 l-34 -34 1 -563 c0 -310 4 -573 9 -584 8 -19 9 -18 11 5
1 20 3 18 8 -10 5 -27 14 -39 41 -52 32 -17 35 -17 41 -1 3 9 15 17 27 18 11
1 19 -2 16 -7 -4 -5 -12 -7 -20 -4 -8 3 -14 1 -14 -4 0 -15 23 -12 46 5 15 12
16 16 5 24 -9 6 -10 11 -2 15 6 4 11 2 11 -3 0 -6 4 -11 9 -11 23 0 31 74 31
279 l0 216 140 1 c77 0 152 2 168 3 40 3 162 42 162 52 0 5 5 9 11 9 6 0 30
14 53 31 35 24 42 35 41 59 -1 16 2 27 7 24 5 -4 7 -13 3 -21 -5 -13 -3 -14
11 -3 20 17 55 86 58 114 1 12 5 27 9 33 14 23 0 167 -22 216 -42 96 -217 229
-258 196 -11 -9 -12 -9 -8 3 9 22 -53 28 -307 28 l-220 0 -34 -34z m529 7 c-7
-2 -19 -2 -25 0 -7 3 -2 5 12 5 14 0 19 -2 13 -5z m4 -19 c-3 -3 -12 -4 -19
-1 -8 3 -5 6 6 6 11 1 17 -2 13 -5z m188 -64 c12 -19 -12 -10 -31 11 -19 22
-19 22 3 10 12 -6 25 -16 28 -21z m50 -59 c-6 -6 -35 27 -35 39 0 7 9 2 19
-11 11 -13 18 -26 16 -28z m0 -31 c3 -5 2 -10 -4 -10 -5 0 -13 5 -16 10 -3 6
-2 10 4 10 5 0 13 -4 16 -10z m-232 -21 c18 -1 24 -5 17 -9 -9 -6 -7 -10 7
-14 11 -4 33 -21 50 -39 25 -28 29 -39 29 -94 0 -34 -2 -61 -3 -59 -2 1 -21
-14 -43 -35 -21 -20 -53 -40 -69 -44 -17 -4 -33 -10 -35 -13 -2 -4 -72 -6
-155 -4 l-150 3 -3 160 -3 161 165 -6 c91 -3 178 -6 193 -7z m92 -49 c10 -11
16 -20 13 -20 -3 0 -13 9 -23 20 -10 11 -16 20 -13 20 3 0 13 -9 23 -20z m-1
-211 c-25 -27 -38 -23 -17 5 10 13 22 22 26 19 5 -3 1 -14 -9 -24z m-27 -46
c-7 -6 -46 10 -41 18 3 5 14 3 24 -3 11 -7 18 -13 17 -15z m-620 -75 c-2 -13
-4 -3 -4 22 0 25 2 35 4 23 2 -13 2 -33 0 -45z m758 22 c-1 -31 -6 -44 -25
-56 -25 -15 -25 -15 -5 3 12 11 20 30 19 48 -1 27 3 45 10 45 1 0 2 -18 1 -40z
m58 25 c-3 -9 -8 -14 -10 -11 -3 3 -2 9 2 15 9 16 15 13 8 -4z m-103 -69 c0
-2 -7 -7 -16 -10 -8 -3 -12 -2 -9 4 6 10 25 14 25 6z m-200 -86 c-8 -5 -22 -9
-30 -9 -10 0 -8 3 5 9 27 12 43 12 25 0z m-273 -16 c-3 -3 -12 -4 -19 -1 -8 3
-5 6 6 6 11 1 17 -2 13 -5z m86 -11 c-13 -2 -33 -2 -45 0 -13 2 -3 4 22 4 25
0 35 -2 23 -4z m124 1 c-3 -3 -12 -4 -19 -1 -8 3 -5 6 6 6 11 1 17 -2 13 -5z
m-450 -106 c-2 -13 -4 -3 -4 22 0 25 2 35 4 23 2 -13 2 -33 0 -45z m0 -240
c-2 -13 -4 -3 -4 22 0 25 2 35 4 23 2 -13 2 -33 0 -45z m186 -118 c-3 -12 -8
-19 -11 -16 -5 6 5 36 12 36 2 0 2 -9 -1 -20z m-58 -30 c3 -5 1 -10 -4 -10 -6
0 -11 5 -11 10 0 6 2 10 4 10 3 0 8 -4 11 -10z"/>
<path d="M6175 5515 c-45 -44 -45 -47 -43 -618 2 -452 3 -494 8 -257 l5 285 5
-288 c3 -158 2 -287 -2 -287 -5 0 -8 -7 -8 -15 0 -8 3 -14 8 -13 13 2 47 -15
66 -35 20 -20 19 -20 -10 -13 -19 4 -24 3 -15 -3 18 -12 83 -12 101 0 10 6 4
7 -20 4 -19 -3 -28 -2 -20 1 30 13 57 39 53 51 -3 9 -18 11 -49 6 -36 -5 -44
-3 -44 10 0 9 11 19 25 23 21 5 25 12 25 40 0 19 5 34 10 34 6 0 10 -19 10
-42 0 -73 20 -28 23 50 1 40 5 72 10 72 6 0 12 -141 8 -180 -2 -10 3 -7 13 6
13 18 16 62 18 234 l3 212 135 -1 c74 -1 132 0 129 3 -2 3 -57 6 -122 7 -64 1
-119 5 -122 9 -3 5 21 6 52 4 32 -2 108 -5 168 -8 143 -4 100 10 -65 23 l-125
10 135 -4 c75 -2 148 -8 162 -14 20 -8 39 -6 73 6 25 8 44 17 42 19 -2 2 -18
-1 -36 -7 -46 -16 -61 -6 -61 41 0 39 1 40 35 40 40 0 43 -11 15 -47 -24 -31
-21 -37 14 -24 23 9 25 15 21 46 -4 34 14 86 31 87 5 0 19 4 32 9 30 12 41 11
22 -1 -8 -5 -11 -12 -7 -16 3 -4 13 -1 22 6 23 19 18 -4 -5 -25 -12 -10 -35
-19 -52 -19 -17 -1 -33 -7 -36 -15 -4 -11 4 -12 34 -8 30 5 34 4 17 -3 -29
-12 -30 -24 -2 -15 17 6 20 4 13 -6 -4 -8 7 -2 26 12 19 14 36 32 38 40 2 8
-6 3 -18 -10 -11 -13 -24 -21 -27 -17 -4 4 10 23 31 44 28 26 37 31 32 17 -6
-19 -5 -19 8 -2 8 10 11 28 8 39 l-5 22 -8 -22 c-9 -23 -33 -29 -44 -12 -3 6
1 10 10 10 13 0 15 7 9 35 -9 52 25 44 43 -10 l10 -30 13 28 c10 20 11 30 2
39 -8 8 -9 5 -5 -12 4 -16 3 -21 -5 -16 -18 11 -15 86 2 86 8 0 17 -10 19 -22
2 -13 3 -5 1 17 -3 29 -2 36 6 25 5 -8 10 -10 10 -5 0 6 -5 17 -10 25 -9 13
-11 13 -20 0 -7 -11 -10 -2 -10 32 0 26 5 50 10 53 6 3 10 13 10 21 0 8 -4 13
-9 10 -10 -6 -25 24 -16 32 3 3 5 -1 5 -8 0 -7 3 -11 6 -7 6 6 -27 58 -53 85
-7 7 -13 18 -13 23 0 6 -9 5 -22 -2 -19 -9 -21 -9 -11 1 10 11 7 18 -13 37
-31 29 -79 54 -88 46 -3 -4 -6 -1 -6 5 0 9 -24 18 -85 29 -11 2 -130 5 -264 6
-234 2 -246 1 -266 -18z m40 5 c-3 -5 -11 -10 -16 -10 -6 0 -7 5 -4 10 3 6 11
10 16 10 6 0 7 -4 4 -10z m88 3 c-13 -2 -33 -2 -45 0 -13 2 -3 4 22 4 25 0 35
-2 23 -4z m364 1 c-3 -3 -12 -4 -19 -1 -8 3 -5 6 6 6 11 1 17 -2 13 -5z m-44
-21 c-13 -2 -33 -2 -45 0 -13 2 -3 4 22 4 25 0 35 -2 23 -4z m90 0 c-7 -2 -21
-2 -30 0 -10 3 -4 5 12 5 17 0 24 -2 18 -5z m44 1 c-3 -3 -12 -4 -19 -1 -8 3
-5 6 6 6 11 1 17 -2 13 -5z m50 -61 c-3 -10 -5 -4 -5 12 0 17 2 24 5 18 2 -7
2 -21 0 -30z m55 11 c9 -3 19 -12 22 -19 4 -11 -1 -11 -24 -4 -16 6 -31 17
-34 26 -4 9 -2 13 6 9 7 -3 21 -9 30 -12z m2 -37 c3 3 6 1 6 -5 0 -7 -13 -12
-30 -12 -22 0 -28 4 -24 15 4 11 11 12 24 5 9 -5 20 -6 24 -3z m53 -39 c-3 -8
-6 -5 -6 6 -1 11 2 17 5 13 3 -3 4 -12 1 -19z m-560 -4 c-3 -3 -12 -4 -19 -1
-8 3 -5 6 6 6 11 1 17 -2 13 -5z m226 -1 c-34 -2 -93 -2 -130 0 -37 2 -9 3 62
3 72 0 102 -1 68 -3z m332 -23 c21 -23 4 -27 -19 -4 -18 17 -20 24 -8 24 5 0
17 -9 27 -20z m-496 6 c-12 -10 -60 -16 -54 -6 3 5 18 10 32 10 15 0 24 -2 22
-4z m221 -8 c0 -11 -49 -9 -75 2 -15 7 -8 9 28 8 26 -1 47 -5 47 -10z m328
-17 c2 -15 0 -21 -7 -16 -6 3 -8 11 -5 17 4 6 0 15 -7 20 -12 8 -11 9 1 5 8
-2 17 -14 18 -26z m-245 -31 c39 -26 67 -30 67 -8 0 6 -7 7 -16 4 -9 -3 -25 0
-36 8 -18 13 -17 14 16 13 20 -1 37 -3 37 -6 1 -4 3 -19 5 -36 2 -22 1 -26 -6
-15 -5 8 -10 10 -10 4 0 -5 7 -19 15 -30 8 -10 15 -30 16 -44 2 -24 2 -24 6
-2 7 38 23 24 23 -21 0 -25 -7 -52 -16 -63 -15 -19 -16 -19 -9 1 16 46 15 58
-3 26 -10 -18 -18 -46 -17 -62 1 -22 -1 -26 -11 -18 -9 8 -18 7 -31 -1 -17
-11 -17 -11 2 -6 18 5 17 4 -4 -14 -13 -11 -31 -19 -40 -19 -14 1 -13 2 2 6 9
2 17 8 17 13 0 4 -13 3 -29 -3 -17 -6 -28 -13 -26 -16 2 -4 -70 -5 -158 -4
l-162 2 -3 25 c-2 14 -8 26 -13 26 -6 0 -8 -13 -5 -32 4 -23 3 -27 -2 -13 -5
11 -6 72 -3 135 l6 115 6 -95 c6 -91 6 -89 5 33 l-1 128 168 -1 c168 -2 169
-2 210 -30z m-386 -12 c-3 -8 -6 -5 -6 6 -1 11 2 17 5 13 3 -3 4 -12 1 -19z
m642 -24 c4 3 5 -11 3 -30 -5 -43 -8 -41 -15 11 -3 22 -3 34 0 27 2 -6 8 -10
12 -8z m-104 -100 c-5 -42 -3 -61 9 -79 18 -27 22 -75 6 -75 -5 0 -10 14 -10
31 0 17 -5 40 -12 52 -6 12 -13 45 -14 72 -1 40 0 44 6 20 l8 -30 1 33 c0 17
4 32 7 32 4 0 3 -25 -1 -56z m100 -4 c-4 -12 -9 -19 -12 -17 -3 3 -2 15 2 27
4 12 9 19 12 17 3 -3 2 -15 -2 -27z m-828 -112 c-2 -24 -4 -7 -4 37 0 44 2 63
4 43 2 -21 2 -57 0 -80z m820 45 c-3 -10 -5 -4 -5 12 0 17 2 24 5 18 2 -7 2
-21 0 -30z m-177 -68 c0 -2 -10 -10 -22 -16 -21 -11 -22 -11 -9 4 13 16 31 23
31 12z m-150 -35 c0 -9 -228 -3 -239 6 -2 2 50 4 117 4 75 0 122 -4 122 -10z
m-330 -162 c0 -9 4 -8 10 2 6 9 10 10 10 3 0 -6 -5 -15 -10 -18 -6 -4 -8 -11
-5 -16 4 -5 3 -14 -1 -21 -5 -8 -10 -6 -15 8 -11 28 -11 54 1 54 6 0 10 -6 10
-12z m415 2 c3 -6 -1 -7 -9 -4 -18 7 -21 14 -7 14 6 0 13 -4 16 -10z m-372
-17 c-10 -3 -13 -59 -13 -231 0 -124 -2 -223 -5 -221 -7 8 -7 437 0 449 3 5
12 10 18 9 9 0 9 -2 0 -6z m-112 -116 c-8 -8 -11 -5 -11 9 0 27 14 41 18 19 2
-9 -1 -22 -7 -28z"/>
<path d="M7007 5243 c-10 -10 -8 -43 2 -43 5 0 8 11 7 25 0 14 -1 25 -2 25 0
0 -4 -3 -7 -7z"/>
<path d="M6835 4960 c-3 -5 -2 -10 4 -10 5 0 13 5 16 10 3 6 2 10 -4 10 -5 0
-13 -4 -16 -10z"/>
<path d="M6835 4870 c-3 -5 -2 -10 4 -10 5 0 13 5 16 10 3 6 2 10 -4 10 -5 0
-13 -4 -16 -10z"/>
<path d="M4392 3844 c-33 -23 -54 -70 -47 -105 4 -16 10 -27 15 -24 4 3 7 -3
6 -13 0 -10 13 -24 34 -34 33 -17 94 -18 879 -18 464 0 842 3 839 6 -4 3 -390
8 -860 11 -469 3 -855 7 -857 10 -3 2 482 3 1078 3 596 -1 1085 1 1089 4 7 7
17 7 -613 9 -401 1 -464 2 -275 7 135 3 225 7 200 9 l-45 4 45 7 c66 10 47 12
-122 14 -142 1 -153 2 -156 20 -4 18 2 19 139 13 79 -3 187 -2 239 2 l95 8
-79 1 c-58 2 -77 5 -73 15 3 9 -23 11 -119 9 -107 -3 -124 -1 -124 12 0 14 23
16 163 18 89 2 -56 5 -323 8 -452 5 -430 5 316 8 702 2 803 0 814 -13 7 -8 18
-15 24 -15 6 0 2 8 -9 17 l-20 15 20 -5 c11 -2 29 -8 40 -12 13 -4 12 -1 -5 9
-22 13 -161 15 -1155 16 -1011 0 -1133 -1 -1153 -16z m65 0 c-3 -3 -12 -4 -19
-1 -8 3 -5 6 6 6 11 1 17 -2 13 -5z m-52 -13 c-3 -5 3 -12 12 -14 10 -2 8 -3
-4 -2 -13 1 -23 -2 -23 -6 0 -5 -5 -9 -12 -9 -6 0 -3 9 7 20 19 21 30 27 20
11z m-5 -119 c-6 -2 -10 -11 -10 -19 0 -9 -2 -14 -5 -11 -4 3 -3 18 1 33 5 20
9 23 15 13 5 -7 4 -14 -1 -16z m543 -19 c-13 -2 -33 -2 -45 0 -13 2 -3 4 22 4
25 0 35 -2 23 -4z m240 0 c-13 -2 -33 -2 -45 0 -13 2 -3 4 22 4 25 0 35 -2 23
-4z m1280 -10 c-13 -2 -33 -2 -45 0 -13 2 -3 4 22 4 25 0 35 -2 23 -4z"/>
<path d="M6123 3813 c20 -2 54 -2 75 0 20 2 3 4 -38 4 -41 0 -58 -2 -37 -4z"/>
<path d="M6736 3734 c-4 -9 -4 -19 -1 -22 2 -3 7 3 11 12 4 9 4 19 1 22 -2 3
-7 -3 -11 -12z"/>
<path d="M7391 3714 c0 -11 3 -14 6 -6 3 7 2 16 -1 19 -3 4 -6 -2 -5 -13z"/>
<path d="M6080 3710 c0 -6 13 -9 29 -8 16 1 27 6 25 10 -7 12 -54 10 -54 -2z"/>
<path d="M6428 3713 c12 -2 30 -2 40 0 9 3 -1 5 -23 4 -22 0 -30 -2 -17 -4z"/>
<path d="M6655 3660 c-13 -5 -14 -9 -5 -9 8 0 24 4 35 9 13 5 14 9 5 9 -8 0
-24 -4 -35 -9z"/>
<path d="M6438 3653 c23 -2 61 -2 85 0 23 2 4 4 -43 4 -47 0 -66 -2 -42 -4z"/>
<path d="M7330 3441 c0 -6 4 -13 10 -16 6 -3 7 1 4 9 -7 18 -14 21 -14 7z"/>
<path d="M7265 3401 c-3 -5 -2 -12 3 -15 5 -3 9 1 9 9 0 17 -3 19 -12 6z"/>
<path d="M7246 3372 c-3 -5 1 -9 9 -9 8 0 12 4 9 9 -3 4 -7 8 -9 8 -2 0 -6 -4
-9 -8z"/>
<path d="M3640 3290 c0 -5 5 -10 10 -10 6 0 10 5 10 10 0 6 -4 10 -10 10 -5 0
-10 -4 -10 -10z"/>
<path d="M3720 3220 c0 -5 5 -10 10 -10 6 0 10 5 10 10 0 6 -4 10 -10 10 -5 0
-10 -4 -10 -10z"/>
<path d="M7379 3203 c-13 -16 -12 -17 4 -4 16 13 21 21 13 21 -2 0 -10 -8 -17
-17z"/>
<path d="M7069 3193 c-13 -16 -12 -17 4 -4 16 13 21 21 13 21 -2 0 -10 -8 -17
-17z"/>
<path d="M7229 3063 c-13 -17 -13 -17 6 -3 11 8 22 16 24 17 2 2 0 3 -6 3 -6
0 -17 -8 -24 -17z"/>
<path d="M6583 3043 c15 -2 39 -2 55 0 15 2 2 4 -28 4 -30 0 -43 -2 -27 -4z"/>
<path d="M5808 3023 c23 -2 59 -2 80 0 20 2 1 4 -43 4 -44 0 -61 -2 -37 -4z"/>
<path d="M7113 2983 c0 -10 4 -10 16 -1 9 7 18 13 20 15 2 1 -5 1 -16 0 -11 0
-20 -7 -20 -14z"/>
<path d="M7045 2970 c-3 -6 1 -7 9 -4 18 7 21 14 7 14 -6 0 -13 -4 -16 -10z"/>
<path d="M5336 2912 c-3 -5 1 -9 9 -9 8 0 15 4 15 9 0 4 -4 8 -9 8 -6 0 -12
-4 -15 -8z"/>
<path d="M6780 2866 c0 -2 7 -7 16 -10 8 -3 12 -2 9 4 -6 10 -25 14 -25 6z"/>
<path d="M5590 2825 c0 -8 2 -15 4 -15 2 0 6 7 10 15 3 8 1 15 -4 15 -6 0 -10
-7 -10 -15z"/>
<path d="M5396 2821 c-4 -7 -5 -15 -2 -18 9 -9 19 4 14 18 -4 11 -6 11 -12 0z"/>
<path d="M5415 2756 c-4 -24 -5 -52 -2 -62 3 -11 5 -2 6 18 0 20 5 48 11 62 5
15 6 26 0 26 -5 0 -12 -20 -15 -44z"/>
<path d="M5594 2480 c0 -157 2 -221 3 -142 2 78 2 206 0 285 -1 78 -3 14 -3
-143z"/>
<path d="M2725 1933 c-65 -8 -165 -36 -165 -46 0 -6 -3 -8 -6 -4 -18 17 -218
-118 -209 -141 3 -7 0 -10 -6 -7 -18 12 -40 -15 -29 -35 7 -13 7 -21 0 -25
-10 -6 -14 1 -10 20 1 6 -10 -1 -24 -14 -30 -28 -32 -33 -11 -25 8 4 15 1 15
-6 0 -6 -4 -9 -9 -5 -16 9 -42 -26 -36 -49 5 -16 4 -17 -4 -7 -14 22 -66 -97
-80 -184 -14 -93 -20 -189 -9 -173 4 7 5 -8 2 -35 -6 -41 -5 -47 10 -41 9 3
16 1 16 -5 0 -6 -5 -11 -11 -11 -12 0 -4 -48 16 -95 7 -16 16 -39 20 -50 10
-30 79 -135 89 -135 5 0 3 7 -4 15 -7 9 -10 18 -7 21 6 6 57 -65 57 -81 1 -40
199 -165 262 -165 22 0 28 -3 20 -9 -10 -6 -9 -10 7 -14 14 -3 24 1 31 13 8
15 5 19 -24 24 -18 4 -40 4 -49 0 -9 -3 -24 -1 -34 6 -16 10 -16 10 4 5 17 -5
20 -2 17 12 -5 16 2 18 68 14 58 -3 68 -5 49 -12 -14 -6 -31 -7 -38 -5 -7 3
-13 2 -13 -3 0 -5 12 -11 28 -14 35 -6 167 0 195 10 19 6 18 8 -13 13 -19 3
-54 3 -78 -1 -45 -6 -56 -1 -46 25 5 13 22 16 86 16 76 0 80 1 75 21 -4 16 1
23 25 33 l31 13 -44 0 c-31 0 -38 -2 -24 -7 16 -7 12 -9 -22 -15 -24 -4 -40
-11 -37 -16 8 -14 -10 -10 -32 6 -21 16 -58 20 -49 5 4 -6 -1 -7 -11 -3 -16 6
-16 7 2 13 65 24 95 30 106 23 9 -5 3 -10 -17 -14 l-30 -7 33 -1 c22 -1 32 4
32 14 0 10 10 15 28 15 25 0 156 49 149 56 -4 4 -94 -30 -103 -39 -4 -4 -43
-7 -86 -7 -43 0 -78 -4 -78 -9 0 -12 -66 -24 -90 -16 -16 5 -18 9 -7 19 7 7
19 15 27 19 11 4 9 6 -6 6 -11 1 -43 12 -69 26 -27 13 -51 23 -53 20 -2 -2 10
-11 27 -20 38 -19 41 -29 4 -13 -36 15 -53 28 -50 37 1 4 -25 36 -57 72 -33
35 -53 53 -47 40 11 -20 10 -26 -4 -40 -16 -15 -17 -14 -10 7 5 19 2 25 -14
29 -12 3 -21 12 -21 19 0 17 16 18 24 2 3 -7 3 2 0 21 -3 18 -11 45 -19 60
l-14 26 -1 -37 c0 -20 -5 -40 -11 -43 -20 -13 -23 6 -6 53 9 26 17 50 17 55 0
15 -19 7 -23 -10 -3 -10 -5 2 -5 27 0 37 1 41 8 20 8 -24 7 5 -5 145 -3 31 -1
43 4 30 7 -18 8 -17 13 7 3 15 1 25 -3 22 -5 -3 -9 2 -9 11 0 9 4 14 9 11 5
-3 15 8 22 26 19 47 72 120 126 174 26 27 50 48 53 49 19 2 99 38 96 43 -2 4
48 9 113 10 91 3 127 0 161 -13 25 -10 55 -17 68 -17 13 0 21 -2 18 -5 -3 -3
12 -17 32 -30 20 -14 53 -40 72 -58 25 -23 42 -32 60 -29 14 2 20 1 13 -4 -8
-5 -9 -13 -3 -22 6 -8 10 -19 9 -25 0 -5 -7 3 -15 18 -9 16 -18 26 -21 23 -3
-3 7 -22 23 -43 16 -21 28 -45 26 -53 -2 -11 1 -10 8 3 6 9 17 17 25 17 15 0
31 -37 21 -48 -4 -3 -9 4 -13 16 -3 12 -9 22 -14 22 -12 0 -11 -17 1 -25 6 -4
10 -14 9 -23 -5 -53 2 -142 11 -137 6 3 10 -1 10 -9 0 -9 -4 -16 -9 -16 -4 0
-11 -28 -14 -62 -4 -35 -9 -76 -12 -93 -4 -22 -1 -19 9 10 16 45 20 21 7 -37
-6 -27 -6 -38 3 -38 6 0 4 -5 -4 -10 -13 -8 -12 -10 3 -10 14 0 16 5 11 26 -5
17 -3 25 3 21 7 -4 9 13 6 52 -3 40 -1 61 8 66 7 5 10 4 6 -2 -4 -6 1 -14 10
-17 22 -9 33 12 28 54 -3 19 -7 62 -10 95 -6 73 -8 86 -18 103 -9 14 -1 32 14
32 6 0 7 -6 3 -12 -5 -8 0 -7 11 2 10 8 20 14 23 12 7 -3 11 18 14 69 2 21 7
35 11 32 4 -2 5 -21 1 -41 l-6 -37 16 28 c8 15 12 35 9 44 -4 10 -2 14 5 9 6
-3 4 7 -4 24 -18 36 -24 38 -17 8 3 -13 3 -20 -1 -17 -4 4 -9 20 -10 35 -2 16
-4 33 -5 37 0 5 -5 5 -11 2 -5 -3 -10 -1 -10 6 0 8 -4 8 -12 2 -24 -19 -45
-11 -43 17 1 14 5 31 8 37 4 6 1 16 -7 22 -11 9 -17 8 -29 -4 -19 -19 -24 -19
-24 0 0 8 4 12 8 9 14 -8 21 17 9 31 -14 17 -40 20 -40 5 0 -5 6 -7 14 -4 8 3
17 0 22 -7 4 -7 3 -10 -3 -6 -13 8 -36 -17 -25 -28 4 -5 2 -5 -5 -1 -14 7 -14
45 0 64 10 13 10 13 -53 15 -23 1 -35 7 -35 17 0 8 -11 17 -25 21 -20 6 -21 7
-5 8 11 0 36 -8 55 -20 19 -12 28 -14 20 -6 -27 27 -139 79 -173 81 -17 0 -35
5 -38 9 -13 18 -156 30 -234 20z m113 -10 c-10 -2 -26 -2 -35 0 -10 3 -2 5 17
5 19 0 27 -2 18 -5z m-151 -19 c-3 -3 -12 -4 -19 -1 -8 3 -5 6 6 6 11 1 17 -2
13 -5z m63 2 c0 -2 -9 -6 -20 -9 -11 -3 -18 -1 -14 4 5 9 34 13 34 5z m107 -2
c-3 -3 -12 -4 -19 -1 -8 3 -5 6 6 6 11 1 17 -2 13 -5z m86 -1 c-7 -2 -19 -2
-25 0 -7 3 -2 5 12 5 14 0 19 -2 13 -5z m-328 -13 c-11 -5 -27 -9 -35 -9 -9 0
-8 4 5 9 11 5 27 9 35 9 9 0 8 -4 -5 -9z m270 0 c-3 -5 -12 -10 -18 -10 -7 0
-6 4 3 10 19 12 23 12 15 0z m110 0 c-11 -5 -27 -9 -35 -9 -9 0 -8 4 5 9 11 5
27 9 35 9 9 0 8 -4 -5 -9z m-478 -46 c-3 -3 -12 -4 -19 -1 -8 3 -5 6 6 6 11 1
17 -2 13 -5z m-42 -24 c4 -6 -1 -7 -11 -3 -12 4 -15 3 -10 -5 4 -7 3 -12 -3
-12 -16 0 -22 18 -9 23 20 8 26 8 33 -3z m625 -12 c0 -5 -9 -4 -20 2 -11 6
-20 12 -20 14 0 2 9 2 20 -1 11 -3 20 -9 20 -15z m-563 6 c-3 -3 -12 -4 -19
-1 -8 3 -5 6 6 6 11 1 17 -2 13 -5z m-139 -49 c0 -14 -4 -28 -9 -31 -5 -3 -6
3 -2 13 6 16 5 16 -10 4 -22 -18 -22 -6 1 18 9 11 18 20 18 20 1 1 2 -10 2
-24z m209 -59 c0 -8 -6 -12 -14 -9 -7 3 -10 9 -7 14 8 14 21 11 21 -5z m401 5
c9 -5 4 -8 -16 -7 -17 1 -28 4 -25 9 6 9 25 9 41 -2z m69 3 c-3 -3 -12 -4 -19
-1 -8 3 -5 6 6 6 11 1 17 -2 13 -5z m40 -40 c1 -20 0 -22 -4 -6 -2 12 -9 22
-14 22 -15 0 -10 -36 6 -50 8 -7 15 -18 15 -24 -1 -6 -16 6 -35 27 -18 22 -38
36 -43 33 -5 -3 -9 1 -9 9 0 10 8 12 29 8 18 -4 28 -1 28 7 0 26 25 2 27 -26z
m-532 8 c-3 -3 -11 0 -18 7 -9 10 -8 11 6 5 10 -3 15 -9 12 -12z m-132 -57
c-3 -9 -8 -14 -10 -11 -3 3 -2 9 2 15 9 16 15 13 8 -4z m727 -5 c0 -5 -2 -10
-4 -10 -3 0 -8 5 -11 10 -3 6 -1 10 4 10 6 0 11 -4 11 -10z m-26 -19 c3 -5 16
-7 29 -5 20 4 20 4 2 -4 -22 -10 -55 -4 -55 9 0 12 17 12 24 0z m-714 -33 c0
-5 -7 -3 -15 6 -8 8 -15 18 -15 22 0 3 7 1 15 -6 8 -7 15 -17 15 -22z m-210
-8 c0 -5 -4 -10 -10 -10 -5 0 -10 5 -10 10 0 6 5 10 10 10 6 0 10 -4 10 -10z
m192 -32 c-7 -7 -12 -8 -12 -2 0 6 3 14 7 17 3 4 9 5 12 2 2 -3 -1 -11 -7 -17z
m-212 4 c0 -5 -7 -17 -15 -28 -14 -18 -14 -17 -4 9 12 27 19 34 19 19z m1 -45
c-10 -9 -11 -8 -5 6 3 10 9 15 12 12 3 -3 0 -11 -7 -18z m1089 -21 c0 -8 -4
-18 -10 -21 -5 -3 -10 -4 -10 -1 0 2 -3 11 -6 20 -4 11 -1 16 10 16 9 0 16 -6
16 -14z m34 2 c-3 -4 -9 -8 -15 -8 -5 0 -9 4 -9 8 0 5 7 9 15 9 8 0 12 -4 9
-9z m-1007 -30 c-3 -7 -5 -2 -5 12 0 14 2 19 5 13 2 -7 2 -19 0 -25z m10 -40
c-3 -8 -6 -5 -6 6 -1 11 2 17 5 13 3 -3 4 -12 1 -19z m937 -34 c-4 -23 -2 -33
11 -37 13 -5 16 -19 14 -67 -2 -39 -6 -59 -13 -57 -6 2 -10 21 -9 42 2 21 -2
44 -8 52 -9 10 -8 13 2 13 10 0 11 2 2 8 -6 4 -12 25 -13 47 -3 55 -1 62 10
45 5 -8 7 -29 4 -46z m-1117 -16 c-3 -8 -6 -5 -6 6 -1 11 2 17 5 13 3 -3 4
-12 1 -19z m1143 18 c0 -3 -4 -8 -10 -11 -5 -3 -10 -1 -10 4 0 6 5 11 10 11 6
0 10 -2 10 -4z m-963 -54 c-3 -12 -5 -10 -6 6 0 13 -5 20 -11 17 -6 -4 -7 1
-3 11 5 15 7 15 15 0 5 -9 7 -24 5 -34z m-10 -74 c-3 -8 -6 -5 -6 6 -1 11 2
17 5 13 3 -3 4 -12 1 -19z m13 -138 c0 -11 -4 -20 -9 -20 -5 0 -7 9 -4 20 3
11 7 20 9 20 2 0 4 -9 4 -20z m-140 -46 c0 -14 4 -23 9 -20 4 3 13 -7 20 -22
11 -25 10 -26 -4 -8 -15 20 -15 20 -15 0 -1 -10 -7 -1 -15 21 -18 48 -18 55
-5 55 6 0 10 -12 10 -26z m34 -90 c3 -8 2 -12 -4 -9 -6 3 -10 10 -10 16 0 14
7 11 14 -7z m244 -27 c4 1 15 -7 25 -18 10 -10 14 -19 9 -19 -5 0 -15 7 -22
15 -7 8 -16 13 -20 10 -5 -3 -11 1 -14 7 -5 10 -7 10 -12 1 -3 -7 -9 -13 -14
-13 -4 0 -3 11 3 25 11 23 13 24 25 7 7 -9 16 -16 20 -15z m-213 -26 c-6 -5
-25 10 -25 20 0 5 6 4 14 -3 8 -7 12 -15 11 -17z m48 -8 c-4 -10 -9 -11 -19
-2 -18 15 -18 15 5 15 11 0 17 -5 14 -13z m217 -47 c0 -5 -7 -3 -15 4 -9 7
-19 10 -22 6 -4 -4 -1 -12 7 -17 13 -9 13 -10 0 -6 -8 2 -15 15 -15 29 -1 25
0 25 22 9 12 -9 23 -20 23 -25z m-154 -18 c-10 -6 -20 -7 -24 -3 -9 8 20 25
31 18 5 -3 2 -10 -7 -15z m191 6 c-3 -3 -12 -4 -19 -1 -8 3 -5 6 6 6 11 1 17
-2 13 -5z m-177 -20 c0 -3 -7 -12 -15 -21 -20 -19 -32 -10 -14 11 14 15 29 21
29 10z m78 -99 c3 3 -2 11 -12 18 -16 12 -16 13 2 13 13 0 18 -8 18 -28 0 -31
8 -33 -71 18 -14 9 -25 20 -25 25 0 5 19 -4 42 -21 22 -17 44 -28 46 -25z
m226 39 c22 -8 20 -34 -1 -34 -26 0 -47 16 -39 29 8 12 17 14 40 5z m-35 -49
c3 -3 -14 -4 -37 -2 -23 2 -44 6 -47 9 -4 3 13 4 36 2 24 -2 45 -7 48 -9z m44
-2 c-7 -2 -19 -2 -25 0 -7 3 -2 5 12 5 14 0 19 -2 13 -5z m4 -39 c-3 -3 -12
-4 -19 -1 -8 3 -5 6 6 6 11 1 17 -2 13 -5z"/>
<path d="M2675 750 c3 -5 8 -10 11 -10 2 0 4 5 4 10 0 6 -5 10 -11 10 -5 0 -7
-4 -4 -10z"/>
<path d="M3296 1691 c-7 -11 3 -41 14 -41 11 0 18 22 12 38 -5 14 -18 16 -26
3z m19 -11 c3 -5 1 -10 -4 -10 -6 0 -11 5 -11 10 0 6 2 10 4 10 3 0 8 -4 11
-10z"/>
<path d="M3402 1515 c-15 -33 -15 -34 5 -31 9 2 19 9 21 17 3 11 1 11 -8 -1
-9 -12 -10 -10 -6 13 8 34 3 35 -12 2z"/>
<path d="M3418 1389 c-2 -62 4 -144 12 -152 15 -16 21 49 11 113 -12 73 -20
88 -23 39z"/>
<path d="M3365 1390 c2 -11 0 -20 -6 -20 -5 0 -9 -7 -9 -15 0 -7 -8 -19 -17
-24 -15 -9 -16 -10 -2 -11 13 0 15 -12 11 -80 -3 -55 -1 -80 7 -80 6 0 11 16
11 38 0 21 4 42 10 48 16 16 16 164 -1 164 -4 0 -6 -9 -4 -20z"/>
<path d="M3454 1275 c0 -134 0 -136 8 -58 5 45 5 108 1 140 -7 47 -8 32 -9
-82z"/>
<path d="M3391 1384 c0 -11 3 -14 6 -6 3 7 2 16 -1 19 -3 4 -6 -2 -5 -13z"/>
<path d="M3363 1060 c3 -14 8 -33 12 -42 5 -14 2 -16 -13 -13 -12 2 -27 -4
-34 -12 -11 -14 -9 -15 19 -11 18 2 34 1 35 -4 2 -4 9 1 16 13 8 12 9 18 3 14
-6 -3 -11 -5 -11 -3 0 2 -7 21 -16 43 -8 22 -13 29 -11 15z"/>
<path d="M3380 1073 c0 -4 5 -15 10 -23 8 -13 10 -13 10 2 0 9 -4 20 -10 23
-5 3 -10 3 -10 -2z"/>
<path d="M3183 1027 c-8 -17 -8 -24 0 -24 7 0 13 11 13 24 2 29 0 29 -13 0z"/>
<path d="M3415 1039 c-4 -6 -5 -12 -2 -15 2 -3 7 2 10 11 7 17 1 20 -8 4z"/>
<path d="M3144 968 c-15 -18 -15 -20 -1 -9 15 12 17 11 17 -3 0 -9 -4 -16 -10
-16 -5 0 -10 -4 -10 -10 0 -17 14 -11 28 10 8 13 9 27 4 36 -7 12 -11 11 -28
-8z"/>
<path d="M3181 938 c-7 -11 -7 -18 -1 -18 5 0 10 5 10 10 0 6 5 10 11 10 5 0
7 -4 4 -10 -3 -5 -4 -10 -1 -10 3 0 10 9 16 19 8 16 7 20 -9 18 -10 0 -24 -9
-30 -19z"/>
<path d="M3095 928 l-20 -21 21 11 c12 6 24 8 28 4 4 -3 4 1 0 11 -3 9 -7 17
-8 16 0 0 -10 -10 -21 -21z"/>
<path d="M3290 905 c-10 -12 -10 -15 0 -15 8 0 10 -7 5 -17 -4 -10 -8 -24 -9
-32 -2 -8 -13 -23 -26 -33 -12 -10 -21 -21 -18 -23 3 -3 21 10 41 29 23 21 32
36 24 39 -9 3 -9 7 2 20 7 9 18 14 23 10 6 -3 8 0 6 8 -3 8 -13 13 -23 11 -10
-2 -14 1 -10 7 9 16 -1 13 -15 -4z"/>
<path d="M3345 910 c4 -6 11 -8 16 -5 14 9 11 15 -7 15 -8 0 -12 -5 -9 -10z"/>
<path d="M3084 889 c-10 -11 -32 -27 -49 -33 -30 -13 -30 -13 15 -11 48 1 70
10 70 26 0 6 -10 3 -22 -5 -37 -26 -40 -18 -6 14 18 16 28 30 22 30 -6 0 -19
-9 -30 -21z"/>
<path d="M3035 880 c-3 -5 -1 -10 4 -10 6 0 11 5 11 10 0 6 -2 10 -4 10 -3 0
-8 -4 -11 -10z"/>
<path d="M2290 846 c0 -2 8 -10 18 -17 15 -13 16 -12 3 4 -13 16 -21 21 -21
13z"/>
<path d="M3209 838 c-1 -2 -2 -15 -3 -30 -2 -22 1 -25 12 -16 10 9 11 13 0 20
-10 6 -10 10 2 18 10 6 11 10 3 10 -7 0 -14 -1 -14 -2z"/>
<path d="M2680 813 l-25 -15 25 6 c14 3 31 6 38 6 6 0 12 5 12 10 0 14 -20 11
-50 -7z"/>
<path d="M2940 780 c0 -5 -12 -10 -27 -11 -16 0 -22 -3 -15 -6 18 -7 62 5 62
17 0 6 -4 10 -10 10 -5 0 -10 -4 -10 -10z"/>
<path d="M3170 756 c0 -14 -27 -29 -39 -22 -4 3 -7 -4 -8 -14 -1 -11 2 -22 8
-25 5 -3 6 1 3 10 -5 11 0 15 17 13 13 -2 24 2 24 9 0 6 3 15 8 19 10 11 9 24
-3 24 -5 0 -10 -6 -10 -14z"/>
<path d="M3204 748 l-19 -23 25 20 c14 11 27 21 29 22 2 2 0 3 -6 3 -5 0 -18
-10 -29 -22z"/>
<path d="M2887 669 c-9 -5 -14 -16 -11 -23 3 -8 -2 -16 -10 -19 -13 -4 -12 -5
1 -3 10 1 17 9 17 19 -1 9 7 19 17 22 27 9 61 -4 55 -21 -3 -7 0 -16 6 -20 6
-4 8 -3 4 4 -9 15 2 20 59 26 27 3 53 10 57 14 8 8 -24 7 -77 -4 -17 -3 -25
-2 -18 3 16 11 -79 13 -100 2z"/>
<path d="M2705 650 c-16 -7 -12 -9 20 -10 35 -2 37 -3 15 -10 -14 -4 -38 -5
-55 -2 -16 3 -28 2 -25 -1 3 -4 26 -9 50 -12 32 -4 54 0 87 16 55 27 55 38 0
14 -11 -4 -23 -3 -30 4 -13 13 -34 13 -62 1z"/>
<path d="M2918 643 c7 -3 16 -2 19 1 4 3 -2 6 -13 5 -11 0 -14 -3 -6 -6z"/>
<path d="M2918 623 c7 -3 16 -2 19 1 4 3 -2 6 -13 5 -11 0 -14 -3 -6 -6z"/>
<path d="M2738 213 c12 -2 32 -2 45 0 12 2 2 4 -23 4 -25 0 -35 -2 -22 -4z"/>
<path d="M3238 213 c23 -2 61 -2 85 0 23 2 4 4 -43 4 -47 0 -66 -2 -42 -4z"/>
<path d="M3658 213 c34 -2 90 -2 125 0 34 2 6 3 -63 3 -69 0 -97 -1 -62 -3z"/>
<path d="M2400 20 c0 -11 7 -20 15 -20 8 0 15 9 15 20 0 11 -7 20 -15 20 -8 0
-15 -9 -15 -20z"/>
</g>
</svg>
