<?xml version="1.0" standalone="no"?>
<!DOCTYPE svg PUBLIC "-//W3C//DTD SVG 20010904//EN"
 "http://www.w3.org/TR/2001/REC-SVG-20010904/DTD/svg10.dtd">
<svg version="1.0" xmlns="http://www.w3.org/2000/svg"
 width="512.000000pt" height="512.000000pt" viewBox="0 0 512.000000 512.000000"
 preserveAspectRatio="xMidYMid meet">

<g transform="translate(0.000000,512.000000) scale(0.100000,-0.100000)"
fill="#000000" stroke="none">
<path d="M208 4796 c-95 -25 -173 -104 -198 -197 -7 -24 -9 -755 -8 -2060 l3
-2024 22 -41 c36 -67 70 -101 131 -131 l57 -28 395 -3 c217 -2 405 0 417 3 33
8 63 41 63 69 0 13 -9 35 -20 49 l-21 26 -407 3 c-373 3 -409 4 -434 21 -62
42 -58 -68 -58 1646 l0 1561 1988 0 1989 0 21 23 c27 29 28 67 3 98 l-19 24
-1991 3 -1991 2 0 356 c0 389 2 403 58 441 24 16 58 19 290 23 246 5 265 6
278 24 23 33 18 82 -12 105 -25 20 -38 21 -268 20 -161 0 -257 -5 -288 -13z"/>
<path d="M1027 4789 c-32 -25 -38 -88 -10 -110 13 -12 330 -15 1942 -19 1837
-5 1927 -6 1953 -23 56 -38 58 -52 58 -441 l0 -356 -265 0 c-214 0 -272 -3
-294 -15 -46 -23 -54 -66 -20 -109 l20 -26 280 0 279 0 0 -1561 c0 -1714 4
-1604 -58 -1646 -26 -17 -109 -18 -1801 -21 l-1775 -2 -23 -22 c-28 -26 -30
-67 -4 -99 l19 -24 1789 0 1788 0 57 28 c61 30 95 64 131 131 l22 41 0 2045 0
2045 -22 41 c-36 67 -70 101 -131 131 l-57 28 -1926 3 -1926 2 -26 -21z"/>
<path d="M453 4455 c-144 -73 -173 -267 -56 -377 150 -143 396 -39 397 168 0
82 -41 156 -109 199 -69 43 -159 47 -232 10z m167 -150 c75 -79 -34 -192 -116
-121 -59 50 -22 146 56 146 26 0 43 -7 60 -25z"/>
<path d="M1114 4466 c-91 -40 -150 -139 -141 -237 6 -67 25 -106 73 -153 112
-109 304 -74 370 68 58 125 5 269 -118 320 -45 19 -142 20 -184 2z m151 -161
c25 -24 32 -65 19 -100 -8 -19 -55 -45 -84 -45 -33 0 -80 53 -80 90 0 71 94
107 145 55z"/>
<path d="M1755 4461 c-50 -22 -109 -86 -125 -136 -7 -20 -10 -65 -8 -101 3
-50 10 -72 34 -106 87 -125 258 -141 363 -36 118 120 78 319 -78 384 -47 20
-138 17 -186 -5z m155 -151 c44 -44 34 -108 -21 -139 -52 -29 -119 13 -119 74
0 72 91 114 140 65z"/>
<path d="M2280 4453 c-20 -26 -21 -36 -18 -216 3 -185 4 -189 27 -208 23 -18
57 -19 1242 -19 1200 0 1219 0 1239 20 29 29 32 51 28 237 -3 151 -5 173 -22
192 l-19 21 -1228 0 -1228 0 -21 -27z m2370 -208 l0 -85 -1120 0 -1120 0 0 85
0 85 1120 0 1120 0 0 -85z"/>
<path d="M1153 3008 c-46 -22 -44 -43 27 -402 51 -256 72 -342 86 -357 29 -28
74 -33 109 -11 28 17 36 37 95 226 35 113 67 206 70 206 3 0 33 -88 66 -197
32 -108 67 -206 77 -219 37 -47 126 -34 147 21 15 39 130 633 130 670 0 24 -7
39 -26 54 -34 27 -57 26 -89 -1 -22 -20 -30 -47 -65 -222 -22 -110 -41 -201
-43 -203 -2 -2 -32 90 -67 203 -65 211 -83 244 -130 244 -47 0 -65 -34 -130
-244 -35 -113 -65 -204 -67 -202 -3 2 -22 93 -43 202 -35 176 -43 202 -65 222
-28 24 -48 26 -82 10z"/>
<path d="M2164 2997 c-21 -18 -27 -32 -26 -58 1 -19 30 -177 65 -352 48 -240
69 -323 83 -338 29 -28 74 -33 110 -11 28 18 36 37 94 226 35 113 67 206 70
206 4 0 34 -91 69 -202 37 -122 70 -211 81 -223 13 -13 34 -20 60 -20 73 0 75
6 146 361 35 175 64 335 64 355 0 29 -6 43 -26 58 -34 27 -57 26 -89 -1 -22
-20 -30 -47 -65 -222 -22 -110 -41 -201 -43 -203 -2 -1 -31 88 -65 200 -64
208 -85 247 -131 247 -48 0 -65 -33 -131 -244 -35 -113 -65 -204 -67 -202 -2
1 -21 92 -43 202 -35 175 -43 202 -65 222 -33 28 -57 28 -91 -1z"/>
<path d="M3186 2999 c-20 -16 -26 -29 -26 -57 1 -20 29 -180 64 -355 70 -355
73 -362 146 -362 26 0 47 7 60 20 11 12 44 101 81 223 35 111 65 202 69 202 4
0 34 -91 69 -202 37 -122 70 -211 81 -223 13 -13 34 -20 60 -20 73 0 75 6 146
362 36 175 65 333 66 352 1 26 -5 40 -26 58 -34 29 -58 29 -91 1 -22 -20 -30
-47 -65 -222 -22 -110 -41 -201 -43 -203 -2 -1 -31 88 -65 200 -64 208 -85
247 -131 247 -48 0 -65 -33 -131 -244 -35 -113 -65 -205 -67 -203 -2 2 -21 93
-43 203 -35 175 -43 202 -65 222 -32 27 -55 28 -89 1z"/>
<path d="M4203 2395 c-32 -32 -35 -39 -30 -78 12 -85 107 -118 168 -58 63 64
16 171 -77 171 -16 0 -39 -13 -61 -35z"/>
<path d="M3316 2017 l-26 -26 0 -420 c0 -291 3 -428 11 -445 7 -13 25 -30 41
-37 29 -12 56 -2 175 67 17 10 34 16 36 14 2 -3 44 -74 93 -159 97 -172 113
-191 149 -191 27 0 292 146 333 183 39 36 29 68 -73 245 -53 91 -94 166 -93
167 2 1 37 22 78 45 41 24 80 51 87 59 18 23 16 66 -4 89 -26 30 -713 423
-750 429 -25 4 -37 0 -57 -20z m366 -319 c125 -73 228 -136 228 -140 0 -3 -9
-9 -19 -13 -37 -11 -101 -65 -107 -90 -5 -20 13 -60 91 -195 53 -93 94 -174
91 -179 -7 -11 -136 -84 -141 -79 -2 1 -44 75 -95 163 -51 88 -99 166 -108
173 -26 20 -72 14 -124 -18 -26 -16 -50 -30 -53 -30 -3 0 -5 122 -5 270 0 149
3 270 7 270 3 0 109 -60 235 -132z"/>
</g>
</svg>
