<?xml version="1.0" standalone="no"?>
<!DOCTYPE svg PUBLIC "-//W3C//DTD SVG 20010904//EN"
 "http://www.w3.org/TR/2001/REC-SVG-20010904/DTD/svg10.dtd">
<svg version="1.0" xmlns="http://www.w3.org/2000/svg"
 width="512.000000pt" height="512.000000pt" viewBox="0 0 512.000000 512.000000"
 preserveAspectRatio="xMidYMid meet">

<g transform="translate(0.000000,512.000000) scale(0.100000,-0.100000)"
fill="#000000" stroke="none">
<path d="M812 5100 c-109 -29 -187 -74 -272 -160 -87 -86 -131 -163 -160 -276
-18 -71 -20 -111 -20 -518 0 -477 4 -523 55 -633 14 -31 41 -78 60 -104 l35
-49 -35 -49 c-48 -66 -83 -146 -100 -228 -21 -99 -21 -947 0 -1046 17 -82 52
-162 100 -228 l35 -49 -35 -49 c-19 -26 -46 -73 -60 -104 -51 -110 -55 -156
-55 -633 0 -407 2 -447 20 -518 29 -113 73 -190 160 -276 86 -87 163 -131 276
-160 75 -20 117 -20 1744 -20 1627 0 1669 0 1744 20 113 29 190 73 276 160 87
86 131 163 160 276 18 71 20 111 20 518 0 477 -4 523 -55 633 -14 31 -41 78
-60 104 l-35 49 35 49 c48 66 83 146 100 228 21 99 21 947 0 1046 -17 82 -52
162 -100 228 l-35 49 35 49 c19 26 46 73 60 104 51 110 55 156 55 633 0 407
-2 447 -20 518 -29 113 -73 190 -160 276 -86 87 -163 131 -276 160 -75 20
-116 20 -1748 19 -1612 0 -1674 -1 -1744 -19z m3451 -409 c21 -13 50 -42 65
-64 l27 -41 0 -445 0 -446 -24 -38 c-13 -21 -42 -50 -64 -65 l-41 -27 -1666 0
-1666 0 -41 27 c-22 15 -51 44 -64 65 l-24 38 -3 422 c-2 284 1 436 8 463 13
49 76 115 122 129 21 6 660 9 1683 8 l1650 -2 38 -24z m0 -1560 c21 -13 50
-42 65 -64 l27 -41 0 -465 0 -466 -24 -38 c-13 -21 -42 -50 -64 -65 l-41 -27
-1666 0 -1666 0 -41 27 c-22 15 -51 44 -64 65 l-24 38 -3 442 c-2 298 1 456 8
484 13 48 76 114 122 128 21 6 660 9 1683 8 l1650 -2 38 -24z m0 -1600 c21
-13 50 -42 65 -64 l27 -41 0 -445 0 -446 -24 -38 c-13 -21 -42 -50 -64 -65
l-41 -27 -1666 0 -1666 0 -41 27 c-22 15 -51 44 -64 65 l-24 38 -3 422 c-2
284 1 436 8 463 13 49 76 115 122 129 21 6 660 9 1683 8 l1650 -2 38 -24z"/>
<path d="M1292 4349 c-47 -14 -109 -79 -123 -131 -23 -89 12 -182 88 -229 l38
-24 866 0 865 0 41 27 c62 41 88 90 88 168 0 78 -26 127 -88 168 l-41 27 -850
2 c-519 1 -864 -2 -884 -8z"/>
<path d="M3692 4349 c-48 -14 -109 -80 -123 -131 -23 -89 12 -182 88 -229 57
-36 154 -34 210 3 62 41 88 90 88 168 0 77 -26 127 -85 166 -43 29 -125 39
-178 23z"/>
<path d="M1292 2749 c-47 -14 -109 -79 -123 -131 -23 -89 12 -182 88 -229 l38
-24 866 0 865 0 41 27 c62 41 88 90 88 168 0 78 -26 127 -88 168 l-41 27 -850
2 c-519 1 -864 -2 -884 -8z"/>
<path d="M3692 2749 c-48 -14 -109 -80 -123 -131 -23 -89 12 -182 88 -229 57
-36 154 -34 210 3 62 41 88 90 88 168 0 77 -26 127 -85 166 -43 29 -125 39
-178 23z"/>
<path d="M1292 1149 c-47 -14 -109 -79 -123 -131 -23 -89 12 -182 88 -229 l38
-24 866 0 865 0 41 27 c62 41 88 90 88 168 0 78 -26 127 -88 168 l-41 27 -850
2 c-519 1 -864 -2 -884 -8z"/>
<path d="M3692 1149 c-48 -14 -109 -80 -123 -131 -23 -89 12 -182 88 -229 57
-36 154 -34 210 3 62 41 88 90 88 168 0 77 -26 127 -85 166 -43 29 -125 39
-178 23z"/>
</g>
</svg>
