<?xml version="1.0" standalone="no"?>
<!DOCTYPE svg PUBLIC "-//W3C//DTD SVG 20010904//EN"
 "http://www.w3.org/TR/2001/REC-SVG-20010904/DTD/svg10.dtd">
<svg version="1.0" xmlns="http://www.w3.org/2000/svg"
 width="512.000000pt" height="512.000000pt" viewBox="0 0 512.000000 512.000000"
 preserveAspectRatio="xMidYMid meet">

<g transform="translate(0.000000,512.000000) scale(0.100000,-0.100000)"
fill="#000000" stroke="none">
<path d="M2410 5104 c-148 -32 -265 -97 -375 -208 -143 -145 -204 -286 -212
-486 -6 -142 11 -233 66 -345 90 -188 236 -320 427 -388 38 -14 91 -28 117
-32 l48 -7 -3 -86 -3 -86 -78 -12 c-222 -34 -425 -136 -587 -294 l-73 -72
-218 218 -219 219 -57 -58 -58 -57 229 -229 228 -228 -32 -64 c-60 -118 -96
-233 -114 -361 l-7 -48 -85 0 -84 0 0 -85 0 -85 85 0 c47 0 85 -4 85 -9 0 -4
7 -46 15 -92 37 -211 138 -408 289 -562 l73 -75 -218 -218 -219 -219 57 -57
58 -58 225 225 c124 124 230 225 236 225 5 0 41 -16 80 -35 88 -45 206 -82
308 -98 l81 -13 3 -167 2 -167 80 0 80 0 2 167 3 167 78 12 c104 16 205 48
304 95 45 21 85 39 90 39 4 0 110 -102 235 -227 l228 -228 57 58 58 57 -221
223 -221 222 62 61 c154 151 263 358 300 573 8 46 15 88 15 92 0 5 74 9 165 9
l165 0 0 85 0 85 -164 0 -165 0 -7 48 c-18 128 -54 243 -114 361 l-32 64 228
228 229 229 -58 57 -57 58 -219 -219 -218 -218 -73 72 c-162 158 -365 260
-587 294 l-78 12 -3 86 -3 86 46 6 c170 26 354 137 461 279 112 148 159 298
152 487 -7 187 -67 331 -196 471 -175 190 -445 277 -692 223z m294 -169 c155
-41 300 -157 369 -296 87 -177 86 -345 -2 -524 -118 -238 -390 -362 -651 -296
-213 54 -379 228 -425 446 -18 88 -18 142 0 227 45 216 205 384 420 443 68 19
218 18 289 0z m-363 -1803 c-43 -88 -91 -196 -107 -240 l-29 -82 -222 0 c-129
0 -223 4 -223 9 0 23 105 162 167 222 87 84 177 144 278 187 71 30 167 59 202
61 7 1 -23 -70 -66 -157z m451 139 c149 -38 279 -113 401 -230 62 -60 167
-199 167 -222 0 -5 -94 -9 -222 -9 l-223 0 -29 82 c-16 44 -64 152 -107 240
-43 87 -75 158 -70 158 4 0 42 -9 83 -19z m-150 -238 c42 -87 81 -173 86 -190
l11 -33 -179 0 -179 0 11 33 c15 46 160 347 168 347 4 0 41 -71 82 -157z
m-480 -425 c-4 -18 -7 -114 -7 -213 0 -99 3 -195 7 -212 l8 -33 -244 0 -244 0
-13 68 c-17 87 -18 257 -1 350 l14 72 244 0 244 0 -8 -32z m622 16 c3 -9 11
-69 18 -133 8 -92 8 -138 -3 -226 l-14 -110 -225 0 -225 0 -14 110 c-11 90
-12 133 -2 234 7 69 14 129 17 133 3 4 103 8 224 8 191 0 219 -2 224 -16z
m667 -61 c17 -97 18 -245 0 -340 l-13 -73 -244 0 -243 0 7 33 c4 17 7 113 7
212 0 99 -3 195 -7 213 l-7 32 243 0 243 0 14 -77z m-1217 -665 c16 -44 64
-152 107 -240 45 -91 73 -158 66 -158 -27 0 -156 41 -220 69 -94 42 -169 94
-255 175 -65 62 -172 203 -172 227 0 5 94 9 223 9 l222 0 29 -82z m494 50
c-15 -47 -160 -348 -168 -348 -8 0 -153 301 -168 348 l-11 32 179 0 179 0 -11
-32z m632 23 c0 -24 -107 -165 -172 -227 -84 -80 -162 -134 -253 -175 -60 -27
-195 -69 -222 -69 -7 0 21 67 66 158 43 88 91 196 107 240 l29 82 223 0 c128
0 222 -4 222 -9z"/>
<path d="M2292 4777 c-51 -19 -103 -66 -124 -113 -17 -40 -19 -65 -16 -303 l3
-259 30 -43 c41 -58 111 -94 183 -93 49 1 78 13 276 111 121 61 236 123 255
139 88 74 95 221 13 308 -15 16 -129 79 -265 147 -253 126 -278 134 -355 106z
m297 -262 c209 -104 230 -120 215 -159 -7 -19 -413 -226 -443 -226 -45 0 -51
31 -51 248 0 121 4 211 10 223 6 11 21 19 35 19 14 0 119 -47 234 -105z"/>
<path d="M4875 4574 c-121 -41 -227 -76 -236 -79 -10 -4 -21 7 -33 35 -9 22
-32 50 -49 62 -32 23 -34 23 -423 26 l-390 3 -34 -23 c-19 -13 -43 -39 -54
-58 -20 -33 -21 -53 -24 -387 -2 -241 1 -366 8 -395 15 -52 64 -103 115 -117
62 -17 709 -14 758 3 49 18 73 40 93 86 l17 38 248 -83 249 -83 0 524 c0 413
-3 524 -12 523 -7 0 -112 -34 -233 -75z m-415 -444 l0 -330 -330 0 -330 0 0
330 0 330 330 0 330 0 0 -330z m490 -4 l0 -294 -165 55 -165 55 2 186 3 187
150 52 c83 28 156 52 163 52 9 1 12 -64 12 -293z"/>
<path d="M80 4598 c-18 -13 -43 -36 -54 -51 -20 -27 -21 -42 -24 -322 -3 -279
-2 -296 17 -334 11 -21 35 -50 53 -63 31 -22 43 -23 237 -28 l205 -5 8 -35
c51 -204 68 -238 143 -271 82 -37 184 -11 230 60 13 20 36 84 51 144 l26 107
195 0 c183 0 198 1 235 22 21 12 49 38 61 58 21 34 22 43 22 330 0 280 -1 297
-21 330 -11 19 -35 45 -54 57 l-33 23 -632 0 -632 0 -33 -22z m1240 -388 l0
-250 -239 0 -239 0 -39 -157 c-34 -137 -42 -158 -60 -161 -19 -3 -24 11 -60
155 l-39 158 -237 3 -237 2 0 250 0 250 575 0 575 0 0 -250z"/>
<path d="M330 4210 l0 -80 85 0 85 0 0 80 0 80 -85 0 -85 0 0 -80z"/>
<path d="M660 4210 l0 -80 85 0 85 0 0 80 0 80 -85 0 -85 0 0 -80z"/>
<path d="M990 4210 l0 -80 85 0 85 0 0 80 0 80 -85 0 -85 0 0 -80z"/>
<path d="M243 2621 c-134 -50 -229 -174 -241 -316 -6 -79 24 -182 70 -242 26
-33 453 -400 498 -428 12 -8 454 358 505 417 100 118 105 311 10 441 -99 134
-283 185 -441 121 l-65 -26 -52 23 c-74 32 -212 37 -284 10z m191 -152 c23 -6
60 -31 91 -60 l51 -49 35 36 c82 85 194 105 284 49 88 -55 119 -159 74 -252
-16 -33 -64 -79 -206 -197 l-186 -155 -180 152 c-99 84 -190 164 -201 180 -31
41 -34 141 -7 195 45 88 144 129 245 101z"/>
<path d="M4383 2621 c-100 -34 -171 -99 -220 -201 -24 -49 -27 -69 -31 -190
-4 -160 11 -249 61 -355 85 -176 222 -295 417 -361 41 -14 84 -19 170 -19 101
0 120 3 158 23 187 100 241 334 107 467 -57 57 -115 78 -204 73 -59 -3 -77 -9
-116 -36 -25 -18 -49 -32 -54 -32 -15 0 -39 35 -45 66 -6 28 -3 34 46 70 77
57 113 132 113 233 0 58 -6 86 -22 117 -36 68 -74 105 -138 135 -72 35 -161
38 -242 10z m204 -185 c27 -29 33 -44 33 -80 0 -56 -25 -88 -101 -127 l-59
-29 0 -93 c0 -75 4 -101 24 -142 41 -88 124 -145 213 -145 41 0 52 5 83 35 50
49 96 56 138 20 27 -23 32 -33 32 -72 0 -60 -29 -106 -84 -132 -50 -25 -89
-26 -174 -6 -100 24 -170 63 -245 136 -96 96 -136 182 -150 329 -17 169 12
266 94 314 80 47 148 45 196 -8z"/>
<path d="M4084 1311 c-102 -25 -201 -107 -249 -206 -26 -53 -29 -71 -30 -155
0 -84 3 -102 28 -156 16 -35 50 -82 78 -110 37 -36 53 -61 64 -103 9 -31 32
-79 51 -108 l35 -51 -44 -41 c-60 -55 -92 -119 -127 -253 -16 -62 -30 -116
-30 -120 0 -5 196 -8 436 -8 410 0 435 1 430 18 -3 9 -15 57 -27 107 -29 120
-62 188 -120 248 -27 28 -49 54 -49 58 0 3 7 12 16 20 21 17 60 95 69 139 5
22 27 56 62 92 29 32 66 83 81 115 23 49 27 71 27 148 0 76 -4 99 -27 147 -35
76 -73 122 -133 163 -81 55 -134 65 -334 64 -97 -1 -190 -4 -207 -8z m380
-162 c54 -13 110 -59 136 -110 23 -44 26 -128 6 -174 -12 -29 -13 -30 -24 -8
-7 11 -27 31 -47 43 -42 26 -290 90 -349 90 -60 0 -141 -43 -173 -91 -14 -22
-28 -37 -30 -35 -3 2 -9 23 -14 47 -21 93 46 204 142 234 54 17 292 20 353 4z
m-16 -393 c22 -17 12 -148 -14 -183 -73 -99 -205 -99 -278 0 -17 23 -22 46
-25 118 -3 94 3 114 43 128 21 8 252 -45 274 -63z m-88 -436 c45 -12 94 -48
126 -91 44 -60 46 -59 -197 -59 l-220 0 23 41 c52 93 163 138 268 109z"/>
<path d="M893 975 c-65 -20 -129 -61 -169 -109 -26 -32 -47 -46 -72 -51 -49
-9 -139 -56 -187 -98 -53 -46 -100 -127 -121 -207 -28 -112 -5 -207 68 -277
66 -64 59 -63 580 -63 526 0 516 -1 586 70 56 56 67 85 67 186 0 84 -2 95 -38
166 -56 114 -165 202 -278 223 -26 5 -47 19 -73 51 -87 104 -237 149 -363 109z
m162 -162 c39 -11 76 -46 106 -99 30 -52 32 -54 74 -54 131 0 245 -106 249
-232 1 -43 -3 -53 -27 -74 l-28 -24 -440 0 -440 0 -24 25 c-52 52 -24 169 58
241 51 45 101 64 168 64 43 0 45 1 73 55 48 93 126 126 231 98z"/>
<path d="M2465 820 c-186 -20 -355 -97 -494 -222 -22 -21 -41 -41 -41 -46 0
-4 24 -32 54 -61 l54 -54 51 44 c75 64 165 116 256 146 71 24 96 27 215 27
118 0 145 -3 212 -26 98 -33 191 -85 257 -144 l52 -47 55 54 c30 29 54 57 54
61 0 5 -19 25 -41 46 -184 166 -438 249 -684 222z"/>
<path d="M2485 489 c-69 -8 -144 -35 -211 -74 -52 -30 -150 -126 -177 -173
l-18 -31 68 -46 68 -46 15 23 c39 59 108 120 169 151 60 29 74 32 161 32 87 0
101 -3 161 -32 61 -31 130 -92 169 -151 l15 -23 68 46 c44 30 65 50 60 58
-113 191 -327 295 -548 266z"/>
<path d="M2480 85 l0 -85 80 0 80 0 0 85 0 85 -80 0 -80 0 0 -85z"/>
</g>
</svg>
