<?xml version="1.0" ?><svg viewBox="0 0 22.105 22.074" xmlns="http://www.w3.org/2000/svg"><defs><style>.cls-1{fill:#1a171b;}</style></defs><g data-name="Layer 2" id="Layer_2"><g data-name="Layer 1" id="Layer_1-2"><path class="cls-1" d="M20.877,3.542H18.644a.335.335,0,1,0,0,.669h2.233a.559.559,0,0,1,.558.558V16.045H.67V4.769a.559.559,0,0,1,.558-.558H3.459a.335.335,0,0,0,0-.669H1.228A1.229,1.229,0,0,0,0,4.769v13.4A1.23,1.23,0,0,0,1.228,19.4H6.7V21.4H4.354a.335.335,0,0,0,0,.67h13.4a.335.335,0,0,0,0-.67H15.407V19.4h5.47a1.23,1.23,0,0,0,1.228-1.228V4.769A1.229,1.229,0,0,0,20.877,3.542ZM14.737,21.4H7.368V19.4h7.369Zm6.7-3.237a.559.559,0,0,1-.558.558H1.228a.559.559,0,0,1-.558-.558V16.715H21.435ZM6.627,3.992a3.785,3.785,0,0,1,7.415-1.254,2.258,2.258,0,0,1,3.184,2.7,2.6,2.6,0,0,1-.891,5.022h-1.71a.335.335,0,0,1,0-.67h1.71a1.922,1.922,0,0,0,.365-3.8.335.335,0,0,1-.241-.188c-.1-.351.283-.686.217-1.081a1.574,1.574,0,0,0-2.635-1.167.338.338,0,0,1-.558-.205,3.113,3.113,0,0,0-6.195.4c-.013.333.246,1.027-.343.962a2.566,2.566,0,1,0-.528,5.081H7.48a.335.335,0,1,1,0,.67H6.322A3.239,3.239,0,1,1,6.627,3.992ZM12.95,6.913v5.226h.567l-.9,1.562-.9-1.562h.567V6.913a.335.335,0,1,1,.669,0ZM9.155,13.344V8.117H8.588l.9-1.561.9,1.561H9.824v5.227a.335.335,0,0,1-.669,0Z" data-name="cloud computing" id="cloud_computing"/></g></g></svg>