<svg width="300" height="300" viewBox="0 0 300 300" fill="none" xmlns="http://www.w3.org/2000/svg">
<rect x="1" y="1" width="298" height="298" rx="24" fill="white"/>
<rect x="1" y="1" width="298" height="298" rx="24" stroke="#8BD897" stroke-width="2"/>
<foreignObject x="6.35387" y="70.668" width="284.768" height="169.332"><div xmlns="http://www.w3.org/1999/xhtml" style="backdrop-filter:blur(22.9px);clip-path:url(#bgblur_0_1757_111_clip_path);height:100%;width:100%"></div></foreignObject><path data-figma-bg-blur-radius="45.8" d="M65.5819 143.288C63.6619 143.288 61.8739 142.964 60.2179 142.316C58.5859 141.668 57.1699 140.768 55.9699 139.616C54.7699 138.44 53.8339 137.072 53.1619 135.512C52.4899 133.952 52.1539 132.248 52.1539 130.4C52.1539 128.552 52.4899 126.848 53.1619 125.288C53.8339 123.728 54.7699 122.372 55.9699 121.22C57.1699 120.044 58.5859 119.132 60.2179 118.484C61.8499 117.836 63.6379 117.512 65.5819 117.512C67.5019 117.512 69.2659 117.836 70.8739 118.484C72.5059 119.108 73.9219 120.008 75.1219 121.184C76.3459 122.336 77.2819 123.692 77.9299 125.252C78.6019 126.812 78.9379 128.528 78.9379 130.4C78.9379 132.272 78.6019 133.988 77.9299 135.548C77.2819 137.108 76.3459 138.476 75.1219 139.652C73.9219 140.804 72.5059 141.704 70.8739 142.352C69.2659 142.976 67.5019 143.288 65.5819 143.288ZM65.5819 140.084C66.9739 140.084 68.2579 139.844 69.4339 139.364C70.6339 138.884 71.6659 138.212 72.5299 137.348C73.4179 136.46 74.1019 135.428 74.5819 134.252C75.0859 133.076 75.3379 131.792 75.3379 130.4C75.3379 129.008 75.0859 127.724 74.5819 126.548C74.1019 125.372 73.4179 124.352 72.5299 123.488C71.6659 122.6 70.6339 121.916 69.4339 121.436C68.2579 120.956 66.9739 120.716 65.5819 120.716C64.1659 120.716 62.8579 120.956 61.6579 121.436C60.4819 121.916 59.4499 122.6 58.5619 123.488C57.6739 124.352 56.9779 125.372 56.4739 126.548C55.9939 127.724 55.7539 129.008 55.7539 130.4C55.7539 131.792 55.9939 133.076 56.4739 134.252C56.9779 135.428 57.6739 136.46 58.5619 137.348C59.4499 138.212 60.4819 138.884 61.6579 139.364C62.8579 139.844 64.1659 140.084 65.5819 140.084ZM93.2175 143.216C91.2735 143.216 89.5335 142.796 87.9975 141.956C86.4855 141.116 85.2975 139.964 84.4335 138.5C83.5695 137.036 83.1375 135.356 83.1375 133.46C83.1375 131.564 83.5695 129.884 84.4335 128.42C85.2975 126.956 86.4855 125.816 87.9975 125C89.5335 124.16 91.2735 123.74 93.2175 123.74C94.9455 123.74 96.4815 124.088 97.8255 124.784C99.1935 125.456 100.25 126.464 100.994 127.808L98.3655 129.5C97.7415 128.564 96.9735 127.88 96.0615 127.448C95.1735 126.992 94.2135 126.764 93.1815 126.764C91.9335 126.764 90.8175 127.04 89.8335 127.592C88.8495 128.144 88.0695 128.924 87.4935 129.932C86.9175 130.916 86.6295 132.092 86.6295 133.46C86.6295 134.828 86.9175 136.016 87.4935 137.024C88.0695 138.032 88.8495 138.812 89.8335 139.364C90.8175 139.916 91.9335 140.192 93.1815 140.192C94.2135 140.192 95.1735 139.976 96.0615 139.544C96.9735 139.088 97.7415 138.392 98.3655 137.456L100.994 139.112C100.25 140.432 99.1935 141.452 97.8255 142.172C96.4815 142.868 94.9455 143.216 93.2175 143.216ZM106.188 143V123.92H109.644V132.02H120.516V123.92H123.972V143H120.516V135.008H109.644V143H106.188ZM139.584 143.216C137.664 143.216 135.96 142.796 134.472 141.956C132.984 141.116 131.808 139.964 130.944 138.5C130.08 137.012 129.648 135.332 129.648 133.46C129.648 131.564 130.08 129.884 130.944 128.42C131.808 126.956 132.984 125.816 134.472 125C135.96 124.16 137.664 123.74 139.584 123.74C141.48 123.74 143.172 124.16 144.66 125C146.172 125.816 147.348 126.956 148.188 128.42C149.052 129.86 149.484 131.54 149.484 133.46C149.484 135.356 149.052 137.036 148.188 138.5C147.348 139.964 146.172 141.116 144.66 141.956C143.172 142.796 141.48 143.216 139.584 143.216ZM139.584 140.192C140.808 140.192 141.9 139.916 142.86 139.364C143.844 138.812 144.612 138.032 145.164 137.024C145.716 135.992 145.992 134.804 145.992 133.46C145.992 132.092 145.716 130.916 145.164 129.932C144.612 128.924 143.844 128.144 142.86 127.592C141.9 127.04 140.808 126.764 139.584 126.764C138.36 126.764 137.268 127.04 136.308 127.592C135.348 128.144 134.58 128.924 134.004 129.932C133.428 130.916 133.14 132.092 133.14 133.46C133.14 134.804 133.428 135.992 134.004 137.024C134.58 138.032 135.348 138.812 136.308 139.364C137.268 139.916 138.36 140.192 139.584 140.192ZM155.194 143V123.92H164.05C166.282 123.92 168.034 124.352 169.306 125.216C170.602 126.056 171.25 127.256 171.25 128.816C171.25 130.376 170.638 131.588 169.414 132.452C168.214 133.292 166.618 133.712 164.626 133.712L165.166 132.776C167.446 132.776 169.138 133.196 170.242 134.036C171.346 134.876 171.898 136.112 171.898 137.744C171.898 139.4 171.274 140.696 170.026 141.632C168.802 142.544 166.918 143 164.374 143H155.194ZM158.578 140.336H164.122C165.562 140.336 166.642 140.12 167.362 139.688C168.082 139.232 168.442 138.512 168.442 137.528C168.442 136.52 168.106 135.788 167.434 135.332C166.786 134.852 165.754 134.612 164.338 134.612H158.578V140.336ZM158.578 132.128H163.762C165.082 132.128 166.078 131.888 166.75 131.408C167.446 130.904 167.794 130.208 167.794 129.32C167.794 128.408 167.446 127.724 166.75 127.268C166.078 126.812 165.082 126.584 163.762 126.584H158.578V132.128ZM178.028 143V123.92H181.484V132.02H192.356V123.92H195.812V143H192.356V135.008H181.484V143H178.028ZM211.424 143.216C209.504 143.216 207.8 142.796 206.312 141.956C204.824 141.116 203.648 139.964 202.784 138.5C201.92 137.012 201.488 135.332 201.488 133.46C201.488 131.564 201.92 129.884 202.784 128.42C203.648 126.956 204.824 125.816 206.312 125C207.8 124.16 209.504 123.74 211.424 123.74C213.32 123.74 215.012 124.16 216.5 125C218.012 125.816 219.188 126.956 220.028 128.42C220.892 129.86 221.324 131.54 221.324 133.46C221.324 135.356 220.892 137.036 220.028 138.5C219.188 139.964 218.012 141.116 216.5 141.956C215.012 142.796 213.32 143.216 211.424 143.216ZM211.424 140.192C212.648 140.192 213.74 139.916 214.7 139.364C215.684 138.812 216.452 138.032 217.004 137.024C217.556 135.992 217.832 134.804 217.832 133.46C217.832 132.092 217.556 130.916 217.004 129.932C216.452 128.924 215.684 128.144 214.7 127.592C213.74 127.04 212.648 126.764 211.424 126.764C210.2 126.764 209.108 127.04 208.148 127.592C207.188 128.144 206.42 128.924 205.844 129.932C205.268 130.916 204.98 132.092 204.98 133.46C204.98 134.804 205.268 135.992 205.844 137.024C206.42 138.032 207.188 138.812 208.148 139.364C209.108 139.916 210.2 140.192 211.424 140.192ZM227.034 143V123.92H230.49V137.816L242.19 123.92H245.322V143H241.866V129.104L230.202 143H227.034ZM235.962 121.436C234.21 121.436 232.83 121.016 231.822 120.176C230.838 119.312 230.334 118.076 230.31 116.468H232.65C232.674 117.38 232.974 118.1 233.55 118.628C234.15 119.156 234.942 119.42 235.926 119.42C236.91 119.42 237.702 119.156 238.302 118.628C238.902 118.1 239.214 117.38 239.238 116.468H241.65C241.626 118.076 241.11 119.312 240.102 120.176C239.094 121.016 237.714 121.436 235.962 121.436ZM115.267 187V167.92H132.943V187H129.487V170.08L130.315 170.944H117.895L118.723 170.08V187H115.267ZM141.322 194.2C140.41 194.2 139.522 194.044 138.658 193.732C137.794 193.444 137.05 193.012 136.426 192.436L137.902 189.844C138.382 190.3 138.91 190.648 139.486 190.888C140.062 191.128 140.674 191.248 141.322 191.248C142.162 191.248 142.858 191.032 143.41 190.6C143.962 190.168 144.478 189.4 144.958 188.296L146.146 185.668L146.506 185.236L153.994 167.92H157.378L148.126 188.908C147.574 190.252 146.95 191.308 146.254 192.076C145.582 192.844 144.838 193.384 144.022 193.696C143.206 194.032 142.306 194.2 141.322 194.2ZM145.858 187.612L137.146 167.92H140.746L148.162 184.912L145.858 187.612ZM165.416 187V170.044L166.28 170.944H158.432V167.92H175.856V170.944H168.044L168.872 170.044V187H165.416ZM188.93 174.4C191.354 174.424 193.202 174.976 194.474 176.056C195.746 177.136 196.382 178.66 196.382 180.628C196.382 182.692 195.686 184.288 194.294 185.416C192.902 186.52 190.934 187.06 188.39 187.036L180.11 187V167.92H183.566V174.364L188.93 174.4ZM188.102 184.408C189.662 184.432 190.838 184.12 191.63 183.472C192.446 182.824 192.854 181.864 192.854 180.592C192.854 179.344 192.458 178.432 191.666 177.856C190.874 177.28 189.686 176.98 188.102 176.956L183.566 176.884V184.372L188.102 184.408Z" fill="#8BD897"/>
<defs>
<clipPath id="bgblur_0_1757_111_clip_path" transform="translate(-6.35387 -70.668)"><path d="M65.5819 143.288C63.6619 143.288 61.8739 142.964 60.2179 142.316C58.5859 141.668 57.1699 140.768 55.9699 139.616C54.7699 138.44 53.8339 137.072 53.1619 135.512C52.4899 133.952 52.1539 132.248 52.1539 130.4C52.1539 128.552 52.4899 126.848 53.1619 125.288C53.8339 123.728 54.7699 122.372 55.9699 121.22C57.1699 120.044 58.5859 119.132 60.2179 118.484C61.8499 117.836 63.6379 117.512 65.5819 117.512C67.5019 117.512 69.2659 117.836 70.8739 118.484C72.5059 119.108 73.9219 120.008 75.1219 121.184C76.3459 122.336 77.2819 123.692 77.9299 125.252C78.6019 126.812 78.9379 128.528 78.9379 130.4C78.9379 132.272 78.6019 133.988 77.9299 135.548C77.2819 137.108 76.3459 138.476 75.1219 139.652C73.9219 140.804 72.5059 141.704 70.8739 142.352C69.2659 142.976 67.5019 143.288 65.5819 143.288ZM65.5819 140.084C66.9739 140.084 68.2579 139.844 69.4339 139.364C70.6339 138.884 71.6659 138.212 72.5299 137.348C73.4179 136.46 74.1019 135.428 74.5819 134.252C75.0859 133.076 75.3379 131.792 75.3379 130.4C75.3379 129.008 75.0859 127.724 74.5819 126.548C74.1019 125.372 73.4179 124.352 72.5299 123.488C71.6659 122.6 70.6339 121.916 69.4339 121.436C68.2579 120.956 66.9739 120.716 65.5819 120.716C64.1659 120.716 62.8579 120.956 61.6579 121.436C60.4819 121.916 59.4499 122.6 58.5619 123.488C57.6739 124.352 56.9779 125.372 56.4739 126.548C55.9939 127.724 55.7539 129.008 55.7539 130.4C55.7539 131.792 55.9939 133.076 56.4739 134.252C56.9779 135.428 57.6739 136.46 58.5619 137.348C59.4499 138.212 60.4819 138.884 61.6579 139.364C62.8579 139.844 64.1659 140.084 65.5819 140.084ZM93.2175 143.216C91.2735 143.216 89.5335 142.796 87.9975 141.956C86.4855 141.116 85.2975 139.964 84.4335 138.5C83.5695 137.036 83.1375 135.356 83.1375 133.46C83.1375 131.564 83.5695 129.884 84.4335 128.42C85.2975 126.956 86.4855 125.816 87.9975 125C89.5335 124.16 91.2735 123.74 93.2175 123.74C94.9455 123.74 96.4815 124.088 97.8255 124.784C99.1935 125.456 100.25 126.464 100.994 127.808L98.3655 129.5C97.7415 128.564 96.9735 127.88 96.0615 127.448C95.1735 126.992 94.2135 126.764 93.1815 126.764C91.9335 126.764 90.8175 127.04 89.8335 127.592C88.8495 128.144 88.0695 128.924 87.4935 129.932C86.9175 130.916 86.6295 132.092 86.6295 133.46C86.6295 134.828 86.9175 136.016 87.4935 137.024C88.0695 138.032 88.8495 138.812 89.8335 139.364C90.8175 139.916 91.9335 140.192 93.1815 140.192C94.2135 140.192 95.1735 139.976 96.0615 139.544C96.9735 139.088 97.7415 138.392 98.3655 137.456L100.994 139.112C100.25 140.432 99.1935 141.452 97.8255 142.172C96.4815 142.868 94.9455 143.216 93.2175 143.216ZM106.188 143V123.92H109.644V132.02H120.516V123.92H123.972V143H120.516V135.008H109.644V143H106.188ZM139.584 143.216C137.664 143.216 135.96 142.796 134.472 141.956C132.984 141.116 131.808 139.964 130.944 138.5C130.08 137.012 129.648 135.332 129.648 133.46C129.648 131.564 130.08 129.884 130.944 128.42C131.808 126.956 132.984 125.816 134.472 125C135.96 124.16 137.664 123.74 139.584 123.74C141.48 123.74 143.172 124.16 144.66 125C146.172 125.816 147.348 126.956 148.188 128.42C149.052 129.86 149.484 131.54 149.484 133.46C149.484 135.356 149.052 137.036 148.188 138.5C147.348 139.964 146.172 141.116 144.66 141.956C143.172 142.796 141.48 143.216 139.584 143.216ZM139.584 140.192C140.808 140.192 141.9 139.916 142.86 139.364C143.844 138.812 144.612 138.032 145.164 137.024C145.716 135.992 145.992 134.804 145.992 133.46C145.992 132.092 145.716 130.916 145.164 129.932C144.612 128.924 143.844 128.144 142.86 127.592C141.9 127.04 140.808 126.764 139.584 126.764C138.36 126.764 137.268 127.04 136.308 127.592C135.348 128.144 134.58 128.924 134.004 129.932C133.428 130.916 133.14 132.092 133.14 133.46C133.14 134.804 133.428 135.992 134.004 137.024C134.58 138.032 135.348 138.812 136.308 139.364C137.268 139.916 138.36 140.192 139.584 140.192ZM155.194 143V123.92H164.05C166.282 123.92 168.034 124.352 169.306 125.216C170.602 126.056 171.25 127.256 171.25 128.816C171.25 130.376 170.638 131.588 169.414 132.452C168.214 133.292 166.618 133.712 164.626 133.712L165.166 132.776C167.446 132.776 169.138 133.196 170.242 134.036C171.346 134.876 171.898 136.112 171.898 137.744C171.898 139.4 171.274 140.696 170.026 141.632C168.802 142.544 166.918 143 164.374 143H155.194ZM158.578 140.336H164.122C165.562 140.336 166.642 140.12 167.362 139.688C168.082 139.232 168.442 138.512 168.442 137.528C168.442 136.52 168.106 135.788 167.434 135.332C166.786 134.852 165.754 134.612 164.338 134.612H158.578V140.336ZM158.578 132.128H163.762C165.082 132.128 166.078 131.888 166.75 131.408C167.446 130.904 167.794 130.208 167.794 129.32C167.794 128.408 167.446 127.724 166.75 127.268C166.078 126.812 165.082 126.584 163.762 126.584H158.578V132.128ZM178.028 143V123.92H181.484V132.02H192.356V123.92H195.812V143H192.356V135.008H181.484V143H178.028ZM211.424 143.216C209.504 143.216 207.8 142.796 206.312 141.956C204.824 141.116 203.648 139.964 202.784 138.5C201.92 137.012 201.488 135.332 201.488 133.46C201.488 131.564 201.92 129.884 202.784 128.42C203.648 126.956 204.824 125.816 206.312 125C207.8 124.16 209.504 123.74 211.424 123.74C213.32 123.74 215.012 124.16 216.5 125C218.012 125.816 219.188 126.956 220.028 128.42C220.892 129.86 221.324 131.54 221.324 133.46C221.324 135.356 220.892 137.036 220.028 138.5C219.188 139.964 218.012 141.116 216.5 141.956C215.012 142.796 213.32 143.216 211.424 143.216ZM211.424 140.192C212.648 140.192 213.74 139.916 214.7 139.364C215.684 138.812 216.452 138.032 217.004 137.024C217.556 135.992 217.832 134.804 217.832 133.46C217.832 132.092 217.556 130.916 217.004 129.932C216.452 128.924 215.684 128.144 214.7 127.592C213.74 127.04 212.648 126.764 211.424 126.764C210.2 126.764 209.108 127.04 208.148 127.592C207.188 128.144 206.42 128.924 205.844 129.932C205.268 130.916 204.98 132.092 204.98 133.46C204.98 134.804 205.268 135.992 205.844 137.024C206.42 138.032 207.188 138.812 208.148 139.364C209.108 139.916 210.2 140.192 211.424 140.192ZM227.034 143V123.92H230.49V137.816L242.19 123.92H245.322V143H241.866V129.104L230.202 143H227.034ZM235.962 121.436C234.21 121.436 232.83 121.016 231.822 120.176C230.838 119.312 230.334 118.076 230.31 116.468H232.65C232.674 117.38 232.974 118.1 233.55 118.628C234.15 119.156 234.942 119.42 235.926 119.42C236.91 119.42 237.702 119.156 238.302 118.628C238.902 118.1 239.214 117.38 239.238 116.468H241.65C241.626 118.076 241.11 119.312 240.102 120.176C239.094 121.016 237.714 121.436 235.962 121.436ZM115.267 187V167.92H132.943V187H129.487V170.08L130.315 170.944H117.895L118.723 170.08V187H115.267ZM141.322 194.2C140.41 194.2 139.522 194.044 138.658 193.732C137.794 193.444 137.05 193.012 136.426 192.436L137.902 189.844C138.382 190.3 138.91 190.648 139.486 190.888C140.062 191.128 140.674 191.248 141.322 191.248C142.162 191.248 142.858 191.032 143.41 190.6C143.962 190.168 144.478 189.4 144.958 188.296L146.146 185.668L146.506 185.236L153.994 167.92H157.378L148.126 188.908C147.574 190.252 146.95 191.308 146.254 192.076C145.582 192.844 144.838 193.384 144.022 193.696C143.206 194.032 142.306 194.2 141.322 194.2ZM145.858 187.612L137.146 167.92H140.746L148.162 184.912L145.858 187.612ZM165.416 187V170.044L166.28 170.944H158.432V167.92H175.856V170.944H168.044L168.872 170.044V187H165.416ZM188.93 174.4C191.354 174.424 193.202 174.976 194.474 176.056C195.746 177.136 196.382 178.66 196.382 180.628C196.382 182.692 195.686 184.288 194.294 185.416C192.902 186.52 190.934 187.06 188.39 187.036L180.11 187V167.92H183.566V174.364L188.93 174.4ZM188.102 184.408C189.662 184.432 190.838 184.12 191.63 183.472C192.446 182.824 192.854 181.864 192.854 180.592C192.854 179.344 192.458 178.432 191.666 177.856C190.874 177.28 189.686 176.98 188.102 176.956L183.566 176.884V184.372L188.102 184.408Z"/>
</clipPath></defs>
</svg>
