<svg width="300" height="300" viewBox="0 0 300 300" fill="none" xmlns="http://www.w3.org/2000/svg">
<g clip-path="url(#clip0_1754_38)">
<rect width="300" height="300" rx="25" fill="#50C5FF"/>
<path d="M0 112L20.0594 108.4C32.5221 106.163 45.3309 106.799 57.5108 110.259C74.0936 114.97 91.73 114.416 107.984 108.673L127.399 101.814C152.27 93.0274 179.711 95.2968 202.8 108.05L228.16 122.057C243.089 130.302 261.386 129.447 275.481 119.847C282.986 114.734 291.857 112 300.938 112H309V276H0V112Z" fill="#6AA173"/>
<path d="M323.5 157.838L267.666 137.711C251.952 132.047 234.857 131.455 218.79 136.02C206.127 139.617 192.77 140.027 179.911 137.211L145.878 129.761C131.166 126.54 115.902 126.825 101.321 130.595L13.5537 153.282C-1.73395 157.234 -17.9831 154.403 -31.0334 145.513C-40.1332 139.315 -50.8885 136 -61.8989 136H-67V300H242L323.5 157.838Z" fill="#74BA7F"/>
<rect x="-5" y="150" width="309" height="164" fill="#8BD897"/>
<path d="M338 407.269V378.269L170.429 150H145.304H120.179L-44 378.269V407.269H338Z" fill="#585858"/>
<rect x="144" y="153" width="6" height="8" fill="white"/>
<rect x="144" y="179" width="6" height="13" fill="white"/>
<rect x="144" y="223" width="6" height="18" fill="white"/>
<rect x="144" y="276" width="6" height="30" fill="white"/>
<g opacity="0.5">
<path d="M67.5117 57.2754C68.442 56.6494 69.4692 55.6031 70.2235 54.7651C70.8373 54.0831 71.9044 54.0065 72.5722 54.6356L88.7303 51.9047L120.082 54.6356L128.86 57.2754L131.949 58.0087C135.892 58.9444 135.304 64.7262 131.254 64.8498H122.033H118.132L63.3391 65.5591H47.4474C47.4474 65.5591 36.7049 65.195 41.0552 64.0242C45.4054 62.8534 51.123 61.0363 57.6571 59.4601C61.4899 58.5356 64.22 59.4906 67.5117 57.2754Z" fill="white"/>
<circle cx="116.979" cy="51.3727" r="13.4771" fill="white"/>
<circle cx="92.8623" cy="49.2448" r="13.4771" fill="white"/>
<circle cx="76.4593" cy="53.0574" r="8.24583" fill="white"/>
<circle cx="68.3022" cy="57.8453" r="5.05389" fill="white"/>
<ellipse cx="130.545" cy="56.604" rx="8.24583" ry="7.53651" fill="white"/>
<ellipse cx="104.3" cy="47.3828" rx="8.24583" ry="7.53651" fill="white"/>
<path d="M37.4468 64.4065C37.4468 64.8472 33.4346 65.2931 31.3289 65.2931C29.2233 65.2931 29.201 64.8472 29.201 64.4065C29.201 63.9657 32.7699 62.8105 34.8755 62.8105C36.9812 62.8105 36.7375 63.8745 37.4468 64.4065Z" fill="white"/>
<path d="M24.4129 64.4065C24.4129 64.8472 22.4625 65.1158 21.2211 65.1158C18.384 64.4951 16.3318 65.4704 16.7878 64.4065C17.3198 63.1652 19.6474 63.1652 21.753 63.1652C23.8586 63.1652 24.4129 63.9658 24.4129 64.4065Z" fill="white"/>
<ellipse cx="12.8866" cy="64.6725" rx="0.886648" ry="0.531989" fill="white"/>
</g>
<g opacity="0.5">
<path d="M241.98 36.0341C241.432 35.6653 240.827 35.049 240.382 34.5554C240.021 34.1537 239.392 34.1086 238.999 34.4791L229.481 32.8706L211.014 34.4791L205.844 36.0341L203.811 36.9085C202.001 37.6869 202.467 40.3734 204.434 40.4955H209.865H212.163L244.437 40.9133H253.798C253.798 40.9133 260.125 40.6988 257.563 40.0092C255.001 39.3196 251.633 38.2493 247.784 37.3209C245.527 36.7763 243.918 37.3388 241.98 36.0341Z" fill="white"/>
<path d="M218.848 32.6617C218.848 37.0459 223.081 38.8243 227.465 38.8243C231.85 38.8243 236.814 35.4791 236.814 31.0949C234.307 27.4392 233.207 23 228.823 23C224.439 23 218.848 28.2775 218.848 32.6617Z" fill="white"/>
<circle cx="4.85696" cy="4.85696" r="4.85696" transform="matrix(-1 0 0 1 241.566 28.6926)" fill="white"/>
<circle cx="2.97685" cy="2.97685" r="2.97685" transform="matrix(-1 0 0 1 244.491 33.3929)" fill="white"/>
<ellipse cx="4.96141" cy="4.64806" rx="4.96141" ry="4.64806" transform="matrix(-1 0 0 1 225.167 27.1258)" fill="white"/>
<ellipse cx="3.2902" cy="4.33471" rx="3.2902" ry="4.33471" transform="matrix(-1 0 0 1 226.108 23.7834)" fill="white"/>
<ellipse cx="5.01364" cy="4.64806" rx="5.01364" ry="4.64806" transform="matrix(-1 0 0 1 216.289 30.7816)" fill="white"/>
<ellipse cx="5.01364" cy="4.64806" rx="5.01364" ry="4.64806" transform="matrix(-1 0 0 1 219.109 29.946)" fill="white"/>
<path d="M259.688 40.2344C259.688 40.494 262.052 40.7566 263.292 40.7566C264.532 40.7566 264.545 40.494 264.545 40.2344C264.545 39.9748 262.443 39.2943 261.203 39.2943C259.963 39.2943 260.106 39.921 259.688 40.2344Z" fill="white"/>
<path d="M265.955 40.3911C265.955 40.5641 266.189 40.7044 266.478 40.7044C266.766 40.7044 267 40.5641 267 40.3911C267 40.218 266.766 40.0777 266.478 40.0777C266.189 40.0777 265.955 40.218 265.955 40.3911Z" fill="white"/>
</g>
</g>
<defs>
<clipPath id="clip0_1754_38">
<rect width="300" height="300" rx="25" fill="white"/>
</clipPath>
</defs>
</svg>
