<svg width="725" height="961" viewBox="0 0 725 961" fill="none" xmlns="http://www.w3.org/2000/svg">
<g clip-path="url(#clip0_1681_98)">
<rect width="725" height="961" rx="48" fill="#F9F9F9"/>
<path d="M248.045 238.351L343.961 238.351C371.942 238.351 386.035 204.592 366.358 184.698C346.682 164.803 360.775 131.044 388.756 131.044L490.534 131.044" stroke="url(#paint0_linear_1681_98)" stroke-width="5" stroke-linecap="round"/>
<circle cx="397.378" cy="132.466" r="12.0889" fill="#F48445"/>
<circle cx="397.378" cy="132.466" r="7.55557" fill="white"/>
<path d="M174.8 270.423V512.801C174.8 526.608 185.993 537.801 199.8 537.801L422.978 537.801" stroke="url(#paint1_linear_1681_98)" stroke-width="5" stroke-linecap="round"/>
<circle cx="174.089" cy="436.823" r="14.9334" fill="#6292F7"/>
<circle cx="174.089" cy="436.823" r="9.24446" fill="white"/>
<path d="M537.466 583.312L537.466 755.29C537.466 769.097 526.273 780.29 512.466 780.29L406.53 780.29C379.325 780.29 371.693 817.599 396.713 828.282L425.064 840.387C450.084 851.07 442.452 888.379 415.247 888.379L272.222 888.379" stroke="url(#paint2_linear_1681_98)" stroke-width="5" stroke-linecap="round"/>
<circle cx="467.778" cy="780.29" r="18.4889" fill="#63C473"/>
<circle cx="467.779" cy="780.29" r="12.8" fill="white"/>
</g>
<defs>
<linearGradient id="paint0_linear_1681_98" x1="404.489" y1="129.622" x2="393.112" y2="129.622" gradientUnits="userSpaceOnUse">
<stop stop-color="#F48445"/>
<stop offset="1" stop-color="#6292F7"/>
</linearGradient>
<linearGradient id="paint1_linear_1681_98" x1="175.511" y1="421.178" x2="175.511" y2="444.645" gradientUnits="userSpaceOnUse">
<stop stop-color="#6292F7"/>
<stop offset="1" stop-color="#63C574"/>
</linearGradient>
<linearGradient id="paint2_linear_1681_98" x1="443.601" y1="694.245" x2="484.134" y2="694.245" gradientUnits="userSpaceOnUse">
<stop offset="0.309284" stop-color="#EF3C3C"/>
<stop offset="0.6875" stop-color="#63C574"/>
</linearGradient>
<clipPath id="clip0_1681_98">
<rect width="725" height="961" rx="48" fill="white"/>
</clipPath>
</defs>
</svg>
