<svg width="63" height="63" viewBox="0 0 63 63" fill="none" xmlns="http://www.w3.org/2000/svg">
<rect width="62.2354" height="62.2354" rx="10" fill="white"/>
<path d="M19.6434 37.2671C18.7853 37.2671 17.9855 37.1294 17.244 36.854C16.5131 36.5679 15.8775 36.1654 15.3372 35.6463C14.7969 35.1273 14.3732 34.5181 14.066 33.819C13.7694 33.1198 13.6211 32.3518 13.6211 31.515C13.6211 30.6781 13.7694 29.9101 14.066 29.2109C14.3732 28.5118 14.7969 27.9027 15.3372 27.3836C15.8881 26.8645 16.5289 26.4673 17.2599 26.1918C17.9908 25.9058 18.7906 25.7628 19.6593 25.7628C20.6232 25.7628 21.4919 25.9323 22.2652 26.2713C23.0491 26.5997 23.7059 27.087 24.2355 27.7332L22.583 29.2586C22.2016 28.8243 21.7779 28.5012 21.3118 28.2893C20.8457 28.0669 20.3372 27.9556 19.7864 27.9556C19.2673 27.9556 18.7906 28.0404 18.3563 28.2099C17.922 28.3794 17.5459 28.623 17.2281 28.9408C16.9103 29.2586 16.6614 29.6347 16.4813 30.069C16.3118 30.5033 16.227 30.9853 16.227 31.515C16.227 32.0446 16.3118 32.5266 16.4813 32.9609C16.6614 33.3953 16.9103 33.7713 17.2281 34.0891C17.5459 34.4069 17.922 34.6506 18.3563 34.8201C18.7906 34.9895 19.2673 35.0743 19.7864 35.0743C20.3372 35.0743 20.8457 34.9684 21.3118 34.7565C21.7779 34.534 22.2016 34.2004 22.583 33.7554L24.2355 35.2809C23.7059 35.9271 23.0491 36.4196 22.2652 36.7586C21.4919 37.0976 20.6179 37.2671 19.6434 37.2671Z" fill="#232323"/>
<path d="M26.2917 37.0764V25.9535H31.1063C32.1021 25.9535 32.9601 26.1177 33.6805 26.4461C34.4008 26.7639 34.957 27.2247 35.3489 27.8285C35.7409 28.4323 35.9368 29.1527 35.9368 29.9895C35.9368 30.8158 35.7409 31.5308 35.3489 32.1347C34.957 32.7385 34.4008 33.2046 33.6805 33.533C32.9601 33.8508 32.1021 34.0097 31.1063 34.0097H27.7218L28.8658 32.8497V37.0764H26.2917ZM28.8658 33.1357L27.7218 31.9122H30.9633C31.7578 31.9122 32.351 31.7427 32.743 31.4037C33.1349 31.0647 33.3309 30.5933 33.3309 29.9895C33.3309 29.3751 33.1349 28.8984 32.743 28.5594C32.351 28.2205 31.7578 28.051 30.9633 28.051H27.7218L28.8658 26.8274V33.1357Z" fill="#232323"/>
<path d="M42.9721 37.2671C41.3937 37.2671 40.1596 36.8275 39.2697 35.9482C38.3799 35.069 37.935 33.8137 37.935 32.1823V25.9535H40.5091V32.087C40.5091 33.1463 40.7263 33.909 41.1606 34.3751C41.595 34.8412 42.2041 35.0743 42.988 35.0743C43.7719 35.0743 44.381 34.8412 44.8153 34.3751C45.2496 33.909 45.4668 33.1463 45.4668 32.087V25.9535H48.0092V32.1823C48.0092 33.8137 47.5643 35.069 46.6744 35.9482C45.7846 36.8275 44.5505 37.2671 42.9721 37.2671Z" fill="#232323"/>
</svg>
