<svg width="83" height="114" viewBox="0 0 83 114" fill="none" xmlns="http://www.w3.org/2000/svg">
<path d="M83 111C83 112.657 81.6569 114 80 114H3C1.34314 114 0 112.657 0 111V3C0 1.34315 1.34315 0 3 0H80C81.6569 0 83 1.34315 83 3V111ZM5 106C3.34315 106 2 107.343 2 109C2 110.657 3.34315 112 5 112C6.65685 112 8 110.657 8 109C8 107.343 6.65685 106 5 106ZM78 106C76.3431 106 75 107.343 75 109C75 110.657 76.3431 112 78 112C79.6569 112 81 110.657 81 109C81 107.343 79.6569 106 78 106ZM5 2C3.34315 2 2 3.34315 2 5C2 6.65685 3.34315 8 5 8C6.65685 8 8 6.65685 8 5C8 3.34315 6.65685 2 5 2ZM78 2C76.3431 2 75 3.34315 75 5C75 6.65685 76.3431 8 78 8C79.6569 8 81 6.65685 81 5C81 3.34315 79.6569 2 78 2Z" fill="white"/>
<circle cx="42.5" cy="37.5" r="24.5" fill="#232323" stroke="white" stroke-width="4"/>
<circle cx="43" cy="37" r="6" fill="#232323" stroke="white" stroke-width="2"/>
<circle cx="43" cy="37" r="2" fill="#232323"/>
<circle cx="43" cy="37" r="2" fill="white"/>
<circle cx="43" cy="37" r="2" stroke="white" stroke-width="2"/>
<path d="M12 71L19.6008 78.7605H27.2258H42.4758H57.7258H65.3508L73 71V108H12V71Z" fill="#D9D9D9"/>
<path d="M53.9356 45.4488C54.4111 44.4423 55.928 44.8487 55.8365 45.9581L52.6997 83.9847C52.2851 89.011 47.4163 92.4321 42.547 91.1186C37.8385 89.8657 35.4174 84.6516 37.4984 80.246L53.9356 45.4488Z" fill="#363636"/>
<circle cx="44.4998" cy="83.5" r="3.5" fill="white"/>
</svg>
