<svg width="120" height="115" viewBox="0 0 120 115" fill="none" xmlns="http://www.w3.org/2000/svg">
<path d="M120 115H3V0H120V115ZM5.5 111C4.67157 111 4 111.672 4 112.5C4 113.328 4.67157 114 5.5 114C6.32843 114 7 113.328 7 112.5C7 111.672 6.32843 111 5.5 111ZM117.5 111C116.672 111 116 111.672 116 112.5C116 113.328 116.672 114 117.5 114C118.328 114 119 113.328 119 112.5C119 111.672 118.328 111 117.5 111ZM5.5 1C4.67157 1 4 1.67157 4 2.5C4 3.32843 4.67157 4 5.5 4C6.32843 4 7 3.32843 7 2.5C7 1.67157 6.32843 1 5.5 1ZM117.5 1C116.672 1 116 1.67157 116 2.5C116 3.32843 116.672 4 117.5 4C118.328 4 119 3.32843 119 2.5C119 1.67157 118.328 1 117.5 1Z" fill="white"/>
<rect x="91" y="8" width="4" height="48" fill="#232323"/>
<rect x="99" y="8" width="4" height="48" fill="#232323"/>
<rect x="13" y="73" width="37" height="4" fill="#232323"/>
<rect x="13" y="82" width="37" height="4" fill="#232323"/>
<rect width="37" height="36" transform="matrix(1 0 0 -1 30 50)" fill="#232323"/>
<path d="M67 109H118V79H78.5L67 92.4593V109Z" fill="#C7C7C7"/>
<rect x="23" y="24" width="5" height="5" fill="#D9D9D9"/>
<rect x="71" y="11" width="3" height="3" rx="1.5" fill="#D9D9D9"/>
<rect x="71" y="15" width="3" height="3" rx="1.5" fill="#D9D9D9"/>
<rect x="23" y="31" width="5" height="5" fill="#D9D9D9"/>
<rect x="23" y="38" width="5" height="5" fill="#D9D9D9"/>
<rect x="23" y="45" width="5" height="5" fill="#D9D9D9"/>
<path d="M0 14C0 13.4477 0.447715 13 1 13H3V24H1C0.447715 24 0 23.5523 0 23V14Z" fill="#D9D9D9"/>
<path d="M0 30C0 29.4477 0.447715 29 1 29H3V60H1C0.447715 60 0 59.5523 0 59V30Z" fill="#D9D9D9"/>
</svg>
