<svg width="112" height="83" viewBox="0 0 112 83" fill="none" xmlns="http://www.w3.org/2000/svg">
<path d="M112 73C112 78.5229 107.523 83 102 83H10C4.47715 83 0 78.5229 0 73V10C0 4.47715 4.47715 0 10 0H102C107.523 0 112 4.47715 112 10V73ZM39.5 12C22.103 12 8 26.103 8 43.5C8 60.897 22.103 75 39.5 75C56.897 75 71 60.897 71 43.5C71 26.103 56.897 12 39.5 12Z" fill="white"/>
<path d="M43.882 13.7666C47.5325 14.2916 51.0818 15.5403 54.2648 17.4033C49.7972 22.8103 46.2533 28.91 43.7687 35.4551L51.0402 28.5322L60.3058 21.793C62.9609 24.3529 65.1111 27.4411 66.6046 30.8135C59.8132 32.5905 53.3666 35.4708 47.5206 39.334L57.5714 38H69.0284C69.6697 41.6321 69.5925 45.3943 68.8165 49C62.4065 46.4918 55.6404 45.037 48.7804 44.6846L57.1769 49.1201L66.5148 55.7578C64.9332 59.0898 62.6904 62.1112 59.9689 64.6006C56.1423 58.7587 51.3893 53.5878 45.9025 49.2891L50.2911 58.2109L53.9513 69.0684C50.7143 70.8363 47.1239 71.9644 43.4591 72.3809C43.7933 65.4011 42.9821 58.4202 41.0636 51.7148L39.34 61.5098L35.8859 72.4336C32.2294 71.95 28.6651 70.7421 25.4611 68.915C29.8478 63.4819 33.3107 57.3721 35.7198 50.832L28.589 57.7227L19.3732 64.5303C16.6993 61.9897 14.5261 58.9171 13.0079 55.5557C19.7079 53.7502 26.0621 50.8676 31.8263 47.0293L22.1251 48.3945L10.6681 48.4824C9.99886 44.8555 10.0479 41.0929 10.796 37.4814C17.3142 39.9741 24.1898 41.3806 31.1495 41.6533L22.3937 36.9463L13.1046 30.2402C14.7105 26.9201 16.9755 23.9156 19.715 21.4463C23.4905 27.3032 28.1938 32.4981 33.6339 36.8311L29.3273 27.9053L25.7491 17.0205C28.9994 15.2771 32.598 14.1759 36.2657 13.7871C35.8808 20.7296 36.6299 27.6821 38.4777 34.3711L40.3038 24.6504L43.882 13.7666ZM40.0001 39.5C38.0671 39.5 36.5001 41.067 36.5001 43C36.5001 44.933 38.0671 46.5 40.0001 46.5C41.9331 46.4999 43.5001 44.933 43.5001 43C43.5001 41.067 41.9331 39.5001 40.0001 39.5Z" fill="#232323"/>
<circle cx="39" cy="44" r="22.5" stroke="white"/>
<circle cx="39" cy="44" r="15.5" stroke="white"/>
<path d="M101.185 69C101.702 69 102.134 69.3943 102.181 69.9092L102.565 74.1377H98.3621L98.7468 69.9092C98.7938 69.3944 99.225 69.0002 99.7419 69H101.185ZM100.23 70.4014V72.7363H100.697V70.4014H100.23Z" fill="#5F5F5F"/>
<path fill-rule="evenodd" clip-rule="evenodd" d="M102.923 77.7088C102.982 78.2973 102.519 78.8083 101.928 78.8084H99.0001C98.4087 78.8084 97.9464 78.2973 98.005 77.7088L98.3624 74.1375H102.566L102.923 77.7088ZM100.464 75.5389C100.297 75.5389 100.142 75.5677 100 75.6258C99.8581 75.6838 99.7346 75.7657 99.6291 75.8709C99.5234 75.9763 99.4409 76.1001 99.382 76.242C99.3251 76.3838 99.2961 76.5383 99.296 76.7059C99.296 76.8736 99.3251 77.0288 99.382 77.1707C99.4409 77.3125 99.5216 77.4365 99.6251 77.5418C99.7308 77.6471 99.855 77.7289 99.9972 77.7869C100.142 77.845 100.298 77.8738 100.467 77.8738C100.633 77.8738 100.787 77.8449 100.927 77.7869C101.069 77.7289 101.192 77.648 101.296 77.5447C101.402 77.4394 101.484 77.3156 101.543 77.1736C101.602 77.0297 101.632 76.8735 101.632 76.7059C101.632 76.5362 101.602 76.3816 101.543 76.242C101.484 76.1001 101.402 75.9763 101.296 75.8709C101.192 75.7656 101.069 75.6838 100.927 75.6258C100.787 75.5678 100.633 75.5389 100.464 75.5389ZM100.464 75.9842C100.56 75.9842 100.648 76.0006 100.73 76.035C100.811 76.0693 100.881 76.119 100.94 76.1834C101.001 76.2479 101.048 76.3247 101.08 76.4129C101.115 76.5009 101.132 76.5986 101.132 76.7059C101.132 76.8133 101.115 76.9117 101.08 76.9998C101.048 77.088 101.001 77.1648 100.94 77.2293C100.879 77.2937 100.807 77.3424 100.726 77.3768C100.647 77.4111 100.559 77.4285 100.464 77.4285C100.368 77.4285 100.28 77.4112 100.198 77.3768C100.117 77.3424 100.046 77.2935 99.9855 77.2293C99.9266 77.1648 99.8794 77.088 99.8449 76.9998C99.8124 76.9095 99.796 76.8112 99.796 76.7059C99.7961 76.5986 99.8124 76.5009 99.8449 76.4129C99.8794 76.3247 99.9275 76.2479 99.9884 76.1834C100.049 76.119 100.119 76.0693 100.198 76.035C100.28 76.0006 100.368 75.9842 100.464 75.9842Z" fill="#232323"/>
<path d="M89.433 9.36754C89.7053 8.55086 90.4695 8 91.3304 8H101.67C102.53 8 103.295 8.55086 103.567 9.36754L104.897 13.3588C104.965 13.5627 105 13.7763 105 13.9912V16.3889C105 17.4935 104.105 18.3889 103 18.3889H90C88.8954 18.3889 88 17.4935 88 16.3889V13.9912C88 13.7763 88.0347 13.5627 88.1026 13.3588L89.433 9.36754Z" fill="#232323"/>
<rect x="95.5557" y="9.88892" width="1.88889" height="2.83333" fill="#FFEF76"/>
<rect x="90.8333" y="13.6667" width="1.88889" height="2.83333" fill="#FFEF76"/>
<rect x="100.278" y="13.6667" width="1.88889" height="2.83333" fill="#FFEF76"/>
</svg>
