<svg width="112" height="83" viewBox="0 0 112 83" fill="none" xmlns="http://www.w3.org/2000/svg">
<path d="M112 73C112 78.5229 107.523 83 102 83H10C4.47715 83 0 78.5229 0 73V10C0 4.47715 4.47715 0 10 0H102C107.523 0 112 4.47715 112 10V73ZM39.5 12C22.103 12 8 26.103 8 43.5C8 60.897 22.103 75 39.5 75C56.897 75 71 60.897 71 43.5C71 26.103 56.897 12 39.5 12Z" fill="white"/>
<path d="M41.0002 44.6V40.2L57.5717 38H69.0291C69.6705 41.6322 69.5926 45.3942 68.8166 49C61.3855 46.0923 53.4763 44.6 45.4966 44.6H41.0002Z" fill="#232323"/>
<path d="M41.5221 43.6178L38.9338 40.0596L51.0406 28.5324L60.306 21.7926C62.9612 24.3526 65.1113 27.4407 66.6048 30.8131C58.8851 32.833 51.6111 36.2788 45.1582 40.9729L41.5221 43.6178Z" fill="#232323"/>
<path d="M41.3991 42.4543L37.2192 41.0803L40.3041 24.6506L43.8819 13.7661C47.5327 14.2911 51.0823 15.5398 54.2655 17.403C49.1827 23.5545 45.2951 30.6022 42.8032 38.1828L41.3991 42.4543Z" fill="#232323"/>
<path d="M40.7719 41.5867L36.592 42.9607L29.3271 27.905L25.7493 17.0205C28.9995 15.277 32.5977 14.1762 36.2655 13.7874C35.8238 21.7549 36.876 29.7346 39.3678 37.3152L40.7719 41.5867Z" fill="#232323"/>
<path d="M39.6938 41.2942L37.1185 44.8618L22.3943 36.9465L13.1044 30.2405C14.7103 26.9201 16.9753 23.9154 19.7149 21.4459C24.0383 28.1528 29.5779 33.9921 36.048 38.6625L39.6938 41.2942Z" fill="#232323"/>
<path d="M38.6455 41.6666L38.6795 46.0665L22.1256 48.3943L10.6684 48.4828C9.9991 44.8557 10.0479 41.0932 10.7961 37.4815C18.2493 40.3317 26.1699 41.7629 34.1493 41.7013L38.6455 41.6666Z" fill="#232323"/>
<path d="M37.997 42.568L40.6112 46.1072L28.5889 57.7225L19.373 64.5299C16.6991 61.9893 14.5266 58.917 13.0084 55.5556C20.7132 53.4793 27.9618 49.9805 34.3803 45.2395L37.997 42.568Z" fill="#232323"/>
<path d="M38.0436 43.7194L42.2389 45.046L39.3402 61.5096L35.8857 72.4339C32.2292 71.9503 28.6657 70.7418 25.4617 68.9147C30.4745 62.7062 34.2821 55.6149 36.688 48.0065L38.0436 43.7194Z" fill="#232323"/>
<path d="M38.7439 44.6159L42.9134 43.2105L50.2916 58.211L53.9514 69.0682C50.7144 70.8361 47.1246 71.964 43.4598 72.3805C43.8414 64.4099 42.7291 56.4383 40.1802 48.8767L38.7439 44.6159Z" fill="#232323"/>
<path d="M39.846 44.899L42.3952 41.3127L57.1767 49.1201L66.5155 55.758C64.9339 59.0901 62.6909 62.1113 59.9694 64.6007C55.5971 57.9256 50.0149 52.127 43.5109 47.504L39.846 44.899Z" fill="#232323"/>
<circle cx="39" cy="44" r="22.5" stroke="white"/>
<circle cx="39" cy="44" r="15.5" stroke="white"/>
<path d="M101.185 69C101.702 69 102.134 69.3943 102.181 69.9092L102.565 74.1377H98.3621L98.7468 69.9092C98.7938 69.3944 99.225 69.0002 99.7419 69H101.185ZM100.23 70.4014V72.7363H100.697V70.4014H100.23Z" fill="#5F5F5F"/>
<path fill-rule="evenodd" clip-rule="evenodd" d="M102.923 77.7088C102.982 78.2973 102.519 78.8083 101.928 78.8084H99.0001C98.4087 78.8084 97.9464 78.2973 98.005 77.7088L98.3624 74.1375H102.566L102.923 77.7088ZM100.464 75.5389C100.297 75.5389 100.142 75.5677 100 75.6258C99.8581 75.6838 99.7346 75.7657 99.6291 75.8709C99.5234 75.9763 99.4409 76.1001 99.382 76.242C99.3251 76.3838 99.2961 76.5383 99.296 76.7059C99.296 76.8736 99.3251 77.0288 99.382 77.1707C99.4409 77.3125 99.5216 77.4365 99.6251 77.5418C99.7308 77.6471 99.855 77.7289 99.9972 77.7869C100.142 77.845 100.298 77.8738 100.467 77.8738C100.633 77.8738 100.787 77.8449 100.927 77.7869C101.069 77.7289 101.192 77.648 101.296 77.5447C101.402 77.4394 101.484 77.3156 101.543 77.1736C101.602 77.0297 101.632 76.8735 101.632 76.7059C101.632 76.5362 101.602 76.3816 101.543 76.242C101.484 76.1001 101.402 75.9763 101.296 75.8709C101.192 75.7656 101.069 75.6838 100.927 75.6258C100.787 75.5678 100.633 75.5389 100.464 75.5389ZM100.464 75.9842C100.56 75.9842 100.648 76.0006 100.73 76.035C100.811 76.0693 100.881 76.119 100.94 76.1834C101.001 76.2479 101.048 76.3247 101.08 76.4129C101.115 76.5009 101.132 76.5986 101.132 76.7059C101.132 76.8133 101.115 76.9117 101.08 76.9998C101.048 77.088 101.001 77.1648 100.94 77.2293C100.879 77.2937 100.807 77.3424 100.726 77.3768C100.647 77.4111 100.559 77.4285 100.464 77.4285C100.368 77.4285 100.28 77.4112 100.198 77.3768C100.117 77.3424 100.046 77.2935 99.9855 77.2293C99.9266 77.1648 99.8794 77.088 99.8449 76.9998C99.8124 76.9095 99.796 76.8112 99.796 76.7059C99.7961 76.5986 99.8124 76.5009 99.8449 76.4129C99.8794 76.3247 99.9275 76.2479 99.9884 76.1834C100.049 76.119 100.119 76.0693 100.198 76.035C100.28 76.0006 100.368 75.9842 100.464 75.9842Z" fill="#232323"/>
<path d="M89.433 9.36754C89.7053 8.55086 90.4695 8 91.3304 8H101.67C102.53 8 103.295 8.55086 103.567 9.36754L104.897 13.3588C104.965 13.5627 105 13.7763 105 13.9912V16.3889C105 17.4935 104.105 18.3889 103 18.3889H90C88.8954 18.3889 88 17.4935 88 16.3889V13.9912C88 13.7763 88.0347 13.5627 88.1026 13.3588L89.433 9.36754Z" fill="#232323"/>
<rect x="95.5557" y="9.88892" width="1.88889" height="2.83333" fill="#FFEF76"/>
<rect x="90.8333" y="13.6667" width="1.88889" height="2.83333" fill="#FFEF76"/>
<rect x="100.278" y="13.6667" width="1.88889" height="2.83333" fill="#FFEF76"/>
<path d="M43.5 43C43.5 44.933 41.933 46.5 40 46.5C38.067 46.5 36.5 44.933 36.5 43C36.5 41.067 38.067 39.5 40 39.5C41.933 39.5 43.5 41.067 43.5 43Z" fill="#6292F7"/>
</svg>
