<svg width="57" height="98" viewBox="0 0 57 98" fill="none" xmlns="http://www.w3.org/2000/svg">
<path d="M0 5C0 2.23857 2.23858 0 5 0H49V98H5C2.23858 98 0 95.7614 0 93V5Z" fill="white"/>
<rect x="5" y="7" width="38" height="16" rx="2" fill="#232323"/>
<rect x="5" y="30" width="38" height="16" rx="2" fill="#232323"/>
<rect x="5" y="53" width="38" height="16" rx="2" fill="#232323"/>
<rect x="5" y="76" width="38" height="16" rx="2" fill="#232323"/>
<path d="M49 6H55C56.1046 6 57 6.89543 57 8V91C57 92.1046 56.1046 93 55 93H49V6Z" fill="#232323"/>
<path d="M57 88H53C52.4477 88 52 87.5523 52 87C52 86.4477 52.4477 86 53 86H57V88ZM57 83H53C52.4477 83 52 82.5523 52 82C52 81.4477 52.4477 81 53 81H57V83ZM57 78H53C52.4477 78 52 77.5523 52 77C52 76.4477 52.4477 76 53 76H57V78ZM57 73H53C52.4477 73 52 72.5523 52 72C52 71.4477 52.4477 71 53 71H57V73ZM57 68H53C52.4477 68 52 67.5523 52 67C52 66.4477 52.4477 66 53 66H57V68ZM57 63H53C52.4477 63 52 62.5523 52 62C52 61.4477 52.4477 61 53 61H57V63ZM57 58H53C52.4477 58 52 57.5523 52 57C52 56.4477 52.4477 56 53 56H57V58ZM57 53H53C52.4477 53 52 52.5523 52 52C52 51.4477 52.4477 51 53 51H57V53ZM57 48H53C52.4477 48 52 47.5523 52 47C52 46.4477 52.4477 46 53 46H57V48ZM57 43H53C52.4477 43 52 42.5523 52 42C52 41.4477 52.4477 41 53 41H57V43ZM57 38H53C52.4477 38 52 37.5523 52 37C52 36.4477 52.4477 36 53 36H57V38ZM57 33H53C52.4477 33 52 32.5523 52 32C52 31.4477 52.4477 31 53 31H57V33ZM57 28H53C52.4477 28 52 27.5523 52 27C52 26.4477 52.4477 26 53 26H57V28ZM57 23H53C52.4477 23 52 22.5523 52 22C52 21.4477 52.4477 21 53 21H57V23ZM57 18H53C52.4477 18 52 17.5523 52 17C52 16.4477 52.4477 16 53 16H57V18ZM57 13H53C52.4477 13 52 12.5523 52 12C52 11.4477 52.4477 11 53 11H57V13Z" fill="#FFEF76"/>
</svg>
