<svg width="104" height="41" viewBox="0 0 104 41" fill="none" xmlns="http://www.w3.org/2000/svg">
<path d="M94 0C99.5229 5.15406e-07 104 4.47715 104 10V31C104 36.5228 99.5229 41 94 41H10C4.47715 41 1.28855e-07 36.5228 0 31V10C1.28855e-07 4.47715 4.47715 9.66386e-08 10 0H94ZM29.5 5C20.9396 5 14 11.9396 14 20.5C14 29.0604 20.9396 36 29.5 36C38.0604 36 45 29.0604 45 20.5C45 11.9396 38.0604 5 29.5 5ZM70.5 5C61.9396 5 55 11.9396 55 20.5C55 29.0604 61.9396 36 70.5 36C79.0604 36 86 29.0604 86 20.5C86 11.9396 79.0604 5 70.5 5Z" fill="white"/>
<path d="M27.208 6.3252C31.7453 5.51668 36.385 7.04186 39.5576 10.3848C36.0072 11.7543 33.2776 14.6565 32.1143 18.2207L42.3506 14.2158C44.5355 18.2736 44.5354 23.158 42.3506 27.2158C39.9523 24.2846 36.3649 22.6 32.6348 22.5918L39.6582 30.9629C36.5109 34.3296 31.8821 35.8896 27.3389 35.1152C29.363 31.8863 29.8062 27.9205 28.5947 24.3662L22.748 33.6592C18.5797 31.6934 15.6779 27.7651 15.0244 23.2031C18.7103 24.1398 22.6127 23.3519 25.623 21.1211L15 18.3838C15.6034 13.8148 18.4619 9.8542 22.6084 7.84277C22.8383 11.6382 24.776 15.1153 27.8164 17.3037L27.208 6.3252ZM28.6865 18.6094C27.972 19.146 27.4342 19.885 27.1436 20.7295C27.4427 21.565 27.9847 22.2932 28.6992 22.8203C29.5735 22.7906 30.4202 22.5042 31.1338 21.998C31.3837 21.163 31.384 20.2727 31.1348 19.4375C30.4173 18.9268 29.5657 18.6377 28.6865 18.6094Z" fill="#232323"/>
<path fill-rule="evenodd" clip-rule="evenodd" d="M68.208 6.32515C72.7453 5.51663 77.385 7.04182 80.5576 10.3847C77.0072 11.7543 74.2776 14.6565 73.1143 18.2207L83.3506 14.2158C85.5355 18.2735 85.5354 23.158 83.3506 27.2158C80.9523 24.2845 77.3649 22.6 73.6348 22.5918L80.6582 30.9628C77.5109 34.3296 72.8821 35.8895 68.3389 35.1152C70.363 31.8863 70.8062 27.9204 69.5947 24.3662L63.748 33.6591C59.5797 31.6934 56.6779 27.7651 56.0244 23.2031C59.7103 24.1397 63.6127 23.3519 66.623 21.1211L56 18.3837C56.6034 13.8148 59.4619 9.85415 63.6084 7.84273C63.8383 11.6382 65.776 15.1153 68.8164 17.3037L68.208 6.32515ZM69.6865 18.6093C68.972 19.146 68.4342 19.8849 68.1436 20.7294C68.4427 21.565 68.9847 22.2932 69.6992 22.8203C70.5735 22.7906 71.4202 22.5041 72.1338 21.998C72.3837 21.163 72.384 20.2727 72.1348 19.4375C71.4173 18.9268 70.5657 18.6376 69.6865 18.6093Z" fill="#232323"/>
<path d="M32.4033 20.9407C32.4033 22.5975 31.0602 23.9407 29.4033 23.9407C27.7465 23.9407 26.4033 22.5975 26.4033 20.9407C26.4033 19.2838 27.7465 17.9407 29.4033 17.9407C31.0602 17.9407 32.4033 19.2838 32.4033 20.9407Z" fill="#6292F7"/>
<path d="M73.5 20.5C73.5 22.1569 72.1569 23.5 70.5 23.5C68.8431 23.5 67.5 22.1569 67.5 20.5C67.5 18.8431 68.8431 17.5 70.5 17.5C72.1569 17.5 73.5 18.8431 73.5 20.5Z" fill="#6292F7"/>
</svg>
