<svg width="620" height="848" viewBox="0 0 620 848" fill="none" xmlns="http://www.w3.org/2000/svg">
<rect width="620" height="848" rx="48" fill="#F9F9F9"/>
<ellipse cx="442.5" cy="146" rx="27.5" ry="10" fill="#DADADA"/>
<path d="M452.881 103.379L477.995 110.108L467.694 116.147L473.596 126.529L448.481 119.799L452.881 103.379Z" fill="#A4A4A4"/>
<rect x="450.872" y="100.252" width="3" height="48" rx="1.5" transform="rotate(15 450.872 100.252)" fill="#363636"/>
<rect x="442.472" y="86.6165" width="3.23293" height="11.6386" rx="1.61647" transform="rotate(-30 442.472 86.6165)" fill="#A4A4A4"/>
<rect x="434" y="97.1807" width="3.23293" height="11.6386" rx="1.61647" transform="rotate(-60 434 97.1807)" fill="#A4A4A4"/>
<ellipse cx="183.833" cy="220.333" rx="45.8333" ry="16.6667" fill="#DADADA"/>
<path d="M202.802 149.297L244.659 160.513L227.49 170.579L237.326 187.881L195.469 176.665L202.802 149.297Z" fill="#A4A4A4"/>
<rect x="199.454" y="144.087" width="5" height="80" rx="2.5" transform="rotate(15 199.454 144.087)" fill="#363636"/>
<rect x="182.472" y="137.616" width="3.23293" height="11.6386" rx="1.61647" transform="rotate(-30 182.472 137.616)" fill="#A4A4A4"/>
<rect x="174" y="148.181" width="3.23293" height="11.6386" rx="1.61647" transform="rotate(-60 174 148.181)" fill="#A4A4A4"/>
<ellipse cx="438" cy="428" rx="66" ry="24" fill="#DADADA"/>
<path d="M465.316 325.708L525.589 341.859L500.866 356.354L515.03 381.268L454.756 365.118L465.316 325.708Z" fill="#A4A4A4"/>
<rect x="460.493" y="318.205" width="7.2" height="115.2" rx="3.6" transform="rotate(15 460.493 318.205)" fill="#363636"/>
<rect x="434.103" y="314.5" width="5" height="18" rx="2.5" transform="rotate(-30 434.103 314.5)" fill="#A4A4A4"/>
<rect x="421" y="330.839" width="5" height="18" rx="2.5" transform="rotate(-60 421 330.839)" fill="#A4A4A4"/>
<ellipse cx="163.028" cy="677.868" rx="78.0276" ry="28.3737" fill="#DADADA"/>
<path d="M195.321 556.935L266.579 576.028L237.35 593.165L254.095 622.62L182.837 603.527L195.321 556.935Z" fill="#A4A4A4"/>
<rect x="189.62" y="548.064" width="8.5121" height="136.194" rx="4.25605" transform="rotate(15 189.62 548.064)" fill="#363636"/>
<rect x="163.104" y="541.5" width="5" height="18" rx="2.5" transform="rotate(-30 163.104 541.5)" fill="#A4A4A4"/>
<rect x="150" y="557.838" width="5" height="18" rx="2.5" transform="rotate(-60 150 557.838)" fill="#A4A4A4"/>
<path d="M235.5 220.95L302.941 220.95C322.615 220.95 332.524 197.213 318.689 183.225C304.855 169.237 314.763 145.5 334.438 145.5L406 145.5" stroke="#A4A4A4" stroke-width="5" stroke-linecap="round"/>
<circle cx="404.5" cy="145.5" r="8.5" fill="#A4A4A4"/>
<circle cx="404.5" cy="145.5" r="5.3125" fill="white"/>
<path d="M184 243.5V406.5C184 420.307 195.193 431.5 209 431.5L358.5 431.5" stroke="#A4A4A4" stroke-width="5" stroke-linecap="round"/>
<circle cx="183.5" cy="315.5" r="10.5" fill="#A4A4A4"/>
<circle cx="183.5" cy="315.5" r="6.5" fill="white"/>
<path d="M438.999 463.5L438.999 577C438.999 590.807 427.807 602 413.999 602L357.773 602C336.232 602 330.189 631.541 350 640C369.81 648.459 363.768 678 342.227 678L252.5 678" stroke="#A4A4A4" stroke-width="5" stroke-linecap="round"/>
<circle cx="439" cy="532" r="13" fill="#A4A4A4"/>
<circle cx="439" cy="532" r="9" fill="white"/>
</svg>
