<svg width="475" height="159" viewBox="0 0 475 159" fill="none" xmlns="http://www.w3.org/2000/svg">
<g clip-path="url(#clip0_1883_2)">
<path d="M292 99.0002L264.301 99.0001C256.569 99 250.301 105.268 250.301 113V123.25C250.301 134.157 241.759 143 231.224 143L2 143" stroke="url(#paint0_linear_1883_2)" stroke-width="5" stroke-linecap="round"/>
<path d="M207.434 158.367C199.186 158.367 192.5 151.681 192.5 143.433C192.5 135.186 199.186 128.5 207.434 128.5C215.681 128.5 222.367 135.186 222.367 143.433C222.367 151.681 215.681 158.367 207.434 158.367Z" fill="#F48344"/>
<path d="M207.434 152.678C202.328 152.678 198.189 148.539 198.189 143.433C198.189 138.328 202.328 134.189 207.434 134.189C212.539 134.189 216.678 138.328 216.678 143.433C216.678 148.539 212.539 152.678 207.434 152.678Z" fill="white"/>
<path d="M355 143.126H330.188C326.874 143.126 324.188 140.44 324.188 137.126V132.563C324.188 129.25 326.874 126.563 330.188 126.563H347.375V103.375H320.562C318.906 103.375 317.562 102.032 317.562 100.375V86.8125H302C301.448 86.8125 301 86.3647 301 85.8125V44.75C301 44.1978 301.448 43.75 302 43.75H317.562V7C317.563 5.34327 318.906 4 320.562 4H355V143.126ZM308.625 50.376C308.073 50.376 307.625 50.8238 307.625 51.376V79.1885C307.625 79.7405 308.073 80.1885 308.625 80.1885H317.562V50.376H308.625Z" fill="#FFCC00"/>
<path d="M387.438 3.87402C389.094 3.87412 390.437 5.21735 390.438 6.87402V43.624H406C406.552 43.6241 407 44.0719 407 44.624V85.6865C407 86.2387 406.552 86.6864 406 86.6865H390.438V100.249C390.438 101.906 389.094 103.249 387.438 103.249H360.625V126.438H377.812C381.126 126.438 383.812 129.124 383.812 132.438V137C383.812 140.314 381.126 143 377.812 143H330.188C326.874 143 324.188 140.314 324.188 137V132.438C324.188 129.124 326.874 126.438 330.188 126.438H347.375V103.249H320.562C318.906 103.249 317.562 101.906 317.562 100.249V86.6865H302C301.448 86.6865 301 86.2387 301 85.6865V44.624C301 44.0719 301.448 43.624 302 43.624H317.562V6.87402C317.563 5.2173 318.906 3.87402 320.562 3.87402H387.438ZM308.625 50.25C308.073 50.25 307.625 50.6978 307.625 51.25V79.0625C307.625 79.6145 308.073 80.0625 308.625 80.0625H317.562V50.25H308.625ZM390.438 80.0625H399.375C399.927 80.0624 400.375 79.6144 400.375 79.0625V51.25C400.375 50.6979 399.927 50.2501 399.375 50.25H390.438V80.0625Z" fill="#FFDA45"/>
<rect x="380" y="8" width="5" height="36" rx="2.5" fill="white" fill-opacity="0.5"/>
<rect x="380" y="50" width="5" height="16" rx="2.5" fill="white" fill-opacity="0.5"/>
</g>
<defs>
<linearGradient id="paint0_linear_1883_2" x1="205.068" y1="143.097" x2="192.227" y2="143.111" gradientUnits="userSpaceOnUse">
<stop offset="0.07" stop-color="#F48344"/>
<stop offset="1" stop-color="#6292F7"/>
</linearGradient>
<clipPath id="clip0_1883_2">
<rect width="475" height="159" fill="white"/>
</clipPath>
</defs>
</svg>
