<svg width="150" height="150" viewBox="0 0 150 150" fill="none" xmlns="http://www.w3.org/2000/svg">
<rect x="6" y="6" width="138" height="138" stroke="#63C574" stroke-width="12"/>
<path d="M69.75 120.75C67.25 120.75 66 119.5 66 117V58.875C66 56.375 67.25 55.125 69.75 55.125H79.75C82.25 55.125 83.5 56.375 83.5 58.875V117C83.5 119.5 82.25 120.75 79.75 120.75H69.75ZM69.75 45.5C67.25 45.5 66 44.25 66 41.75V33.75C66 31.25 67.25 30 69.75 30H79.75C82.25 30 83.5 31.25 83.5 33.75V41.75C83.5 44.25 82.25 45.5 79.75 45.5H69.75Z" fill="#63C574"/>
</svg>
