<svg width="150" height="150" viewBox="0 0 150 150" fill="none" xmlns="http://www.w3.org/2000/svg">
<rect x="4" y="4" width="142" height="142" stroke="#6392F7" stroke-width="8"/>
<path d="M62.3635 124V54.1818H87.4544V124H62.3635ZM74.909 46.9091C71.515 46.9091 68.6059 45.7879 66.1817 43.5455C63.7575 41.303 62.5453 38.6061 62.5453 35.4545C62.5453 32.303 63.7575 29.6061 66.1817 27.3636C68.6059 25.1212 71.515 24 74.909 24C78.3332 24 81.2423 25.1212 83.6363 27.3636C86.0605 29.6061 87.2726 32.303 87.2726 35.4545C87.2726 38.6061 86.0605 41.303 83.6363 43.5455C81.2423 45.7879 78.3332 46.9091 74.909 46.9091Z" fill="#6392F7"/>
</svg>
