<svg width="336" height="169" viewBox="0 0 336 169" fill="none" xmlns="http://www.w3.org/2000/svg">
<path d="M5 3V86.4401C4.99999 95.5862 14.5265 103 26.278 103H174" stroke="url(#paint0_linear_1878_4)" stroke-width="5" stroke-linecap="round"/>
<path d="M42.5667 118.366C50.8142 118.366 57.5001 111.68 57.5001 103.433C57.5001 95.1854 50.8142 88.4995 42.5667 88.4995C34.3192 88.4995 27.6333 95.1854 27.6333 103.433C27.6333 111.68 34.3192 118.366 42.5667 118.366Z" fill="#6292F7"/>
<path d="M42.5667 112.677C47.6723 112.677 51.8112 108.539 51.8112 103.433C51.8112 98.3274 47.6723 94.1885 42.5667 94.1885C37.4612 94.1885 33.3223 98.3274 33.3223 103.433C33.3223 108.539 37.4612 112.677 42.5667 112.677Z" fill="white"/>
<path d="M278.979 38.9779L286.184 46.5697L281.231 55.149L274.025 47.5571L278.979 38.9779Z" fill="#1E1E1E"/>
<path d="M269.072 56.1364L276.278 63.7283L271.325 72.3075L264.119 64.7156L269.072 56.1364Z" fill="#1E1E1E"/>
<path d="M300.1 62.6114L310.278 65.0558L305.325 73.635L295.147 71.1907L300.1 62.6114Z" fill="#1E1E1E"/>
<path d="M290.194 79.77L300.371 82.2143L295.418 90.7935L285.24 88.3492L290.194 79.77Z" fill="#1E1E1E"/>
<path d="M286.184 46.5697C288.48 49.1168 291.522 50.8731 294.876 51.5878L289.923 60.1671L281.231 55.149L286.184 46.5697Z" fill="#CDCDCD"/>
<path d="M276.278 63.7283L284.969 68.7464L280.016 77.3256L271.325 72.3075L276.278 63.7283Z" fill="#CDCDCD"/>
<path d="M310.278 65.0558L318.969 70.0739L314.016 78.6531L305.325 73.635L310.278 65.0558Z" fill="#CDCDCD"/>
<path d="M300.371 82.2143L309.063 87.2324L304.11 95.8116C301.814 93.2646 298.772 91.5083 295.418 90.7935L300.371 82.2143Z" fill="#CDCDCD"/>
<path d="M281.231 55.149L289.923 60.1671L284.969 68.7464L276.278 63.7283L281.231 55.149Z" fill="#1E1E1E"/>
<path d="M271.325 72.3075L280.016 77.3256L275.063 85.9049C271.709 85.1901 268.667 83.4338 266.371 80.8868L271.325 72.3075Z" fill="#1E1E1E"/>
<path d="M305.325 73.635L314.016 78.6531L309.063 87.2324L300.371 82.2143L305.325 73.635Z" fill="#1E1E1E"/>
<path d="M315.231 56.4765C318.585 57.1912 321.627 58.9476 323.923 61.4946L318.969 70.0739L310.278 65.0558L315.231 56.4765Z" fill="#1E1E1E"/>
<path d="M274.025 47.5571L281.231 55.149L276.278 63.7283L269.072 56.1364L274.025 47.5571Z" fill="#CDCDCD"/>
<path d="M264.119 64.7156L271.325 72.3075L266.371 80.8868L259.166 73.2949L264.119 64.7156Z" fill="#CDCDCD"/>
<path d="M295.147 71.1907L305.325 73.635L300.371 82.2143L290.194 79.77L295.147 71.1907Z" fill="#CDCDCD"/>
<path d="M305.053 54.0322L315.231 56.4765L310.278 65.0558L300.1 62.6114L305.053 54.0322Z" fill="#CDCDCD"/>
<path d="M289.923 60.1671L300.1 62.6114L295.147 71.1907L284.969 68.7464L289.923 60.1671Z" fill="#CDCDCD"/>
<path d="M280.016 77.3256L290.194 79.77L285.24 88.3492L275.063 85.9049L280.016 77.3256Z" fill="#CDCDCD"/>
<path d="M314.016 78.6531L321.222 86.245L316.269 94.8243L309.063 87.2324L314.016 78.6531Z" fill="#CDCDCD"/>
<path d="M323.923 61.4946L331.128 69.0865L326.175 77.6657L318.969 70.0739L323.923 61.4946Z" fill="#CDCDCD"/>
<path d="M294.876 51.5878L305.053 54.0322L300.1 62.6114L289.923 60.1671L294.876 51.5878Z" fill="#1E1E1E"/>
<path d="M284.969 68.7464L295.147 71.1907L290.194 79.77L280.016 77.3256L284.969 68.7464Z" fill="#1E1E1E"/>
<path d="M318.969 70.0739L326.175 77.6657L321.222 86.245L314.016 78.6531L318.969 70.0739Z" fill="#1E1E1E"/>
<path d="M309.063 87.2324L316.269 94.8243L311.315 103.404L304.11 95.8116L309.063 87.2324Z" fill="#1E1E1E"/>
<rect x="276" y="32.1592" width="6" height="94" rx="3" transform="rotate(30 276 32.1592)" fill="#976950"/>
<path d="M231.598 115.066C230.163 114.237 229.671 112.402 230.5 110.967L274.5 34.7573C275.328 33.3224 277.163 32.8308 278.598 33.6592L231.598 115.066Z" fill="#AC7C62"/>
<path d="M217.449 38.9779L210.244 46.5697L215.197 55.149L222.403 47.5571L217.449 38.9779Z" fill="#1E1E1E"/>
<path d="M227.356 56.1364L220.15 63.7283L225.103 72.3075L232.309 64.7156L227.356 56.1364Z" fill="#1E1E1E"/>
<path d="M196.328 62.6114L186.15 65.0558L191.103 73.635L201.281 71.1907L196.328 62.6114Z" fill="#1E1E1E"/>
<path d="M206.234 79.77L196.057 82.2143L201.01 90.7935L211.188 88.3492L206.234 79.77Z" fill="#1E1E1E"/>
<path d="M210.244 46.5697C207.948 49.1168 204.906 50.8731 201.552 51.5878L206.505 60.1671L215.197 55.149L210.244 46.5697Z" fill="#CDCDCD"/>
<path d="M220.15 63.7283L211.459 68.7464L216.412 77.3256L225.103 72.3075L220.15 63.7283Z" fill="#CDCDCD"/>
<path d="M186.15 65.0558L177.459 70.0739L182.412 78.6531L191.103 73.635L186.15 65.0558Z" fill="#CDCDCD"/>
<path d="M196.057 82.2143L187.365 87.2324L192.318 95.8116C194.614 93.2646 197.656 91.5083 201.01 90.7935L196.057 82.2143Z" fill="#CDCDCD"/>
<path d="M215.197 55.149L206.505 60.1671L211.459 68.7464L220.15 63.7283L215.197 55.149Z" fill="#1E1E1E"/>
<path d="M225.103 72.3075L216.412 77.3256L221.365 85.9049C224.719 85.1901 227.761 83.4338 230.057 80.8868L225.103 72.3075Z" fill="#1E1E1E"/>
<path d="M191.103 73.635L182.412 78.6531L187.365 87.2324L196.057 82.2143L191.103 73.635Z" fill="#1E1E1E"/>
<path d="M181.197 56.4765C177.843 57.1912 174.801 58.9476 172.505 61.4946L177.459 70.0739L186.15 65.0558L181.197 56.4765Z" fill="#1E1E1E"/>
<path d="M222.403 47.5571L215.197 55.149L220.15 63.7283L227.356 56.1364L222.403 47.5571Z" fill="#CDCDCD"/>
<path d="M232.309 64.7156L225.103 72.3075L230.057 80.8868L237.262 73.2949L232.309 64.7156Z" fill="#CDCDCD"/>
<path d="M201.281 71.1907L191.103 73.635L196.057 82.2143L206.234 79.77L201.281 71.1907Z" fill="#CDCDCD"/>
<path d="M191.375 54.0322L181.197 56.4765L186.15 65.0558L196.328 62.6114L191.375 54.0322Z" fill="#CDCDCD"/>
<path d="M206.505 60.1671L196.328 62.6114L201.281 71.1907L211.459 68.7464L206.505 60.1671Z" fill="#CDCDCD"/>
<path d="M216.412 77.3256L206.234 79.77L211.188 88.3492L221.365 85.9049L216.412 77.3256Z" fill="#CDCDCD"/>
<path d="M182.412 78.6531L175.206 86.245L180.159 94.8243L187.365 87.2324L182.412 78.6531Z" fill="#CDCDCD"/>
<path d="M172.505 61.4946L165.3 69.0865L170.253 77.6657L177.459 70.0739L172.505 61.4946Z" fill="#CDCDCD"/>
<path d="M201.552 51.5878L191.375 54.0322L196.328 62.6114L206.505 60.1671L201.552 51.5878Z" fill="#1E1E1E"/>
<path d="M211.459 68.7464L201.281 71.1907L206.234 79.77L216.412 77.3256L211.459 68.7464Z" fill="#1E1E1E"/>
<path d="M177.459 70.0739L170.253 77.6657L175.206 86.245L182.412 78.6531L177.459 70.0739Z" fill="#1E1E1E"/>
<path d="M187.365 87.2324L180.159 94.8243L185.113 103.404L192.318 95.8116L187.365 87.2324Z" fill="#1E1E1E"/>
<rect width="6" height="94" rx="3" transform="matrix(-0.866025 0.5 0.5 0.866025 220.428 32.1592)" fill="#976950"/>
<path d="M264.83 115.066C266.265 114.238 266.757 112.403 265.928 110.968L221.928 34.7577C221.1 33.3229 219.265 32.8312 217.83 33.6597L264.83 115.066Z" fill="#AC7C62"/>
<path d="M220.384 149.36C219.136 149.36 218.016 149.168 217.024 148.784C216.032 148.4 215.192 147.84 214.504 147.104C213.816 146.352 213.288 145.44 212.92 144.368C212.552 143.296 212.368 142.064 212.368 140.672C212.368 139.28 212.576 138.048 212.992 136.976C213.424 135.904 214.008 135 214.744 134.264C215.48 133.512 216.344 132.944 217.336 132.56C218.328 132.176 219.392 131.984 220.528 131.984C221.216 131.984 221.84 132.04 222.4 132.152C222.96 132.248 223.448 132.36 223.864 132.488C224.28 132.616 224.624 132.752 224.896 132.896C225.168 133.04 225.36 133.144 225.472 133.208L224.584 135.68C224.2 135.44 223.648 135.216 222.928 135.008C222.224 134.784 221.456 134.672 220.624 134.672C219.904 134.672 219.232 134.8 218.608 135.056C217.984 135.296 217.44 135.664 216.976 136.16C216.528 136.656 216.176 137.28 215.92 138.032C215.664 138.784 215.536 139.656 215.536 140.648C215.536 141.528 215.632 142.336 215.824 143.072C216.032 143.808 216.344 144.448 216.76 144.992C217.176 145.52 217.704 145.936 218.344 146.24C218.984 146.528 219.752 146.672 220.648 146.672C221.72 146.672 222.592 146.568 223.264 146.36C223.936 146.136 224.456 145.928 224.824 145.736L225.64 148.208C225.448 148.336 225.184 148.464 224.848 148.592C224.528 148.72 224.144 148.848 223.696 148.976C223.248 149.088 222.744 149.176 222.184 149.24C221.624 149.32 221.024 149.36 220.384 149.36ZM240.24 132.368V134.984H235.128V149H232.08V134.984H226.968V132.368H240.24ZM252.227 149C252.003 148.344 251.771 147.696 251.531 147.056C251.291 146.416 251.059 145.76 250.835 145.088H243.827C243.603 145.76 243.371 146.424 243.131 147.08C242.907 147.72 242.683 148.36 242.459 149H239.315C239.939 147.224 240.531 145.584 241.091 144.08C241.651 142.576 242.195 141.152 242.723 139.808C243.267 138.464 243.803 137.184 244.331 135.968C244.859 134.752 245.403 133.552 245.963 132.368H248.819C249.379 133.552 249.923 134.752 250.451 135.968C250.979 137.184 251.507 138.464 252.035 139.808C252.579 141.152 253.131 142.576 253.691 144.08C254.267 145.584 254.867 147.224 255.491 149H252.227ZM247.331 135.584C246.963 136.432 246.539 137.464 246.059 138.68C245.595 139.896 245.107 141.216 244.595 142.64H250.067C249.555 141.216 249.059 139.888 248.579 138.656C248.099 137.424 247.683 136.4 247.331 135.584ZM262.298 132.2C264.714 132.2 266.562 132.64 267.842 133.52C269.138 134.4 269.786 135.776 269.786 137.648C269.786 138.624 269.61 139.464 269.258 140.168C268.922 140.856 268.426 141.424 267.77 141.872C267.114 142.304 266.314 142.624 265.37 142.832C264.426 143.04 263.346 143.144 262.13 143.144H260.618V149H257.594V132.608C258.298 132.448 259.074 132.344 259.922 132.296C260.786 132.232 261.578 132.2 262.298 132.2ZM262.514 134.816C261.746 134.816 261.114 134.84 260.618 134.888V140.552H262.082C263.538 140.552 264.658 140.352 265.442 139.952C266.226 139.536 266.618 138.76 266.618 137.624C266.618 137.08 266.514 136.624 266.306 136.256C266.098 135.888 265.81 135.6 265.442 135.392C265.074 135.184 264.634 135.04 264.122 134.96C263.626 134.864 263.09 134.816 262.514 134.816ZM284.139 132.368V134.984H279.027V149H275.979V134.984H270.867V132.368H284.139Z" fill="white"/>
<defs>
<linearGradient id="paint0_linear_1878_4" x1="35.6404" y1="103.081" x2="52" y2="103.081" gradientUnits="userSpaceOnUse">
<stop offset="0.07" stop-color="#6292F7"/>
<stop offset="1" stop-color="#63C574"/>
</linearGradient>
</defs>
</svg>
