<svg width="336" height="169" viewBox="0 0 336 169" fill="none" xmlns="http://www.w3.org/2000/svg">
<path d="M5 3V86.4401C4.99999 95.5862 12.3844 103 21.4936 103H136" stroke="url(#paint0_linear_1878_4)" stroke-width="5" stroke-linecap="round"/>
<path d="M42.5667 118.366C50.8142 118.366 57.5001 111.68 57.5001 103.433C57.5001 95.1854 50.8142 88.4995 42.5667 88.4995C34.3192 88.4995 27.6333 95.1854 27.6333 103.433C27.6333 111.68 34.3192 118.366 42.5667 118.366Z" fill="#6292F7"/>
<path d="M42.5667 112.677C47.6723 112.677 51.8112 108.539 51.8112 103.433C51.8112 98.3274 47.6723 94.1885 42.5667 94.1885C37.4612 94.1885 33.3223 98.3274 33.3223 103.433C33.3223 108.539 37.4612 112.677 42.5667 112.677Z" fill="white"/>
<path d="M181 11C224.19 15.9835 267.81 15.9835 311 11V54C267.81 58.9835 224.19 58.9835 181 54V11Z" fill="#EF3C3C"/>
<path d="M214.032 44.288C212.736 44.288 211.528 44.08 210.408 43.664C209.304 43.232 208.344 42.624 207.528 41.84C206.712 41.056 206.072 40.136 205.608 39.08C205.16 38.024 204.936 36.864 204.936 35.6C204.936 34.336 205.16 33.176 205.608 32.12C206.072 31.064 206.712 30.144 207.528 29.36C208.36 28.576 209.328 27.976 210.432 27.56C211.536 27.128 212.744 26.912 214.056 26.912C215.512 26.912 216.824 27.168 217.992 27.68C219.176 28.176 220.168 28.912 220.968 29.888L218.472 32.192C217.896 31.536 217.256 31.048 216.552 30.728C215.848 30.392 215.08 30.224 214.248 30.224C213.464 30.224 212.744 30.352 212.088 30.608C211.432 30.864 210.864 31.232 210.384 31.712C209.904 32.192 209.528 32.76 209.256 33.416C209 34.072 208.872 34.8 208.872 35.6C208.872 36.4 209 37.128 209.256 37.784C209.528 38.44 209.904 39.008 210.384 39.488C210.864 39.968 211.432 40.336 212.088 40.592C212.744 40.848 213.464 40.976 214.248 40.976C215.08 40.976 215.848 40.816 216.552 40.496C217.256 40.16 217.896 39.656 218.472 38.984L220.968 41.288C220.168 42.264 219.176 43.008 217.992 43.52C216.824 44.032 215.504 44.288 214.032 44.288ZM226.821 44V29.48L227.709 30.368H221.469V27.2H236.037V30.368H229.797L230.661 29.48V44H226.821ZM235.739 44L243.227 27.2H247.067L254.579 44H250.499L244.355 29.168H245.891L239.723 44H235.739ZM239.483 40.4L240.515 37.448H249.155L250.211 40.4H239.483ZM256.807 44V27.2H264.079C265.583 27.2 266.879 27.448 267.967 27.944C269.055 28.424 269.895 29.12 270.487 30.032C271.079 30.944 271.375 32.032 271.375 33.296C271.375 34.544 271.079 35.624 270.487 36.536C269.895 37.448 269.055 38.152 267.967 38.648C266.879 39.128 265.583 39.368 264.079 39.368H258.967L260.695 37.616V44H256.807ZM260.695 38.048L258.967 36.2H263.863C265.063 36.2 265.959 35.944 266.551 35.432C267.143 34.92 267.439 34.208 267.439 33.296C267.439 32.368 267.143 31.648 266.551 31.136C265.959 30.624 265.063 30.368 263.863 30.368H258.967L260.695 28.52V38.048ZM276.86 44V29.48L277.748 30.368H271.508V27.2H286.076V30.368H279.836L280.7 29.48V44H276.86Z" fill="white"/>
<path d="M176.186 5.66732C176.085 4.22519 177.228 3 178.674 3C179.984 3 181.071 4.01367 181.162 5.32059L190.49 139.2C190.591 140.642 189.448 141.867 188.003 141.867C186.692 141.867 185.606 140.853 185.515 139.547L176.186 5.66732Z" fill="#363636"/>
<path d="M314.49 5.66732C314.591 4.22519 313.448 3 312.002 3C310.692 3 309.606 4.01367 309.515 5.32059L300.186 139.2C300.085 140.642 301.228 141.867 302.674 141.867C303.984 141.867 305.071 140.853 305.162 139.547L314.49 5.66732Z" fill="#363636"/>
<path d="M198.41 137.806L205.467 128.177L201.551 139.453L212.273 134.207L203.962 142H189.312L181 134.207L191.723 139.453L187.807 128.177L194.863 137.806L196.637 126L198.41 137.806Z" fill="#3B8748"/>
<path d="M301.41 137.806L308.467 128.177L304.551 139.453L315.273 134.207L306.962 142H292.312L284 134.207L294.723 139.453L290.807 128.177L297.863 137.806L299.637 126L301.41 137.806Z" fill="#3B8748"/>
<path d="M189.836 138.154L200.435 131.565L193.947 142H180.053L173.565 131.565L184.164 138.154L187 126L189.836 138.154Z" fill="#62C473"/>
<path d="M309.725 137.953L318.603 129.629L313.43 140.645L325.505 139.129L320.292 142H294.577L289.364 139.129L301.439 140.645L296.267 129.629L305.145 137.953L307.435 126L309.725 137.953Z" fill="#62C473"/>
<defs>
<linearGradient id="paint0_linear_1878_4" x1="28.7508" y1="103.081" x2="41.4319" y2="103.081" gradientUnits="userSpaceOnUse">
<stop offset="0.07" stop-color="#6292F7"/>
<stop offset="1" stop-color="#63C574"/>
</linearGradient>
</defs>
</svg>
