<svg width="358" height="179" viewBox="0 0 358 179" fill="none" xmlns="http://www.w3.org/2000/svg">
<path d="M26.6668 13.3335C26.6668 20.6973 20.6973 26.6668 13.3335 26.6668C5.9697 26.6668 0.000152588 20.6973 0.000152588 13.3335C0.000152588 5.9697 5.9697 0.000163078 13.3335 0.000163078C20.6973 0.000163078 26.6668 5.9697 26.6668 13.3335ZM13.3335 140.163H15.8335V140.163H13.3335ZM34.6115 165.333V162.833V162.833V165.333ZM357.667 165.333C357.667 172.697 351.697 178.667 344.333 178.667C336.97 178.667 331 172.697 331 165.333C331 157.97 336.97 152 344.333 152C351.697 152 357.667 157.97 357.667 165.333ZM13.3335 13.3335H15.8335V140.163H13.3335H10.8335V13.3335H13.3335ZM34.6115 165.333V162.833L344.333 162.833L344.333 165.333L344.333 167.833L34.6115 167.833V165.333ZM13.3335 140.163H15.8335C15.8335 153.094 24.6179 162.833 34.6115 162.833V165.333V167.833C21.102 167.833 10.8335 155.035 10.8335 140.163H13.3335Z" fill="#63C574"/>
<circle cx="13.3335" cy="13.3335" r="8" fill="white"/>
<circle cx="344.333" cy="165.333" r="8" fill="white"/>
</svg>
